<svg xmlns="http://www.w3.org/2000/svg" width="330.5042724609375" height="323.7049560546875" viewBox="-64.13328552246094 -65.97123718261719 330.5042724609375 323.7049560546875"><title>Neo4j Graph Visualization</title><desc>Created using Neo4j (http://www.neo4j.com/)</desc><g class="layer relationships"><g class="relationship" transform="translate(100.22710839443602 96.54374962543862) rotate(440.31509935940795)"><path class="outline" fill="#A5ABB6" stroke="none" d="M 25 0.5 L 52.55060034789339 0.5 L 52.55060034789339 -0.5 L 25 -0.5 Z M 74.5506003478934 0.5 L 102.10120069578679 0.5 L 102.10120069578679 3.5 L 109.10120069578679 0 L 102.10120069578679 -3.5 L 102.10120069578679 -0.5 L 74.5506003478934 -0.5 Z"/><text text-anchor="middle" pointer-events="none" font-size="8px" fill="#000000" x="63.55060034789339" y="3" font-family="sans-serif">收录</text></g><g class="relationship" transform="translate(100.22710839443602 96.54374962543862) rotate(415.03992099989784)"><path class="outline" fill="#A5ABB6" stroke="none" d="M 25 0.5 L 55.071864717538844 0.5 L 55.071864717538844 -0.5 L 25 -0.5 Z M 77.07186471753884 0.5 L 107.14372943507769 0.5 L 107.14372943507769 3.5 L 114.14372943507769 0 L 107.14372943507769 -3.5 L 107.14372943507769 -0.5 L 77.07186471753884 -0.5 Z"/><text text-anchor="middle" pointer-events="none" font-size="8px" fill="#000000" x="66.07186471753884" y="3" font-family="sans-serif">收录</text></g><g class="relationship" transform="translate(100.22710839443602 96.54374962543862) rotate(389.8003458462375)"><path class="outline" fill="#A5ABB6" stroke="none" d="M 25 0.5 L 52.75277808409706 0.5 L 52.75277808409706 -0.5 L 25 -0.5 Z M 74.75277808409706 0.5 L 102.50555616819412 0.5 L 102.50555616819412 3.5 L 109.50555616819412 0 L 102.50555616819412 -3.5 L 102.50555616819412 -0.5 L 74.75277808409706 -0.5 Z"/><text text-anchor="middle" pointer-events="none" font-size="8px" fill="#000000" x="63.75277808409706" y="3" font-family="sans-serif">收录</text></g><g class="relationship" transform="translate(100.22710839443602 96.54374962543862) rotate(364.3512413593377)"><path class="outline" fill="#A5ABB6" stroke="none" d="M 25 0.5 L 54.27015722145531 0.5 L 54.27015722145531 -0.5 L 25 -0.5 Z M 76.2701572214553 0.5 L 105.54031444291061 0.5 L 105.54031444291061 3.5 L 112.54031444291061 0 L 105.54031444291061 -3.5 L 105.54031444291061 -0.5 L 76.2701572214553 -0.5 Z"/><text text-anchor="middle" pointer-events="none" font-size="8px" fill="#000000" x="65.2701572214553" y="3" font-family="sans-serif">收录</text></g><g class="relationship" transform="translate(100.22710839443602 96.54374962543862) rotate(339.0096036400805)"><path class="outline" fill="#A5ABB6" stroke="none" d="M 25 0.5 L 53.357723462615496 0.5 L 53.357723462615496 -0.5 L 25 -0.5 Z M 75.3577234626155 0.5 L 103.71544692523099 0.5 L 103.71544692523099 3.5 L 110.71544692523099 0 L 103.71544692523099 -3.5 L 103.71544692523099 -0.5 L 75.3577234626155 -0.5 Z"/><text text-anchor="middle" pointer-events="none" font-size="8px" fill="#000000" x="64.3577234626155" y="3" font-family="sans-serif">收录</text></g><g class="relationship" transform="translate(100.22710839443602 96.54374962543862) rotate(313.9218833269455)"><path class="outline" fill="#A5ABB6" stroke="none" d="M 25 0.5 L 55.47181899426829 0.5 L 55.47181899426829 -0.5 L 25 -0.5 Z M 77.47181899426829 0.5 L 107.94363798853658 0.5 L 107.94363798853658 3.5 L 114.94363798853658 0 L 107.94363798853658 -3.5 L 107.94363798853658 -0.5 L 77.47181899426829 -0.5 Z"/><text text-anchor="middle" pointer-events="none" font-size="8px" fill="#000000" x="66.47181899426829" y="3" font-family="sans-serif">收录</text></g><g class="relationship" transform="translate(100.22710839443602 96.54374962543862) rotate(287.3870935409425)"><path class="outline" fill="#A5ABB6" stroke="none" d="M 25 0.5 L 52.66848764847731 0.5 L 52.66848764847731 -0.5 L 25 -0.5 Z M 74.66848764847731 0.5 L 102.33697529695462 0.5 L 102.33697529695462 3.5 L 109.33697529695462 0 L 102.33697529695462 -3.5 L 102.33697529695462 -0.5 L 74.66848764847731 -0.5 Z"/><text text-anchor="middle" pointer-events="none" font-size="8px" fill="#000000" x="63.66848764847731" y="3" font-family="sans-serif">收录</text></g><g class="relationship" transform="translate(100.22710839443602 96.54374962543862) rotate(260.60329487003094)"><path class="outline" fill="#A5ABB6" stroke="none" d="M 25 0.5 L 53.165458270800215 0.5 L 53.165458270800215 -0.5 L 25 -0.5 Z M 75.16545827080022 0.5 L 103.33091654160043 0.5 L 103.33091654160043 3.5 L 110.33091654160043 0 L 103.33091654160043 -3.5 L 103.33091654160043 -0.5 L 75.16545827080022 -0.5 Z"/><text text-anchor="middle" pointer-events="none" font-size="8px" fill="#000000" x="64.16545827080022" y="3" transform="rotate(180 64.16545827080022 0)" font-family="sans-serif">收录</text></g><g class="relationship" transform="translate(100.22710839443602 96.54374962543862) rotate(233.97418240176125)"><path class="outline" fill="#A5ABB6" stroke="none" d="M 25 0.5 L 54.044466069209506 0.5 L 54.044466069209506 -0.5 L 25 -0.5 Z M 76.0444660692095 0.5 L 105.08893213841901 0.5 L 105.08893213841901 3.5 L 112.08893213841901 0 L 105.08893213841901 -3.5 L 105.08893213841901 -0.5 L 76.0444660692095 -0.5 Z"/><text text-anchor="middle" pointer-events="none" font-size="8px" fill="#000000" x="65.0444660692095" y="3" transform="rotate(180 65.0444660692095 0)" font-family="sans-serif">收录</text></g><g class="relationship selected" transform="translate(100.22710839443602 96.54374962543862) rotate(208.57238144801403)"><path class="outline" fill="#A5ABB6" stroke="none" d="M 25 0.5 L 53.33341485236396 0.5 L 53.33341485236396 -0.5 L 25 -0.5 Z M 75.33341485236396 0.5 L 103.66682970472792 0.5 L 103.66682970472792 3.5 L 110.66682970472792 0 L 103.66682970472792 -3.5 L 103.66682970472792 -0.5 L 75.33341485236396 -0.5 Z"/><text text-anchor="middle" pointer-events="none" font-size="8px" fill="#000000" x="64.33341485236396" y="3" transform="rotate(180 64.33341485236396 0)" font-family="sans-serif">收录</text></g><g class="relationship" transform="translate(100.22710839443602 96.54374962543862) rotate(183.01120784067803)"><path class="outline" fill="#A5ABB6" stroke="none" d="M 25 0.5 L 53.2737726188016 0.5 L 53.2737726188016 -0.5 L 25 -0.5 Z M 75.2737726188016 0.5 L 103.5475452376032 0.5 L 103.5475452376032 3.5 L 110.5475452376032 0 L 103.5475452376032 -3.5 L 103.5475452376032 -0.5 L 75.2737726188016 -0.5 Z"/><text text-anchor="middle" pointer-events="none" font-size="8px" fill="#000000" x="64.2737726188016" y="3" transform="rotate(180 64.2737726188016 0)" font-family="sans-serif">收录</text></g><g class="relationship" transform="translate(100.22710839443602 96.54374962543862) rotate(517.5949138011296)"><path class="outline" fill="#A5ABB6" stroke="none" d="M 25 0.5 L 54.04175019447855 0.5 L 54.04175019447855 -0.5 L 25 -0.5 Z M 76.04175019447855 0.5 L 105.0835003889571 0.5 L 105.0835003889571 3.5 L 112.0835003889571 0 L 105.0835003889571 -3.5 L 105.0835003889571 -0.5 L 76.04175019447855 -0.5 Z"/><text text-anchor="middle" pointer-events="none" font-size="8px" fill="#000000" x="65.04175019447855" y="3" transform="rotate(180 65.04175019447855 0)" font-family="sans-serif">收录</text></g><g class="relationship" transform="translate(100.22710839443602 96.54374962543862) rotate(491.2361859918687)"><path class="outline" fill="#A5ABB6" stroke="none" d="M 25 0.5 L 53.974437180228236 0.5 L 53.974437180228236 -0.5 L 25 -0.5 Z M 75.97443718022824 0.5 L 104.94887436045647 0.5 L 104.94887436045647 3.5 L 111.94887436045647 0 L 104.94887436045647 -3.5 L 104.94887436045647 -0.5 L 75.97443718022824 -0.5 Z"/><text text-anchor="middle" pointer-events="none" font-size="8px" fill="#000000" x="64.97443718022824" y="3" transform="rotate(180 64.97443718022824 0)" font-family="sans-serif">收录</text></g><g class="relationship" transform="translate(100.22710839443602 96.54374962543862) rotate(465.8970869133757)"><path class="outline" fill="#A5ABB6" stroke="none" d="M 25 0.5 L 53.80518540069288 0.5 L 53.80518540069288 -0.5 L 25 -0.5 Z M 75.80518540069288 0.5 L 104.61037080138576 0.5 L 104.61037080138576 3.5 L 111.61037080138576 0 L 104.61037080138576 -3.5 L 104.61037080138576 -0.5 L 75.80518540069288 -0.5 Z"/><text text-anchor="middle" pointer-events="none" font-size="8px" fill="#000000" x="64.80518540069288" y="3" transform="rotate(180 64.80518540069288 0)" font-family="sans-serif">收录</text></g></g><g class="layer nodes"><g class="node" transform="translate(100.22710839443602,96.54374962543862)"><circle class="outline" cx="0" cy="0" r="25" fill="#ECB5C9" stroke="#da7298" stroke-width="2px"/><text text-anchor="middle" pointer-events="none" font-family="sans-serif" dy="1.5625" font-size="25" fill="#604A0E"/><text text-anchor="middle" pointer-events="none" y="5" font-size="10px" fill="#604A0E" font-family="sans-serif"> 我曾</text></g><g class="node" transform="translate(122.786900792456,228.73371821235494)"><circle class="outline" cx="0" cy="0" r="25" fill="#F16667" stroke="#eb2728" stroke-width="2px"/><text text-anchor="middle" pointer-events="none" font-family="sans-serif" dy="1.5625" font-size="25" fill="#FFFFFF"/><text text-anchor="middle" pointer-events="none" y="5" font-size="10px" fill="#FFFFFF" font-family="sans-serif"> 你的姑…</text></g><g class="node" transform="translate(179.9572376944797,210.57919991569014)"><circle class="outline" cx="0" cy="0" r="25" fill="#F16667" stroke="#eb2728" stroke-width="2px"/><text text-anchor="middle" pointer-events="none" font-family="sans-serif" dy="1.5625" font-size="25" fill="#FFFFFF"/><text text-anchor="middle" pointer-events="none" y="5" font-size="10px" fill="#FFFFFF" font-family="sans-serif"> 姬和不…</text></g><g class="node" transform="translate(216.94597982984308,163.3902131890419)"><circle class="outline" cx="0" cy="0" r="25" fill="#F16667" stroke="#eb2728" stroke-width="2px"/><text text-anchor="middle" pointer-events="none" font-family="sans-serif" dy="1.5625" font-size="25" fill="#FFFFFF"/><text text-anchor="middle" pointer-events="none" y="5" font-size="10px" fill="#FFFFFF" font-family="sans-serif"> 四块五…</text></g><g class="node" transform="translate(237.37098749917456,106.97900339137978)"><circle class="outline" cx="0" cy="0" r="25" fill="#F16667" stroke="#eb2728" stroke-width="2px"/><text text-anchor="middle" pointer-events="none" font-family="sans-serif" dy="1.5625" font-size="25" fill="#FFFFFF"/><text text-anchor="middle" pointer-events="none" y="5" font-size="10px" fill="#FFFFFF" font-family="sans-serif"> 世本常态</text></g><g class="node" transform="translate(226.9365435783519,47.92892092587193)"><circle class="outline" cx="0" cy="0" r="25" fill="#F16667" stroke="#eb2728" stroke-width="2px"/><text text-anchor="middle" pointer-events="none" font-family="sans-serif" dy="1.5625" font-size="25" fill="#FFFFFF"/><text text-anchor="middle" pointer-events="none" y="5" font-size="10px" fill="#FFFFFF" font-family="sans-serif"> 关于孤…</text></g><g class="node" transform="translate(197.30278886963998,-4.255724945328281)"><circle class="outline" cx="0" cy="0" r="25" fill="#F16667" stroke="#eb2728" stroke-width="2px"/><text text-anchor="middle" pointer-events="none" font-family="sans-serif" dy="1.5625" font-size="25" fill="#FFFFFF"/><text text-anchor="middle" pointer-events="none" y="5" font-size="10px" fill="#FFFFFF" font-family="sans-serif"> 多想在…</text></g><g class="node" transform="translate(140.37046684602268,-31.655055767443322)"><circle class="outline" cx="0" cy="0" r="25" fill="#F16667" stroke="#eb2728" stroke-width="2px"/><text text-anchor="middle" pointer-events="none" font-family="sans-serif" dy="1.5625" font-size="25" fill="#FFFFFF"/><text text-anchor="middle" pointer-events="none" y="5" font-size="10px" fill="#FFFFFF" font-family="sans-serif"> 你的姑娘</text></g><g class="node" transform="translate(78.13173414959002,-36.971236083918456)"><circle class="outline" cx="0" cy="0" r="25" fill="#F16667" stroke="#eb2728" stroke-width="2px"/><text text-anchor="middle" pointer-events="none" font-family="sans-serif" dy="1.5625" font-size="25" fill="#FFFFFF"/><text text-anchor="middle" pointer-events="none" y="5" font-size="10px" fill="#FFFFFF" font-family="sans-serif"> 四块五</text></g><g class="node" transform="translate(19.598288962337946,-14.327205957338688)"><circle class="outline" cx="0" cy="0" r="25" fill="#F16667" stroke="#eb2728" stroke-width="2px"/><text text-anchor="middle" pointer-events="none" font-family="sans-serif" dy="1.5625" font-size="25" fill="#FFFFFF"/><text text-anchor="middle" pointer-events="none" y="5" font-size="10px" fill="#FFFFFF" font-family="sans-serif"> 我曾</text></g><g class="node" transform="translate(-18.91734916479192,31.658567071569028)"><circle class="outline" cx="0" cy="0" r="25" fill="#F16667" stroke="#eb2728" stroke-width="2px"/><text text-anchor="middle" pointer-events="none" font-family="sans-serif" dy="1.5625" font-size="25" fill="#FFFFFF"/><text text-anchor="middle" pointer-events="none" y="5" font-size="10px" fill="#FFFFFF" font-family="sans-serif"> 多想在…</text></g><g class="node" transform="translate(-35.13328336775754,89.42326074295553)"><circle class="outline" cx="0" cy="0" r="25" fill="#F16667" stroke="#eb2728" stroke-width="2px"/><text text-anchor="middle" pointer-events="none" font-family="sans-serif" dy="1.5625" font-size="25" fill="#FFFFFF"/><text text-anchor="middle" pointer-events="none" y="5" font-size="10px" fill="#FFFFFF" font-family="sans-serif"> 我曾（…</text></g><g class="node" transform="translate(-26.508260408421762,148.7934613307947)"><circle class="outline" cx="0" cy="0" r="25" fill="#F16667" stroke="#eb2728" stroke-width="2px"/><text text-anchor="middle" pointer-events="none" font-family="sans-serif" dy="1.5625" font-size="25" fill="#FFFFFF"/><text text-anchor="middle" pointer-events="none" y="5" font-size="10px" fill="#FFFFFF" font-family="sans-serif"> 世本常…</text></g><g class="node" transform="translate(9.955268346311652,199.52913248592975)"><circle class="outline" cx="0" cy="0" r="25" fill="#F16667" stroke="#eb2728" stroke-width="2px"/><text text-anchor="middle" pointer-events="none" font-family="sans-serif" dy="1.5625" font-size="25" fill="#FFFFFF"/><text text-anchor="middle" pointer-events="none" y="5" font-size="10px" fill="#FFFFFF" font-family="sans-serif"> 姬和不如</text></g><g class="node" transform="translate(62.80811793501859,227.92948919975518)"><circle class="outline" cx="0" cy="0" r="25" fill="#F16667" stroke="#eb2728" stroke-width="2px"/><text text-anchor="middle" pointer-events="none" font-family="sans-serif" dy="1.5625" font-size="25" fill="#FFFFFF"/><text text-anchor="middle" pointer-events="none" y="5" font-size="10px" fill="#FFFFFF" font-family="sans-serif"> 关于孤…</text></g></g></svg>