<svg xmlns="http://www.w3.org/2000/svg" width="511.94036865234375" height="527.2258911132812" viewBox="-75.48298645019531 -148.3556671142578 511.94036865234375 527.2258911132812"><title>Neo4j Graph Visualization</title><desc>Created using Neo4j (http://www.neo4j.com/)</desc><g class="layer relationships"><g class="relationship" transform="translate(189.9318321760246 118.07513855333733) rotate(527.4723519286898)"><path class="outline" fill="#A5ABB6" stroke="none" d="M 25 0.5 L 101.2654482369245 0.5 L 101.2654482369245 -0.5 L 25 -0.5 Z M 123.2654482369245 0.5 L 199.530896473849 0.5 L 199.530896473849 3.5 L 206.530896473849 0 L 199.530896473849 -3.5 L 199.530896473849 -0.5 L 123.2654482369245 -0.5 Z"/><text text-anchor="middle" pointer-events="none" font-size="8px" fill="#000000" x="112.2654482369245" y="3" transform="rotate(180 112.2654482369245 0)" font-family="sans-serif">演唱</text></g><g class="relationship" transform="translate(189.9318321760246 118.07513855333733) rotate(509.2597046982684)"><path class="outline" fill="#A5ABB6" stroke="none" d="M 25 0.5 L 76.61717298058291 0.5 L 76.61717298058291 -0.5 L 25 -0.5 Z M 98.61717298058291 0.5 L 150.23434596116581 0.5 L 150.23434596116581 3.5 L 157.23434596116581 0 L 150.23434596116581 -3.5 L 150.23434596116581 -0.5 L 98.61717298058291 -0.5 Z"/><text text-anchor="middle" pointer-events="none" font-size="8px" fill="#000000" x="87.61717298058291" y="3" transform="rotate(180 87.61717298058291 0)" font-family="sans-serif">演唱</text></g><g class="relationship" transform="translate(189.9318321760246 118.07513855333733) rotate(435.0958199385685)"><path class="outline" fill="#A5ABB6" stroke="none" d="M 25 0.5 L 96.53536984480179 0.5 L 96.53536984480179 -0.5 L 25 -0.5 Z M 118.53536984480179 0.5 L 190.07073968960358 0.5 L 190.07073968960358 3.5 L 197.07073968960358 0 L 190.07073968960358 -3.5 L 190.07073968960358 -0.5 L 118.53536984480179 -0.5 Z"/><text text-anchor="middle" pointer-events="none" font-size="8px" fill="#000000" x="107.53536984480179" y="3" font-family="sans-serif">演唱</text></g><g class="relationship" transform="translate(189.9318321760246 118.07513855333733) rotate(442.9073510422005)"><path class="outline" fill="#A5ABB6" stroke="none" d="M 25 0.5 L 44.53747475377145 0.5 L 44.53747475377145 -0.5 L 25 -0.5 Z M 66.53747475377145 0.5 L 86.0749495075429 0.5 L 86.0749495075429 3.5 L 93.0749495075429 0 L 86.0749495075429 -3.5 L 86.0749495075429 -0.5 L 66.53747475377145 -0.5 Z"/><text text-anchor="middle" pointer-events="none" font-size="8px" fill="#000000" x="55.53747475377145" y="3" font-family="sans-serif">演唱</text></g><g class="relationship" transform="translate(189.9318321760246 118.07513855333733) rotate(489.3924385984275)"><path class="outline" fill="#A5ABB6" stroke="none" d="M 25 0.5 L 73.35787720241026 0.5 L 73.35787720241026 -0.5 L 25 -0.5 Z M 95.35787720241026 0.5 L 143.71575440482053 0.5 L 143.71575440482053 3.5 L 150.71575440482053 0 L 143.71575440482053 -3.5 L 143.71575440482053 -0.5 L 95.35787720241026 -0.5 Z"/><text text-anchor="middle" pointer-events="none" font-size="8px" fill="#000000" x="84.35787720241026" y="3" transform="rotate(180 84.35787720241026 0)" font-family="sans-serif">演唱</text></g><g class="relationship" transform="translate(189.9318321760246 118.07513855333733) rotate(466.7641782080759)"><path class="outline" fill="#A5ABB6" stroke="none" d="M 25 0.5 L 69.30828926897834 0.5 L 69.30828926897834 -0.5 L 25 -0.5 Z M 91.30828926897834 0.5 L 135.61657853795668 0.5 L 135.61657853795668 3.5 L 142.61657853795668 0 L 135.61657853795668 -3.5 L 135.61657853795668 -0.5 L 91.30828926897834 -0.5 Z"/><text text-anchor="middle" pointer-events="none" font-size="8px" fill="#000000" x="80.30828926897834" y="3" transform="rotate(180 80.30828926897834 0)" font-family="sans-serif">演唱</text></g><g class="relationship" transform="translate(189.9318321760246 118.07513855333733) rotate(468.7663097502402)"><path class="outline" fill="#A5ABB6" stroke="none" d="M 25 0.5 L 99.10030169754383 0.5 L 99.10030169754383 -0.5 L 25 -0.5 Z M 121.10030169754383 0.5 L 195.20060339508765 0.5 L 195.20060339508765 3.5 L 202.20060339508765 0 L 195.20060339508765 -3.5 L 195.20060339508765 -0.5 L 121.10030169754383 -0.5 Z"/><text text-anchor="middle" pointer-events="none" font-size="8px" fill="#000000" x="110.10030169754383" y="3" transform="rotate(180 110.10030169754383 0)" font-family="sans-serif">演唱</text></g><g class="relationship" transform="translate(189.9318321760246 118.07513855333733) rotate(424.40216674273273)"><path class="outline" fill="#A5ABB6" stroke="none" d="M 25 0.5 L 67.65369095753987 0.5 L 67.65369095753987 -0.5 L 25 -0.5 Z M 89.65369095753987 0.5 L 132.30738191507973 0.5 L 132.30738191507973 3.5 L 139.30738191507973 0 L 132.30738191507973 -3.5 L 132.30738191507973 -0.5 L 89.65369095753987 -0.5 Z"/><text text-anchor="middle" pointer-events="none" font-size="8px" fill="#000000" x="78.65369095753987" y="3" font-family="sans-serif">演唱</text></g><g class="relationship" transform="translate(189.9318321760246 118.07513855333733) rotate(453.46452874036885)"><path class="outline" fill="#A5ABB6" stroke="none" d="M 25 0.5 L 101.60974588025718 0.5 L 101.60974588025718 -0.5 L 25 -0.5 Z M 123.60974588025718 0.5 L 200.21949176051436 0.5 L 200.21949176051436 3.5 L 207.21949176051436 0 L 200.21949176051436 -3.5 L 200.21949176051436 -0.5 L 123.60974588025718 -0.5 Z"/><text text-anchor="middle" pointer-events="none" font-size="8px" fill="#000000" x="112.60974588025718" y="3" transform="rotate(180 112.60974588025718 0)" font-family="sans-serif">演唱</text></g><g class="relationship" transform="translate(189.9318321760246 118.07513855333733) rotate(483.71820657871)"><path class="outline" fill="#A5ABB6" stroke="none" d="M 25 0.5 L 101.63450919178194 0.5 L 101.63450919178194 -0.5 L 25 -0.5 Z M 123.63450919178194 0.5 L 200.2690183835639 0.5 L 200.2690183835639 3.5 L 207.2690183835639 0 L 200.2690183835639 -3.5 L 200.2690183835639 -0.5 L 123.63450919178194 -0.5 Z"/><text text-anchor="middle" pointer-events="none" font-size="8px" fill="#000000" x="112.63450919178194" y="3" transform="rotate(180 112.63450919178194 0)" font-family="sans-serif">演唱</text></g><g class="relationship" transform="translate(189.9318321760246 118.07513855333733) rotate(406.0567296528945)"><path class="outline" fill="#A5ABB6" stroke="none" d="M 25 0.5 L 82.3429021968914 0.5 L 82.3429021968914 -0.5 L 25 -0.5 Z M 104.3429021968914 0.5 L 161.6858043937828 0.5 L 161.6858043937828 3.5 L 168.6858043937828 0 L 161.6858043937828 -3.5 L 161.6858043937828 -0.5 L 104.3429021968914 -0.5 Z"/><text text-anchor="middle" pointer-events="none" font-size="8px" fill="#000000" x="93.3429021968914" y="3" font-family="sans-serif">演唱</text></g><g class="relationship" transform="translate(189.9318321760246 118.07513855333733) rotate(402.4038626074398)"><path class="outline" fill="#A5ABB6" stroke="none" d="M 25 0.5 L 52.778062557968425 0.5 L 52.778062557968425 -0.5 L 25 -0.5 Z M 74.77806255796843 0.5 L 102.55612511593685 0.5 L 102.55612511593685 3.5 L 109.55612511593685 0 L 102.55612511593685 -3.5 L 102.55612511593685 -0.5 L 74.77806255796843 -0.5 Z"/><text text-anchor="middle" pointer-events="none" font-size="8px" fill="#000000" x="63.778062557968425" y="3" font-family="sans-serif">演唱</text></g><g class="relationship" transform="translate(189.9318321760246 118.07513855333733) rotate(364.4282001064759)"><path class="outline" fill="#A5ABB6" stroke="none" d="M 25 0.5 L 45.93917291000334 0.5 L 45.93917291000334 -0.5 L 25 -0.5 Z M 67.93917291000335 0.5 L 88.87834582000669 0.5 L 88.87834582000669 3.5 L 95.87834582000669 0 L 88.87834582000669 -3.5 L 88.87834582000669 -0.5 L 67.93917291000335 -0.5 Z"/><text text-anchor="middle" pointer-events="none" font-size="8px" fill="#000000" x="56.93917291000334" y="3" font-family="sans-serif">演唱</text></g><g class="relationship" transform="translate(189.9318321760246 118.07513855333733) rotate(513.0500354443036)"><path class="outline" fill="#A5ABB6" stroke="none" d="M 25 0.5 L 105.8034442125067 0.5 L 105.8034442125067 -0.5 L 25 -0.5 Z M 127.8034442125067 0.5 L 208.6068884250134 0.5 L 208.6068884250134 3.5 L 215.6068884250134 0 L 208.6068884250134 -3.5 L 208.6068884250134 -0.5 L 127.8034442125067 -0.5 Z"/><text text-anchor="middle" pointer-events="none" font-size="8px" fill="#000000" x="116.8034442125067" y="3" transform="rotate(180 116.8034442125067 0)" font-family="sans-serif">演唱</text></g><g class="relationship" transform="translate(189.9318321760246 118.07513855333733) rotate(330.5047034039817)"><path class="outline" fill="#A5ABB6" stroke="none" d="M 25 0.5 L 75.58513133504151 0.5 L 75.58513133504151 -0.5 L 25 -0.5 Z M 97.58513133504151 0.5 L 148.17026267008302 0.5 L 148.17026267008302 3.5 L 155.17026267008302 0 L 148.17026267008302 -3.5 L 148.17026267008302 -0.5 L 97.58513133504151 -0.5 Z"/><text text-anchor="middle" pointer-events="none" font-size="8px" fill="#000000" x="86.58513133504151" y="3" font-family="sans-serif">演唱</text></g><g class="relationship" transform="translate(189.9318321760246 118.07513855333733) rotate(342.4445105225715)"><path class="outline" fill="#A5ABB6" stroke="none" d="M 25 0.5 L 97.0994683083179 0.5 L 97.0994683083179 -0.5 L 25 -0.5 Z M 119.0994683083179 0.5 L 191.1989366166358 0.5 L 191.1989366166358 3.5 L 198.1989366166358 0 L 191.1989366166358 -3.5 L 191.1989366166358 -0.5 L 119.0994683083179 -0.5 Z"/><text text-anchor="middle" pointer-events="none" font-size="8px" fill="#000000" x="108.0994683083179" y="3" font-family="sans-serif">演唱</text></g><g class="relationship" transform="translate(189.9318321760246 118.07513855333733) rotate(381.8858207515947)"><path class="outline" fill="#A5ABB6" stroke="none" d="M 25 0.5 L 67.0420938750515 0.5 L 67.0420938750515 -0.5 L 25 -0.5 Z M 89.0420938750515 0.5 L 131.084187750103 0.5 L 131.084187750103 3.5 L 138.084187750103 0 L 131.084187750103 -3.5 L 131.084187750103 -0.5 L 89.0420938750515 -0.5 Z"/><text text-anchor="middle" pointer-events="none" font-size="8px" fill="#000000" x="78.0420938750515" y="3" font-family="sans-serif">演唱</text></g><g class="relationship" transform="translate(189.9318321760246 118.07513855333733) rotate(391.71055144991027)"><path class="outline" fill="#A5ABB6" stroke="none" d="M 25 0.5 L 97.2637173055214 0.5 L 97.2637173055214 -0.5 L 25 -0.5 Z M 119.2637173055214 0.5 L 191.5274346110428 0.5 L 191.5274346110428 3.5 L 198.5274346110428 0 L 191.5274346110428 -3.5 L 191.5274346110428 -0.5 L 119.2637173055214 -0.5 Z"/><text text-anchor="middle" pointer-events="none" font-size="8px" fill="#000000" x="108.2637173055214" y="3" font-family="sans-serif">演唱</text></g><g class="relationship" transform="translate(189.9318321760246 118.07513855333733) rotate(376.1836060470275)"><path class="outline" fill="#A5ABB6" stroke="none" d="M 25 0.5 L 95.4982751565744 0.5 L 95.4982751565744 -0.5 L 25 -0.5 Z M 117.4982751565744 0.5 L 187.9965503131488 0.5 L 187.9965503131488 3.5 L 194.9965503131488 0 L 187.9965503131488 -3.5 L 187.9965503131488 -0.5 L 117.4982751565744 -0.5 Z"/><text text-anchor="middle" pointer-events="none" font-size="8px" fill="#000000" x="106.4982751565744" y="3" font-family="sans-serif">演唱</text></g><g class="relationship" transform="translate(189.9318321760246 118.07513855333733) rotate(349.9497935613084)"><path class="outline" fill="#A5ABB6" stroke="none" d="M 25 0.5 L 69.92498173111161 0.5 L 69.92498173111161 -0.5 L 25 -0.5 Z M 91.92498173111161 0.5 L 136.84996346222323 0.5 L 136.84996346222323 3.5 L 143.84996346222323 0 L 136.84996346222323 -3.5 L 136.84996346222323 -0.5 L 91.92498173111161 -0.5 Z"/><text text-anchor="middle" pointer-events="none" font-size="8px" fill="#000000" x="80.92498173111161" y="3" font-family="sans-serif">演唱</text></g><g class="relationship" transform="translate(189.9318321760246 118.07513855333733) rotate(323.8512943106388)"><path class="outline" fill="#A5ABB6" stroke="none" d="M 25 0.5 L 46.84867147689378 0.5 L 46.84867147689378 -0.5 L 25 -0.5 Z M 68.84867147689377 0.5 L 90.69734295378755 0.5 L 90.69734295378755 3.5 L 97.69734295378755 0 L 90.69734295378755 -3.5 L 90.69734295378755 -0.5 L 68.84867147689377 -0.5 Z"/><text text-anchor="middle" pointer-events="none" font-size="8px" fill="#000000" x="57.84867147689378" y="3" font-family="sans-serif">演唱</text></g><g class="relationship" transform="translate(189.9318321760246 118.07513855333733) rotate(272.1143009694709)"><path class="outline" fill="#A5ABB6" stroke="none" d="M 25 0.5 L 77.20460787179267 0.5 L 77.20460787179267 -0.5 L 25 -0.5 Z M 99.20460787179267 0.5 L 151.40921574358535 0.5 L 151.40921574358535 3.5 L 158.40921574358535 0 L 151.40921574358535 -3.5 L 151.40921574358535 -0.5 L 99.20460787179267 -0.5 Z"/><text text-anchor="middle" pointer-events="none" font-size="8px" fill="#000000" x="88.20460787179267" y="3" font-family="sans-serif">演唱</text></g><g class="relationship" transform="translate(189.9318321760246 118.07513855333733) rotate(311.11865806447577)"><path class="outline" fill="#A5ABB6" stroke="none" d="M 25 0.5 L 72.8238240934002 0.5 L 72.8238240934002 -0.5 L 25 -0.5 Z M 94.8238240934002 0.5 L 142.6476481868004 0.5 L 142.6476481868004 3.5 L 149.6476481868004 0 L 142.6476481868004 -3.5 L 142.6476481868004 -0.5 L 94.8238240934002 -0.5 Z"/><text text-anchor="middle" pointer-events="none" font-size="8px" fill="#000000" x="83.8238240934002" y="3" font-family="sans-serif">演唱</text></g><g class="relationship" transform="translate(189.9318321760246 118.07513855333733) rotate(291.20077476214465)"><path class="outline" fill="#A5ABB6" stroke="none" d="M 25 0.5 L 71.39453133672764 0.5 L 71.39453133672764 -0.5 L 25 -0.5 Z M 93.39453133672764 0.5 L 139.78906267345528 0.5 L 139.78906267345528 3.5 L 146.78906267345528 0 L 139.78906267345528 -3.5 L 139.78906267345528 -0.5 L 93.39453133672764 -0.5 Z"/><text text-anchor="middle" pointer-events="none" font-size="8px" fill="#000000" x="82.39453133672764" y="3" font-family="sans-serif">演唱</text></g><g class="relationship" transform="translate(189.9318321760246 118.07513855333733) rotate(301.7317744316791)"><path class="outline" fill="#A5ABB6" stroke="none" d="M 25 0.5 L 98.41140033205956 0.5 L 98.41140033205956 -0.5 L 25 -0.5 Z M 120.41140033205956 0.5 L 193.82280066411911 0.5 L 193.82280066411911 3.5 L 200.82280066411911 0 L 193.82280066411911 -3.5 L 193.82280066411911 -0.5 L 120.41140033205956 -0.5 Z"/><text text-anchor="middle" pointer-events="none" font-size="8px" fill="#000000" x="109.41140033205956" y="3" font-family="sans-serif">演唱</text></g><g class="relationship" transform="translate(189.9318321760246 118.07513855333733) rotate(419.7727255743695)"><path class="outline" fill="#A5ABB6" stroke="none" d="M 25 0.5 L 98.85806951127263 0.5 L 98.85806951127263 -0.5 L 25 -0.5 Z M 120.85806951127263 0.5 L 194.71613902254526 0.5 L 194.71613902254526 3.5 L 201.71613902254526 0 L 194.71613902254526 -3.5 L 194.71613902254526 -0.5 L 120.85806951127263 -0.5 Z"/><text text-anchor="middle" pointer-events="none" font-size="8px" fill="#000000" x="109.85806951127263" y="3" font-family="sans-serif">演唱</text></g><g class="relationship" transform="translate(189.9318321760246 118.07513855333733) rotate(283.9853154575411)"><path class="outline" fill="#A5ABB6" stroke="none" d="M 25 0.5 L 99.45152228627863 0.5 L 99.45152228627863 -0.5 L 25 -0.5 Z M 121.45152228627863 0.5 L 195.90304457255726 0.5 L 195.90304457255726 3.5 L 202.90304457255726 0 L 195.90304457255726 -3.5 L 195.90304457255726 -0.5 L 121.45152228627863 -0.5 Z"/><text text-anchor="middle" pointer-events="none" font-size="8px" fill="#000000" x="110.45152228627863" y="3" font-family="sans-serif">演唱</text></g><g class="relationship" transform="translate(189.9318321760246 118.07513855333733) rotate(251.08781479383254)"><path class="outline" fill="#A5ABB6" stroke="none" d="M 25 0.5 L 54.13161539672154 0.5 L 54.13161539672154 -0.5 L 25 -0.5 Z M 76.13161539672154 0.5 L 105.26323079344309 0.5 L 105.26323079344309 3.5 L 112.26323079344309 0 L 105.26323079344309 -3.5 L 105.26323079344309 -0.5 L 76.13161539672154 -0.5 Z"/><text text-anchor="middle" pointer-events="none" font-size="8px" fill="#000000" x="65.13161539672154" y="3" transform="rotate(180 65.13161539672154 0)" font-family="sans-serif">演唱</text></g><g class="relationship" transform="translate(189.9318321760246 118.07513855333733) rotate(265.42154573854737)"><path class="outline" fill="#A5ABB6" stroke="none" d="M 25 0.5 L 104.59543890856926 0.5 L 104.59543890856926 -0.5 L 25 -0.5 Z M 126.59543890856926 0.5 L 206.19087781713853 0.5 L 206.19087781713853 3.5 L 213.19087781713853 0 L 206.19087781713853 -3.5 L 206.19087781713853 -0.5 L 126.59543890856926 -0.5 Z"/><text text-anchor="middle" pointer-events="none" font-size="8px" fill="#000000" x="115.59543890856926" y="3" transform="rotate(180 115.59543890856926 0)" font-family="sans-serif">演唱</text></g><g class="relationship" transform="translate(189.9318321760246 118.07513855333733) rotate(446.6542189448853)"><path class="outline" fill="#A5ABB6" stroke="none" d="M 25 0.5 L 74.17293842895566 0.5 L 74.17293842895566 -0.5 L 25 -0.5 Z M 96.17293842895566 0.5 L 145.34587685791132 0.5 L 145.34587685791132 3.5 L 152.34587685791132 0 L 145.34587685791132 -3.5 L 145.34587685791132 -0.5 L 96.17293842895566 -0.5 Z"/><text text-anchor="middle" pointer-events="none" font-size="8px" fill="#000000" x="85.17293842895566" y="3" font-family="sans-serif">演唱</text></g><g class="relationship" transform="translate(189.9318321760246 118.07513855333733) rotate(221.57287515628298)"><path class="outline" fill="#A5ABB6" stroke="none" d="M 25 0.5 L 47.13547489567343 0.5 L 47.13547489567343 -0.5 L 25 -0.5 Z M 69.13547489567344 0.5 L 91.27094979134687 0.5 L 91.27094979134687 3.5 L 98.27094979134687 0 L 91.27094979134687 -3.5 L 91.27094979134687 -0.5 L 69.13547489567344 -0.5 Z"/><text text-anchor="middle" pointer-events="none" font-size="8px" fill="#000000" x="58.13547489567343" y="3" transform="rotate(180 58.13547489567343 0)" font-family="sans-serif">演唱</text></g><g class="relationship" transform="translate(189.9318321760246 118.07513855333733) rotate(253.6773336971653)"><path class="outline" fill="#A5ABB6" stroke="none" d="M 25 0.5 L 84.46673358088849 0.5 L 84.46673358088849 -0.5 L 25 -0.5 Z M 106.46673358088849 0.5 L 165.93346716177697 0.5 L 165.93346716177697 3.5 L 172.93346716177697 0 L 165.93346716177697 -3.5 L 165.93346716177697 -0.5 L 106.46673358088849 -0.5 Z"/><text text-anchor="middle" pointer-events="none" font-size="8px" fill="#000000" x="95.46673358088849" y="3" transform="rotate(180 95.46673358088849 0)" font-family="sans-serif">演唱</text></g><g class="relationship" transform="translate(189.9318321760246 118.07513855333733) rotate(319.7439838295529)"><path class="outline" fill="#A5ABB6" stroke="none" d="M 25 0.5 L 98.82514851407025 0.5 L 98.82514851407025 -0.5 L 25 -0.5 Z M 120.82514851407025 0.5 L 194.6502970281405 0.5 L 194.6502970281405 3.5 L 201.6502970281405 0 L 194.6502970281405 -3.5 L 194.6502970281405 -0.5 L 120.82514851407025 -0.5 Z"/><text text-anchor="middle" pointer-events="none" font-size="8px" fill="#000000" x="109.82514851407025" y="3" font-family="sans-serif">演唱</text></g><g class="relationship" transform="translate(189.9318321760246 118.07513855333733) rotate(236.1775788072785)"><path class="outline" fill="#A5ABB6" stroke="none" d="M 25 0.5 L 76.06839710544357 0.5 L 76.06839710544357 -0.5 L 25 -0.5 Z M 98.06839710544357 0.5 L 149.13679421088713 0.5 L 149.13679421088713 3.5 L 156.13679421088713 0 L 149.13679421088713 -3.5 L 149.13679421088713 -0.5 L 98.06839710544357 -0.5 Z"/><text text-anchor="middle" pointer-events="none" font-size="8px" fill="#000000" x="87.06839710544357" y="3" transform="rotate(180 87.06839710544357 0)" font-family="sans-serif">演唱</text></g><g class="relationship" transform="translate(189.9318321760246 118.07513855333733) rotate(278.6646898195529)"><path class="outline" fill="#A5ABB6" stroke="none" d="M 25 0.5 L 45.126408062291844 0.5 L 45.126408062291844 -0.5 L 25 -0.5 Z M 67.12640806229184 0.5 L 87.25281612458369 0.5 L 87.25281612458369 3.5 L 94.25281612458369 0 L 87.25281612458369 -3.5 L 87.25281612458369 -0.5 L 67.12640806229184 -0.5 Z"/><text text-anchor="middle" pointer-events="none" font-size="8px" fill="#000000" x="56.126408062291844" y="3" font-family="sans-serif">演唱</text></g><g class="relationship" transform="translate(189.9318321760246 118.07513855333733) rotate(241.7596065711602)"><path class="outline" fill="#A5ABB6" stroke="none" d="M 25 0.5 L 104.29410536429748 0.5 L 104.29410536429748 -0.5 L 25 -0.5 Z M 126.29410536429748 0.5 L 205.58821072859496 0.5 L 205.58821072859496 3.5 L 212.58821072859496 0 L 205.58821072859496 -3.5 L 205.58821072859496 -0.5 L 126.29410536429748 -0.5 Z"/><text text-anchor="middle" pointer-events="none" font-size="8px" fill="#000000" x="115.29410536429748" y="3" transform="rotate(180 115.29410536429748 0)" font-family="sans-serif">演唱</text></g><g class="relationship" transform="translate(189.9318321760246 118.07513855333733) rotate(186.7288653026793)"><path class="outline" fill="#A5ABB6" stroke="none" d="M 25 0.5 L 47.142195601452855 0.5 L 47.142195601452855 -0.5 L 25 -0.5 Z M 69.14219560145285 0.5 L 91.28439120290571 0.5 L 91.28439120290571 3.5 L 98.28439120290571 0 L 91.28439120290571 -3.5 L 91.28439120290571 -0.5 L 69.14219560145285 -0.5 Z"/><text text-anchor="middle" pointer-events="none" font-size="8px" fill="#000000" x="58.142195601452855" y="3" transform="rotate(180 58.142195601452855 0)" font-family="sans-serif">演唱</text></g><g class="relationship" transform="translate(189.9318321760246 118.07513855333733) rotate(225.76147160761508)"><path class="outline" fill="#A5ABB6" stroke="none" d="M 25 0.5 L 102.24855210431596 0.5 L 102.24855210431596 -0.5 L 25 -0.5 Z M 124.24855210431596 0.5 L 201.49710420863192 0.5 L 201.49710420863192 3.5 L 208.49710420863192 0 L 201.49710420863192 -3.5 L 201.49710420863192 -0.5 L 124.24855210431596 -0.5 Z"/><text text-anchor="middle" pointer-events="none" font-size="8px" fill="#000000" x="113.24855210431596" y="3" transform="rotate(180 113.24855210431596 0)" font-family="sans-serif">演唱</text></g><g class="relationship" transform="translate(189.9318321760246 118.07513855333733) rotate(360.43444222818056)"><path class="outline" fill="#A5ABB6" stroke="none" d="M 25 0.5 L 94.26590171624564 0.5 L 94.26590171624564 -0.5 L 25 -0.5 Z M 116.26590171624564 0.5 L 185.53180343249127 0.5 L 185.53180343249127 3.5 L 192.53180343249127 0 L 185.53180343249127 -3.5 L 185.53180343249127 -0.5 L 116.26590171624564 -0.5 Z"/><text text-anchor="middle" pointer-events="none" font-size="8px" fill="#000000" x="105.26590171624564" y="3" font-family="sans-serif">演唱</text></g><g class="relationship" transform="translate(189.9318321760246 118.07513855333733) rotate(216.55718788316688)"><path class="outline" fill="#A5ABB6" stroke="none" d="M 25 0.5 L 76.4185098977137 0.5 L 76.4185098977137 -0.5 L 25 -0.5 Z M 98.4185098977137 0.5 L 149.8370197954274 0.5 L 149.8370197954274 3.5 L 156.8370197954274 0 L 149.8370197954274 -3.5 L 149.8370197954274 -0.5 L 98.4185098977137 -0.5 Z"/><text text-anchor="middle" pointer-events="none" font-size="8px" fill="#000000" x="87.4185098977137" y="3" transform="rotate(180 87.4185098977137 0)" font-family="sans-serif">演唱</text></g><g class="relationship" transform="translate(189.9318321760246 118.07513855333733) rotate(519.2594181492032)"><path class="outline" fill="#A5ABB6" stroke="none" d="M 25 0.5 L 49.757211660050075 0.5 L 49.757211660050075 -0.5 L 25 -0.5 Z M 71.75721166005007 0.5 L 96.51442332010015 0.5 L 96.51442332010015 3.5 L 103.51442332010015 0 L 96.51442332010015 -3.5 L 96.51442332010015 -0.5 L 71.75721166005007 -0.5 Z"/><text text-anchor="middle" pointer-events="none" font-size="8px" fill="#000000" x="60.757211660050075" y="3" transform="rotate(180 60.757211660050075 0)" font-family="sans-serif">演唱</text></g><g class="relationship" transform="translate(189.9318321760246 118.07513855333733) rotate(197.35723200784184)"><path class="outline" fill="#A5ABB6" stroke="none" d="M 25 0.5 L 73.83374919612321 0.5 L 73.83374919612321 -0.5 L 25 -0.5 Z M 95.83374919612321 0.5 L 144.66749839224642 0.5 L 144.66749839224642 3.5 L 151.66749839224642 0 L 144.66749839224642 -3.5 L 144.66749839224642 -0.5 L 95.83374919612321 -0.5 Z"/><text text-anchor="middle" pointer-events="none" font-size="8px" fill="#000000" x="84.83374919612321" y="3" transform="rotate(180 84.83374919612321 0)" font-family="sans-serif">演唱</text></g><g class="relationship" transform="translate(189.9318321760246 118.07513855333733) rotate(196.71393582023813)"><path class="outline" fill="#A5ABB6" stroke="none" d="M 25 0.5 L 103.789566547839 0.5 L 103.789566547839 -0.5 L 25 -0.5 Z M 125.789566547839 0.5 L 204.579133095678 0.5 L 204.579133095678 3.5 L 211.579133095678 0 L 204.579133095678 -3.5 L 204.579133095678 -0.5 L 125.789566547839 -0.5 Z"/><text text-anchor="middle" pointer-events="none" font-size="8px" fill="#000000" x="114.789566547839" y="3" transform="rotate(180 114.789566547839 0)" font-family="sans-serif">演唱</text></g><g class="relationship" transform="translate(189.9318321760246 118.07513855333733) rotate(182.1519653148792)"><path class="outline" fill="#A5ABB6" stroke="none" d="M 25 0.5 L 103.79083574821325 0.5 L 103.79083574821325 -0.5 L 25 -0.5 Z M 125.79083574821325 0.5 L 204.5816714964265 0.5 L 204.5816714964265 3.5 L 211.5816714964265 0 L 204.5816714964265 -3.5 L 204.5816714964265 -0.5 L 125.79083574821325 -0.5 Z"/><text text-anchor="middle" pointer-events="none" font-size="8px" fill="#000000" x="114.79083574821325" y="3" transform="rotate(180 114.79083574821325 0)" font-family="sans-serif">演唱</text></g><g class="relationship" transform="translate(189.9318321760246 118.07513855333733) rotate(211.20954707806163)"><path class="outline" fill="#A5ABB6" stroke="none" d="M 25 0.5 L 104.78102474717082 0.5 L 104.78102474717082 -0.5 L 25 -0.5 Z M 126.78102474717082 0.5 L 206.56204949434164 0.5 L 206.56204949434164 3.5 L 213.56204949434164 0 L 206.56204949434164 -3.5 L 206.56204949434164 -0.5 L 126.78102474717082 -0.5 Z"/><text text-anchor="middle" pointer-events="none" font-size="8px" fill="#000000" x="115.78102474717082" y="3" transform="rotate(180 115.78102474717082 0)" font-family="sans-serif">演唱</text></g><g class="relationship" transform="translate(189.9318321760246 118.07513855333733) rotate(483.7708251547061)"><path class="outline" fill="#A5ABB6" stroke="none" d="M 25 0.5 L 44.20714770926427 0.5 L 44.20714770926427 -0.5 L 25 -0.5 Z M 66.20714770926426 0.5 L 85.41429541852854 0.5 L 85.41429541852854 3.5 L 92.41429541852854 0 L 85.41429541852854 -3.5 L 85.41429541852854 -0.5 L 66.20714770926426 -0.5 Z"/><text text-anchor="middle" pointer-events="none" font-size="8px" fill="#000000" x="55.20714770926427" y="3" transform="rotate(180 55.20714770926427 0)" font-family="sans-serif">演唱</text></g><g class="relationship" transform="translate(189.9318321760246 118.07513855333733) rotate(536.2822778535152)"><path class="outline" fill="#A5ABB6" stroke="none" d="M 25 0.5 L 75.72063099455745 0.5 L 75.72063099455745 -0.5 L 25 -0.5 Z M 97.72063099455745 0.5 L 148.4412619891149 0.5 L 148.4412619891149 3.5 L 155.4412619891149 0 L 148.4412619891149 -3.5 L 148.4412619891149 -0.5 L 97.72063099455745 -0.5 Z"/><text text-anchor="middle" pointer-events="none" font-size="8px" fill="#000000" x="86.72063099455745" y="3" transform="rotate(180 86.72063099455745 0)" font-family="sans-serif">演唱</text></g><g class="relationship" transform="translate(189.9318321760246 118.07513855333733) rotate(498.64073038881713)"><path class="outline" fill="#A5ABB6" stroke="none" d="M 25 0.5 L 100.02813154918074 0.5 L 100.02813154918074 -0.5 L 25 -0.5 Z M 122.02813154918074 0.5 L 197.05626309836148 0.5 L 197.05626309836148 3.5 L 204.05626309836148 0 L 197.05626309836148 -3.5 L 197.05626309836148 -0.5 L 122.02813154918074 -0.5 Z"/><text text-anchor="middle" pointer-events="none" font-size="8px" fill="#000000" x="111.02813154918074" y="3" transform="rotate(180 111.02813154918074 0)" font-family="sans-serif">演唱</text></g></g><g class="layer nodes"><g class="node" transform="translate(189.9318321760246,118.07513855333733)"><circle class="outline" cx="0" cy="0" r="25" fill="#FFC454" stroke="#d7a013" stroke-width="2px"/><text text-anchor="middle" pointer-events="none" font-family="sans-serif" dy="1.5625" font-size="25" fill="#604A0E"/><text text-anchor="middle" pointer-events="none" y="5" font-size="10px" fill="#604A0E" font-family="sans-serif"> 薛之谦</text></g><g class="node" transform="translate(-36.086649499386404,168.29666743414776)"><circle class="outline" cx="0" cy="0" r="25" fill="#F16667" stroke="#eb2728" stroke-width="2px"/><text text-anchor="middle" pointer-events="none" font-family="sans-serif" dy="1.5625" font-size="25" fill="#FFFFFF"/><text text-anchor="middle" pointer-events="none" y="5" font-size="10px" fill="#FFFFFF" font-family="sans-serif"> 我想起…</text></g><g class="node" transform="translate(33.30268719804541,211.22377134717414)"><circle class="outline" cx="0" cy="0" r="25" fill="#F16667" stroke="#eb2728" stroke-width="2px"/><text text-anchor="middle" pointer-events="none" font-family="sans-serif" dy="1.5625" font-size="25" fill="#FFFFFF"/><text text-anchor="middle" pointer-events="none" y="5" font-size="10px" fill="#FFFFFF" font-family="sans-serif"> 天份</text></g><g class="node" transform="translate(247.04915820147207,332.6748228354686)"><circle class="outline" cx="0" cy="0" r="25" fill="#F16667" stroke="#eb2728" stroke-width="2px"/><text text-anchor="middle" pointer-events="none" font-family="sans-serif" dy="1.5625" font-size="25" fill="#FFFFFF"/><text text-anchor="middle" pointer-events="none" y="5" font-size="10px" fill="#FFFFFF" font-family="sans-serif"> 演员</text></g><g class="node" transform="translate(204.51103734162044,235.24655348867157)"><circle class="outline" cx="0" cy="0" r="25" fill="#F16667" stroke="#eb2728" stroke-width="2px"/><text text-anchor="middle" pointer-events="none" font-family="sans-serif" dy="1.5625" font-size="25" fill="#FFFFFF"/><text text-anchor="middle" pointer-events="none" y="5" font-size="10px" fill="#FFFFFF" font-family="sans-serif"> 木偶人</text></g><g class="node" transform="translate(78.41760143955318,253.87131924082283)"><circle class="outline" cx="0" cy="0" r="25" fill="#F16667" stroke="#eb2728" stroke-width="2px"/><text text-anchor="middle" pointer-events="none" font-family="sans-serif" dy="1.5625" font-size="25" fill="#FFFFFF"/><text text-anchor="middle" pointer-events="none" y="5" font-size="10px" fill="#FFFFFF" font-family="sans-serif"> 哑巴</text></g><g class="node" transform="translate(141.5856432926201,278.5680150968811)"><circle class="outline" cx="0" cy="0" r="25" fill="#F16667" stroke="#eb2728" stroke-width="2px"/><text text-anchor="middle" pointer-events="none" font-family="sans-serif" dy="1.5625" font-size="25" fill="#FFFFFF"/><text text-anchor="middle" pointer-events="none" y="5" font-size="10px" fill="#FFFFFF" font-family="sans-serif"> 刚刚好</text></g><g class="node" transform="translate(116.83935227909383,333.1974376429684)"><circle class="outline" cx="0" cy="0" r="25" fill="#F16667" stroke="#eb2728" stroke-width="2px"/><text text-anchor="middle" pointer-events="none" font-family="sans-serif" dy="1.5625" font-size="25" fill="#FFFFFF"/><text text-anchor="middle" pointer-events="none" y="5" font-size="10px" fill="#FFFFFF" font-family="sans-serif"> 慢半拍</text></g><g class="node" transform="translate(260.9211066665034,266.2555645856015)"><circle class="outline" cx="0" cy="0" r="25" fill="#F16667" stroke="#eb2728" stroke-width="2px"/><text text-anchor="middle" pointer-events="none" font-family="sans-serif" dy="1.5625" font-size="25" fill="#FFFFFF"/><text text-anchor="middle" pointer-events="none" y="5" font-size="10px" fill="#FFFFFF" font-family="sans-serif"> 小孩</text></g><g class="node" transform="translate(175.8986707376766,349.87022636487154)"><circle class="outline" cx="0" cy="0" r="25" fill="#F16667" stroke="#eb2728" stroke-width="2px"/><text text-anchor="middle" pointer-events="none" font-family="sans-serif" dy="1.5625" font-size="25" fill="#FFFFFF"/><text text-anchor="middle" pointer-events="none" y="5" font-size="10px" fill="#FFFFFF" font-family="sans-serif"> 认真的雪</text></g><g class="node" transform="translate(60.997264205571305,311.2713447353866)"><circle class="outline" cx="0" cy="0" r="25" fill="#F16667" stroke="#eb2728" stroke-width="2px"/><text text-anchor="middle" pointer-events="none" font-family="sans-serif" dy="1.5625" font-size="25" fill="#FFFFFF"/><text text-anchor="middle" pointer-events="none" y="5" font-size="10px" fill="#FFFFFF" font-family="sans-serif"> 尘</text></g><g class="node" transform="translate(324.33928224978155,257.5341941515208)"><circle class="outline" cx="0" cy="0" r="25" fill="#F16667" stroke="#eb2728" stroke-width="2px"/><text text-anchor="middle" pointer-events="none" font-family="sans-serif" dy="1.5625" font-size="25" fill="#FFFFFF"/><text text-anchor="middle" pointer-events="none" y="5" font-size="10px" fill="#FFFFFF" font-family="sans-serif"> 别</text></g><g class="node" transform="translate(289.28940447110523,208.81335340156696)"><circle class="outline" cx="0" cy="0" r="25" fill="#F16667" stroke="#eb2728" stroke-width="2px"/><text text-anchor="middle" pointer-events="none" font-family="sans-serif" dy="1.5625" font-size="25" fill="#FFFFFF"/><text text-anchor="middle" pointer-events="none" y="5" font-size="10px" fill="#FFFFFF" font-family="sans-serif"> 潮流季</text></g><g class="node" transform="translate(310.44934060453215,127.40812576889388)"><circle class="outline" cx="0" cy="0" r="25" fill="#F16667" stroke="#eb2728" stroke-width="2px"/><text text-anchor="middle" pointer-events="none" font-family="sans-serif" dy="1.5625" font-size="25" fill="#FFFFFF"/><text text-anchor="middle" pointer-events="none" y="5" font-size="10px" fill="#FFFFFF" font-family="sans-serif"> 为了遇…</text></g><g class="node" transform="translate(-24.54578497639968,227.1211219648549)"><circle class="outline" cx="0" cy="0" r="25" fill="#F16667" stroke="#eb2728" stroke-width="2px"/><text text-anchor="middle" pointer-events="none" font-family="sans-serif" dy="1.5625" font-size="25" fill="#FFFFFF"/><text text-anchor="middle" pointer-events="none" y="5" font-size="10px" fill="#FFFFFF" font-family="sans-serif"> 狐狸</text></g><g class="node" transform="translate(346.75132902294166,29.367929380201407)"><circle class="outline" cx="0" cy="0" r="25" fill="#F16667" stroke="#eb2728" stroke-width="2px"/><text text-anchor="middle" pointer-events="none" font-family="sans-serif" dy="1.5625" font-size="25" fill="#FFFFFF"/><text text-anchor="middle" pointer-events="none" y="5" font-size="10px" fill="#FFFFFF" font-family="sans-serif"> 未完成…</text></g><g class="node" transform="translate(402.7353403144159,50.75179764700208)"><circle class="outline" cx="0" cy="0" r="25" fill="#F16667" stroke="#eb2728" stroke-width="2px"/><text text-anchor="middle" pointer-events="none" font-family="sans-serif" dy="1.5625" font-size="25" fill="#FFFFFF"/><text text-anchor="middle" pointer-events="none" y="5" font-size="10px" fill="#FFFFFF" font-family="sans-serif"> 意外</text></g><g class="node" transform="translate(341.26230285902744,178.86609953415808)"><circle class="outline" cx="0" cy="0" r="25" fill="#F16667" stroke="#eb2728" stroke-width="2px"/><text text-anchor="middle" pointer-events="none" font-family="sans-serif" dy="1.5625" font-size="25" fill="#FFFFFF"/><text text-anchor="middle" pointer-events="none" y="5" font-size="10px" fill="#FFFFFF" font-family="sans-serif"> 你还要…</text></g><g class="node" transform="translate(380.08982292622295,235.56748969859908)"><circle class="outline" cx="0" cy="0" r="25" fill="#F16667" stroke="#eb2728" stroke-width="2px"/><text text-anchor="middle" pointer-events="none" font-family="sans-serif" dy="1.5625" font-size="25" fill="#FFFFFF"/><text text-anchor="middle" pointer-events="none" y="5" font-size="10px" fill="#FFFFFF" font-family="sans-serif"> 最好</text></g><g class="node" transform="translate(401.210683393723,179.39176906917274)"><circle class="outline" cx="0" cy="0" r="25" fill="#F16667" stroke="#eb2728" stroke-width="2px"/><text text-anchor="middle" pointer-events="none" font-family="sans-serif" dy="1.5625" font-size="25" fill="#FFFFFF"/><text text-anchor="middle" pointer-events="none" y="5" font-size="10px" fill="#FFFFFF" font-family="sans-serif"> 丑八怪</text></g><g class="node" transform="translate(356.1908288564495,88.60895142278743)"><circle class="outline" cx="0" cy="0" r="25" fill="#F16667" stroke="#eb2728" stroke-width="2px"/><text text-anchor="middle" pointer-events="none" font-family="sans-serif" dy="1.5625" font-size="25" fill="#FFFFFF"/><text text-anchor="middle" pointer-events="none" y="5" font-size="10px" fill="#FFFFFF" font-family="sans-serif"> 我知道…</text></g><g class="node" transform="translate(289.00855395167815,45.698062278393046)"><circle class="outline" cx="0" cy="0" r="25" fill="#F16667" stroke="#eb2728" stroke-width="2px"/><text text-anchor="middle" pointer-events="none" font-family="sans-serif" dy="1.5625" font-size="25" fill="#FFFFFF"/><text text-anchor="middle" pointer-events="none" y="5" font-size="10px" fill="#FFFFFF" font-family="sans-serif"> 绅士</text></g><g class="node" transform="translate(196.69837385418674,-65.20921520713708)"><circle class="outline" cx="0" cy="0" r="25" fill="#F16667" stroke="#eb2728" stroke-width="2px"/><text text-anchor="middle" pointer-events="none" font-family="sans-serif" dy="1.5625" font-size="25" fill="#FFFFFF"/><text text-anchor="middle" pointer-events="none" y="5" font-size="10px" fill="#FFFFFF" font-family="sans-serif"> 像风一样</text></g><g class="node" transform="translate(304.7837242082049,-13.495541743637713)"><circle class="outline" cx="0" cy="0" r="25" fill="#F16667" stroke="#eb2728" stroke-width="2px"/><text text-anchor="middle" pointer-events="none" font-family="sans-serif" dy="1.5625" font-size="25" fill="#FFFFFF"/><text text-anchor="middle" pointer-events="none" y="5" font-size="10px" fill="#FFFFFF" font-family="sans-serif"> 下雨了</text></g><g class="node" transform="translate(252.057143853036,-42.08705331246646)"><circle class="outline" cx="0" cy="0" r="25" fill="#F16667" stroke="#eb2728" stroke-width="2px"/><text text-anchor="middle" pointer-events="none" font-family="sans-serif" dy="1.5625" font-size="25" fill="#FFFFFF"/><text text-anchor="middle" pointer-events="none" y="5" font-size="10px" fill="#FFFFFF" font-family="sans-serif"> 高尚</text></g><g class="node" transform="translate(308.70184448729526,-73.99157244929086)"><circle class="outline" cx="0" cy="0" r="25" fill="#F16667" stroke="#eb2728" stroke-width="2px"/><text text-anchor="middle" pointer-events="none" font-family="sans-serif" dy="1.5625" font-size="25" fill="#FFFFFF"/><text text-anchor="middle" pointer-events="none" y="5" font-size="10px" fill="#FFFFFF" font-family="sans-serif"> 那是你…</text></g><g class="node" transform="translate(304.0678348346677,313.96587491010405)"><circle class="outline" cx="0" cy="0" r="25" fill="#F16667" stroke="#eb2728" stroke-width="2px"/><text text-anchor="middle" pointer-events="none" font-family="sans-serif" dy="1.5625" font-size="25" fill="#FFFFFF"/><text text-anchor="middle" pointer-events="none" y="5" font-size="10px" fill="#FFFFFF" font-family="sans-serif"> 怪咖</text></g><g class="node" transform="translate(245.0098918560515,-103.07233501876664)"><circle class="outline" cx="0" cy="0" r="25" fill="#F16667" stroke="#eb2728" stroke-width="2px"/><text text-anchor="middle" pointer-events="none" font-family="sans-serif" dy="1.5625" font-size="25" fill="#FFFFFF"/><text text-anchor="middle" pointer-events="none" y="5" font-size="10px" fill="#FFFFFF" font-family="sans-serif"> 几个你</text></g><g class="node" transform="translate(145.44226368663323,-11.778135658296513)"><circle class="outline" cx="0" cy="0" r="25" fill="#F16667" stroke="#eb2728" stroke-width="2px"/><text text-anchor="middle" pointer-events="none" font-family="sans-serif" dy="1.5625" font-size="25" fill="#FFFFFF"/><text text-anchor="middle" pointer-events="none" y="5" font-size="10px" fill="#FFFFFF" font-family="sans-serif"> 这么久…</text></g><g class="node" transform="translate(170.9184630908612,-119.35566414785049)"><circle class="outline" cx="0" cy="0" r="25" fill="#F16667" stroke="#eb2728" stroke-width="2px"/><text text-anchor="middle" pointer-events="none" font-family="sans-serif" dy="1.5625" font-size="25" fill="#FFFFFF"/><text text-anchor="middle" pointer-events="none" y="5" font-size="10px" fill="#FFFFFF" font-family="sans-serif"> 其实</text></g><g class="node" transform="translate(200.28204146834182,295.1187298129666)"><circle class="outline" cx="0" cy="0" r="25" fill="#F16667" stroke="#eb2728" stroke-width="2px"/><text text-anchor="middle" pointer-events="none" font-family="sans-serif" dy="1.5625" font-size="25" fill="#FFFFFF"/><text text-anchor="middle" pointer-events="none" y="5" font-size="10px" fill="#FFFFFF" font-family="sans-serif"> 暧昧</text></g><g class="node" transform="translate(97.71131579170209,36.275973397025)"><circle class="outline" cx="0" cy="0" r="25" fill="#F16667" stroke="#eb2728" stroke-width="2px"/><text text-anchor="middle" pointer-events="none" font-family="sans-serif" dy="1.5625" font-size="25" fill="#FFFFFF"/><text text-anchor="middle" pointer-events="none" y="5" font-size="10px" fill="#FFFFFF" font-family="sans-serif"> 火星人…</text></g><g class="node" transform="translate(134.30334627059995,-71.88045883339989)"><circle class="outline" cx="0" cy="0" r="25" fill="#F16667" stroke="#eb2728" stroke-width="2px"/><text text-anchor="middle" pointer-events="none" font-family="sans-serif" dy="1.5625" font-size="25" fill="#FFFFFF"/><text text-anchor="middle" pointer-events="none" y="5" font-size="10px" fill="#FFFFFF" font-family="sans-serif"> 骆驼</text></g><g class="node" transform="translate(362.9033202696588,-28.387216506309585)"><circle class="outline" cx="0" cy="0" r="25" fill="#F16667" stroke="#eb2728" stroke-width="2px"/><text text-anchor="middle" pointer-events="none" font-family="sans-serif" dy="1.5625" font-size="25" fill="#FFFFFF"/><text text-anchor="middle" pointer-events="none" y="5" font-size="10px" fill="#FFFFFF" font-family="sans-serif"> 肆无忌惮</text></g><g class="node" transform="translate(89.1073327050284,-32.40728076340663)"><circle class="outline" cx="0" cy="0" r="25" fill="#F16667" stroke="#eb2728" stroke-width="2px"/><text text-anchor="middle" pointer-events="none" font-family="sans-serif" dy="1.5625" font-size="25" fill="#FFFFFF"/><text text-anchor="middle" pointer-events="none" y="5" font-size="10px" fill="#FFFFFF" font-family="sans-serif"> 笑场</text></g><g class="node" transform="translate(207.89746016234528,0.1833646049362433)"><circle class="outline" cx="0" cy="0" r="25" fill="#F16667" stroke="#eb2728" stroke-width="2px"/><text text-anchor="middle" pointer-events="none" font-family="sans-serif" dy="1.5625" font-size="25" fill="#FFFFFF"/><text text-anchor="middle" pointer-events="none" y="5" font-size="10px" fill="#FFFFFF" font-family="sans-serif"> 我害怕</text></g><g class="node" transform="translate(77.5117516816156,-91.23296778477335)"><circle class="outline" cx="0" cy="0" r="25" fill="#F16667" stroke="#eb2728" stroke-width="2px"/><text text-anchor="middle" pointer-events="none" font-family="sans-serif" dy="1.5625" font-size="25" fill="#FFFFFF"/><text text-anchor="middle" pointer-events="none" y="5" font-size="10px" fill="#FFFFFF" font-family="sans-serif"> 背过手</text></g><g class="node" transform="translate(67.49665524556586,103.62977375080098)"><circle class="outline" cx="0" cy="0" r="25" fill="#F16667" stroke="#eb2728" stroke-width="2px"/><text text-anchor="middle" pointer-events="none" font-family="sans-serif" dy="1.5625" font-size="25" fill="#FFFFFF"/><text text-anchor="middle" pointer-events="none" y="5" font-size="10px" fill="#FFFFFF" font-family="sans-serif"> 有没有</text></g><g class="node" transform="translate(27.03327095828924,-49.21190944204227)"><circle class="outline" cx="0" cy="0" r="25" fill="#F16667" stroke="#eb2728" stroke-width="2px"/><text text-anchor="middle" pointer-events="none" font-family="sans-serif" dy="1.5625" font-size="25" fill="#FFFFFF"/><text text-anchor="middle" pointer-events="none" y="5" font-size="10px" fill="#FFFFFF" font-family="sans-serif"> 陪你去…</text></g><g class="node" transform="translate(407.4573823053525,119.72454618193437)"><circle class="outline" cx="0" cy="0" r="25" fill="#F16667" stroke="#eb2728" stroke-width="2px"/><text text-anchor="middle" pointer-events="none" font-family="sans-serif" dy="1.5625" font-size="25" fill="#FFFFFF"/><text text-anchor="middle" pointer-events="none" y="5" font-size="10px" fill="#FFFFFF" font-family="sans-serif"> 我好像…</text></g><g class="node" transform="translate(43.86892621202896,9.768493930601345)"><circle class="outline" cx="0" cy="0" r="25" fill="#F16667" stroke="#eb2728" stroke-width="2px"/><text text-anchor="middle" pointer-events="none" font-family="sans-serif" dy="1.5625" font-size="25" fill="#FFFFFF"/><text text-anchor="middle" pointer-events="none" y="5" font-size="10px" fill="#FFFFFF" font-family="sans-serif"> 渡</text></g><g class="node" transform="translate(69.74598723532328,163.58689172971583)"><circle class="outline" cx="0" cy="0" r="25" fill="#F16667" stroke="#eb2728" stroke-width="2px"/><text text-anchor="middle" pointer-events="none" font-family="sans-serif" dy="1.5625" font-size="25" fill="#FFFFFF"/><text text-anchor="middle" pointer-events="none" y="5" font-size="10px" fill="#FFFFFF" font-family="sans-serif"> 花儿和…</text></g><g class="node" transform="translate(21.30919230676067,65.37020224093006)"><circle class="outline" cx="0" cy="0" r="25" fill="#F16667" stroke="#eb2728" stroke-width="2px"/><text text-anchor="middle" pointer-events="none" font-family="sans-serif" dy="1.5625" font-size="25" fill="#FFFFFF"/><text text-anchor="middle" pointer-events="none" y="5" font-size="10px" fill="#FFFFFF" font-family="sans-serif"> 等我回家</text></g><g class="node" transform="translate(-36.65244125963346,50.03652269485987)"><circle class="outline" cx="0" cy="0" r="25" fill="#F16667" stroke="#eb2728" stroke-width="2px"/><text text-anchor="middle" pointer-events="none" font-family="sans-serif" dy="1.5625" font-size="25" fill="#FFFFFF"/><text text-anchor="middle" pointer-events="none" y="5" font-size="10px" fill="#FFFFFF" font-family="sans-serif"> 动物世界</text></g><g class="node" transform="translate(-46.4829896645448,109.1914849054913)"><circle class="outline" cx="0" cy="0" r="25" fill="#F16667" stroke="#eb2728" stroke-width="2px"/><text text-anchor="middle" pointer-events="none" font-family="sans-serif" dy="1.5625" font-size="25" fill="#FFFFFF"/><text text-anchor="middle" pointer-events="none" y="5" font-size="10px" fill="#FFFFFF" font-family="sans-serif"> 初学者</text></g><g class="node" transform="translate(-14.105023813662745,-5.540446454315679)"><circle class="outline" cx="0" cy="0" r="25" fill="#F16667" stroke="#eb2728" stroke-width="2px"/><text text-anchor="middle" pointer-events="none" font-family="sans-serif" dy="1.5625" font-size="25" fill="#FFFFFF"/><text text-anchor="middle" pointer-events="none" y="5" font-size="10px" fill="#FFFFFF" font-family="sans-serif"> 一半</text></g><g class="node" transform="translate(124.66446498816818,215.6778411234763)"><circle class="outline" cx="0" cy="0" r="25" fill="#F16667" stroke="#eb2728" stroke-width="2px"/><text text-anchor="middle" pointer-events="none" font-family="sans-serif" dy="1.5625" font-size="25" fill="#FFFFFF"/><text text-anchor="middle" pointer-events="none" y="5" font-size="10px" fill="#FFFFFF" font-family="sans-serif"> 摩天大楼</text></g><g class="node" transform="translate(9.870288963375588,129.77512505348895)"><circle class="outline" cx="0" cy="0" r="25" fill="#F16667" stroke="#eb2728" stroke-width="2px"/><text text-anchor="middle" pointer-events="none" font-family="sans-serif" dy="1.5625" font-size="25" fill="#FFFFFF"/><text text-anchor="middle" pointer-events="none" y="5" font-size="10px" fill="#FFFFFF" font-family="sans-serif"> 方圆几里</text></g><g class="node" transform="translate(18.006554759347832,269.4305832845545)"><circle class="outline" cx="0" cy="0" r="25" fill="#F16667" stroke="#eb2728" stroke-width="2px"/><text text-anchor="middle" pointer-events="none" font-family="sans-serif" dy="1.5625" font-size="25" fill="#FFFFFF"/><text text-anchor="middle" pointer-events="none" y="5" font-size="10px" fill="#FFFFFF" font-family="sans-serif"> 病态</text></g></g></svg>