<svg xmlns="http://www.w3.org/2000/svg" width="1343.359375" height="1839.03466796875" viewBox="-443.384765625 -805.9694213867188 1343.359375 1839.03466796875"><title>Neo4j Graph Visualization</title><desc>Created using Neo4j (http://www.neo4j.com/)</desc><g class="layer relationships"><g class="relationship" transform="translate(110.75723750018189 909.2860228006887) rotate(378.2831000976002)"><path class="outline" fill="#A5ABB6" stroke="none" d="M 25 0.5 L 42.50334727003504 0.5 L 42.50334727003504 -0.5 L 25 -0.5 Z M 64.50334727003505 0.5 L 82.00669454007009 0.5 L 82.00669454007009 3.5 L 89.00669454007009 0 L 82.00669454007009 -3.5 L 82.00669454007009 -0.5 L 64.50334727003505 -0.5 Z"/><text text-anchor="middle" pointer-events="none" font-size="8px" fill="#000000" x="53.50334727003504" y="3" font-family="sans-serif">收藏</text></g><g class="relationship" transform="translate(122.3553485398242 1004.0651285019512) rotate(328.5929334411581)"><path class="outline" fill="#A5ABB6" stroke="none" d="M 25 0.5 L 42.12262949619414 0.5 L 42.12262949619414 -0.5 L 25 -0.5 Z M 64.12262949619415 0.5 L 81.24525899238829 0.5 L 81.24525899238829 3.5 L 88.24525899238829 0 L 81.24525899238829 -3.5 L 81.24525899238829 -0.5 L 64.12262949619415 -0.5 Z"/><text text-anchor="middle" pointer-events="none" font-size="8px" fill="#000000" x="53.12262949619414" y="3" font-family="sans-serif">收藏</text></g><g class="relationship" transform="translate(328.3271127415406 972.7608098094158) rotate(194.22346893983627)"><path class="outline" fill="#A5ABB6" stroke="none" d="M 25 0.5 L 41.88781069040022 0.5 L 41.88781069040022 -0.5 L 25 -0.5 Z M 63.88781069040022 0.5 L 80.77562138080044 0.5 L 80.77562138080044 3.5 L 87.77562138080044 0 L 80.77562138080044 -3.5 L 80.77562138080044 -0.5 L 63.88781069040022 -0.5 Z"/><text text-anchor="middle" pointer-events="none" font-size="8px" fill="#000000" x="52.88781069040022" y="3" transform="rotate(180 52.88781069040022 0)" font-family="sans-serif">收录</text></g><g class="relationship" transform="translate(311.89265413909555 876.962662200299) rotate(503.75669763235675)"><path class="outline" fill="#A5ABB6" stroke="none" d="M 25 0.5 L 43.0836466702801 0.5 L 43.0836466702801 -0.5 L 25 -0.5 Z M 65.0836466702801 0.5 L 83.1672933405602 0.5 L 83.1672933405602 3.5 L 90.1672933405602 0 L 83.1672933405602 -3.5 L 83.1672933405602 -0.5 L 65.0836466702801 -0.5 Z"/><text text-anchor="middle" pointer-events="none" font-size="8px" fill="#000000" x="54.0836466702801" y="3" transform="rotate(180 54.0836466702801 0)" font-family="sans-serif">演唱</text></g><g class="relationship" transform="translate(-51.502149678042166 444.6794090939478) rotate(289.2989138101625)"><path class="outline" fill="#A5ABB6" stroke="none" d="M 25 0.5 L 71.38604323458203 0.5 L 71.38604323458203 -0.5 L 25 -0.5 Z M 93.38604323458203 0.5 L 139.77208646916407 0.5 L 139.77208646916407 3.5 L 146.77208646916407 0 L 139.77208646916407 -3.5 L 139.77208646916407 -0.5 L 93.38604323458203 -0.5 Z"/><text text-anchor="middle" pointer-events="none" font-size="8px" fill="#000000" x="82.38604323458203" y="3" font-family="sans-serif">收藏</text></g><g class="relationship" transform="translate(109.66354070175262 343.9670288900546) rotate(210.46479804232024)"><path class="outline" fill="#A5ABB6" stroke="none" d="M 25 0.5 L 46.058459454495015 0.5 L 46.058459454495015 -0.5 L 25 -0.5 Z M 68.05845945449502 0.5 L 89.11691890899003 0.5 L 89.11691890899003 3.5 L 96.11691890899003 0 L 89.11691890899003 -3.5 L 89.11691890899003 -0.5 L 68.05845945449502 -0.5 Z"/><text text-anchor="middle" pointer-events="none" font-size="8px" fill="#000000" x="57.058459454495015" y="3" transform="rotate(180 57.058459454495015 0)" font-family="sans-serif">收藏</text></g><g class="relationship" transform="translate(-20.546051973874462 496.035619226261) rotate(276.8948544477274)"><path class="outline" fill="#A5ABB6" stroke="none" d="M 25 0.5 L 93.01551104277591 0.5 L 93.01551104277591 -0.5 L 25 -0.5 Z M 115.01551104277591 0.5 L 183.03102208555183 0.5 L 183.03102208555183 3.5 L 190.03102208555183 0 L 183.03102208555183 -3.5 L 183.03102208555183 -0.5 L 115.01551104277591 -0.5 Z"/><text text-anchor="middle" pointer-events="none" font-size="8px" fill="#000000" x="104.01551104277591" y="3" font-family="sans-serif">收藏</text></g><g class="relationship" transform="translate(36.38350578055568 477.14013671054926) rotate(260.91468782126725)"><path class="outline" fill="#A5ABB6" stroke="none" d="M 25 0.5 L 84.02631100819671 0.5 L 84.02631100819671 -0.5 L 25 -0.5 Z M 106.02631100819671 0.5 L 165.05262201639343 0.5 L 165.05262201639343 3.5 L 172.05262201639343 0 L 165.05262201639343 -3.5 L 165.05262201639343 -0.5 L 106.02631100819671 -0.5 Z"/><text text-anchor="middle" pointer-events="none" font-size="8px" fill="#000000" x="95.02631100819671" y="3" transform="rotate(180 95.02631100819671 0)" font-family="sans-serif">收录</text></g><g class="relationship" transform="translate(7.712161136628775 74.62596664561516) rotate(450.6734744293691)"><path class="outline" fill="#A5ABB6" stroke="none" d="M 25 0.5 L 89.47403645096557 0.5 L 89.47403645096557 -0.5 L 25 -0.5 Z M 111.47403645096557 0.5 L 175.94807290193114 0.5 L 175.94807290193114 3.5 L 182.94807290193114 0 L 175.94807290193114 -3.5 L 175.94807290193114 -0.5 L 111.47403645096557 -0.5 Z"/><text text-anchor="middle" pointer-events="none" font-size="8px" fill="#000000" x="100.47403645096557" y="3" transform="rotate(180 100.47403645096557 0)" font-family="sans-serif">演唱</text></g><g class="relationship" transform="translate(109.66354070175262 343.9670288900546) rotate(247.15585845534076)"><path class="outline" fill="#A5ABB6" stroke="none" d="M 25 0.5 L 39.54506876876642 0.5 L 39.54506876876642 -0.5 L 25 -0.5 Z M 61.54506876876642 0.5 L 76.09013753753284 0.5 L 76.09013753753284 3.5 L 83.09013753753284 0 L 76.09013753753284 -3.5 L 76.09013753753284 -0.5 L 61.54506876876642 -0.5 Z"/><text text-anchor="middle" pointer-events="none" font-size="8px" fill="#000000" x="50.54506876876642" y="3" transform="rotate(180 50.54506876876642 0)" font-family="sans-serif">收藏</text></g><g class="relationship" transform="translate(129.188963805614 445.2637683427554) rotate(252.98309593354634)"><path class="outline" fill="#A5ABB6" stroke="none" d="M 25 0.5 L 90.55379471537806 0.5 L 90.55379471537806 -0.5 L 25 -0.5 Z M 112.55379471537806 0.5 L 178.10758943075612 0.5 L 178.10758943075612 3.5 L 185.10758943075612 0 L 178.10758943075612 -3.5 L 178.10758943075612 -0.5 L 112.55379471537806 -0.5 Z"/><text text-anchor="middle" pointer-events="none" font-size="8px" fill="#000000" x="101.55379471537806" y="3" transform="rotate(180 101.55379471537806 0)" font-family="sans-serif">收藏</text></g><g class="relationship" transform="translate(161.10882186805034 394.4717009532167) rotate(238.1084624052433)"><path class="outline" fill="#A5ABB6" stroke="none" d="M 25 0.5 L 73.9027651580663 0.5 L 73.9027651580663 -0.5 L 25 -0.5 Z M 95.9027651580663 0.5 L 144.8055303161326 0.5 L 144.8055303161326 3.5 L 151.8055303161326 0 L 144.8055303161326 -3.5 L 144.8055303161326 -0.5 L 95.9027651580663 -0.5 Z"/><text text-anchor="middle" pointer-events="none" font-size="8px" fill="#000000" x="84.9027651580663" y="3" transform="rotate(180 84.9027651580663 0)" font-family="sans-serif">收藏</text></g><g class="relationship" transform="translate(71.80735753095867 409.35012933307706) rotate(268.5740440059279)"><path class="outline" fill="#A5ABB6" stroke="none" d="M 25 0.5 L 68.02311365764426 0.5 L 68.02311365764426 -0.5 L 25 -0.5 Z M 90.02311365764426 0.5 L 133.04622731528852 0.5 L 133.04622731528852 3.5 L 140.04622731528852 0 L 133.04622731528852 -3.5 L 133.04622731528852 -0.5 L 90.02311365764426 -0.5 Z"/><text text-anchor="middle" pointer-events="none" font-size="8px" fill="#000000" x="79.02311365764426" y="3" transform="rotate(180 79.02311365764426 0)" font-family="sans-serif">收录</text></g><g class="relationship" transform="translate(7.712161136628775 74.62596664561516) rotate(430.53486147334695)"><path class="outline" fill="#A5ABB6" stroke="none" d="M 25 0.5 L 75.5090425082148 0.5 L 75.5090425082148 -0.5 L 25 -0.5 Z M 97.5090425082148 0.5 L 148.0180850164296 0.5 L 148.0180850164296 3.5 L 155.0180850164296 0 L 148.0180850164296 -3.5 L 148.0180850164296 -0.5 L 97.5090425082148 -0.5 Z"/><text text-anchor="middle" pointer-events="none" font-size="8px" fill="#000000" x="86.5090425082148" y="3" font-family="sans-serif">演唱</text></g><g class="relationship" transform="translate(585.5584723393401 137.08909552224102) rotate(406.5948656523784)"><path class="outline" fill="#A5ABB6" stroke="none" d="M 25 0.5 L 78.30693366615645 0.5 L 78.30693366615645 -0.5 L 25 -0.5 Z M 100.30693366615645 0.5 L 153.6138673323129 0.5 L 153.6138673323129 3.5 L 160.6138673323129 0 L 153.6138673323129 -3.5 L 153.6138673323129 -0.5 L 100.30693366615645 -0.5 Z"/><text text-anchor="middle" pointer-events="none" font-size="8px" fill="#000000" x="89.30693366615645" y="3" font-family="sans-serif">收藏</text></g><g class="relationship" transform="translate(703.7839225261197 405.65215265440753) rotate(273.98701120660314)"><path class="outline" fill="#A5ABB6" stroke="none" d="M 25 0.5 L 52.518270797517346 0.5 L 52.518270797517346 -0.5 L 25 -0.5 Z M 74.51827079751735 0.5 L 102.03654159503469 0.5 L 102.03654159503469 3.5 L 109.03654159503469 0 L 102.03654159503469 -3.5 L 102.03654159503469 -0.5 L 74.51827079751735 -0.5 Z"/><text text-anchor="middle" pointer-events="none" font-size="8px" fill="#000000" x="63.518270797517346" y="3" font-family="sans-serif">收藏</text></g><g class="relationship" transform="translate(774.6629915671386 394.55014809020184) rotate(243.33992613609666)"><path class="outline" fill="#A5ABB6" stroke="none" d="M 25 0.5 L 54.09813370954275 0.5 L 54.09813370954275 -0.5 L 25 -0.5 Z M 76.09813370954275 0.5 L 105.1962674190855 0.5 L 105.1962674190855 3.5 L 112.1962674190855 0 L 105.1962674190855 -3.5 L 105.1962674190855 -0.5 L 76.09813370954275 -0.5 Z"/><text text-anchor="middle" pointer-events="none" font-size="8px" fill="#000000" x="65.09813370954275" y="3" transform="rotate(180 65.09813370954275 0)" font-family="sans-serif">收藏</text></g><g class="relationship" transform="translate(825.2051131332867 342.61825032951464) rotate(212.23077267721555)"><path class="outline" fill="#A5ABB6" stroke="none" d="M 25 0.5 L 51.761188673008036 0.5 L 51.761188673008036 -0.5 L 25 -0.5 Z M 73.76118867300804 0.5 L 100.52237734601607 0.5 L 100.52237734601607 3.5 L 107.52237734601607 0 L 100.52237734601607 -3.5 L 100.52237734601607 -0.5 L 73.76118867300804 -0.5 Z"/><text text-anchor="middle" pointer-events="none" font-size="8px" fill="#000000" x="62.761188673008036" y="3" transform="rotate(180 62.761188673008036 0)" font-family="sans-serif">收录</text></g><g class="relationship" transform="translate(838.3644419295582 265.34433946029213) rotate(536.9858522712607)"><path class="outline" fill="#A5ABB6" stroke="none" d="M 25 0.5 L 48.21722159867745 0.5 L 48.21722159867745 -0.5 L 25 -0.5 Z M 70.21722159867744 0.5 L 93.4344431973549 0.5 L 93.4344431973549 3.5 L 100.4344431973549 0 L 93.4344431973549 -3.5 L 93.4344431973549 -0.5 L 70.21722159867744 -0.5 Z"/><text text-anchor="middle" pointer-events="none" font-size="8px" fill="#000000" x="59.21722159867745" y="3" transform="rotate(180 59.21722159867745 0)" font-family="sans-serif">演唱</text></g><g class="relationship" transform="translate(266.3225071923897 -107.76987467003994) rotate(515.7347017957572)"><path class="outline" fill="#A5ABB6" stroke="none" d="M 25 0.5 L 55.76658384813409 0.5 L 55.76658384813409 -0.5 L 25 -0.5 Z M 77.76658384813409 0.5 L 108.53316769626818 0.5 L 108.53316769626818 3.5 L 115.53316769626818 0 L 108.53316769626818 -3.5 L 108.53316769626818 -0.5 L 77.76658384813409 -0.5 Z"/><text text-anchor="middle" pointer-events="none" font-size="8px" fill="#000000" x="66.76658384813409" y="3" transform="rotate(180 66.76658384813409 0)" font-family="sans-serif">收藏</text></g><g class="relationship" transform="translate(261.9377170618193 -199.147125804787) rotate(489.6821626330383)"><path class="outline" fill="#A5ABB6" stroke="none" d="M 25 0.5 L 82.38890103260427 0.5 L 82.38890103260427 -0.5 L 25 -0.5 Z M 104.38890103260427 0.5 L 161.77780206520853 0.5 L 161.77780206520853 3.5 L 168.77780206520853 0 L 161.77780206520853 -3.5 L 161.77780206520853 -0.5 L 104.38890103260427 -0.5 Z"/><text text-anchor="middle" pointer-events="none" font-size="8px" fill="#000000" x="93.38890103260427" y="3" transform="rotate(180 93.38890103260427 0)" font-family="sans-serif">收藏</text></g><g class="relationship" transform="translate(209.6139706152277 -169.81029213944439) rotate(480.798994674805)"><path class="outline" fill="#A5ABB6" stroke="none" d="M 25 0.5 L 55.23142531543172 0.5 L 55.23142531543172 -0.5 L 25 -0.5 Z M 77.23142531543172 0.5 L 107.46285063086344 0.5 L 107.46285063086344 3.5 L 114.46285063086344 0 L 107.46285063086344 -3.5 L 107.46285063086344 -0.5 L 77.23142531543172 -0.5 Z"/><text text-anchor="middle" pointer-events="none" font-size="8px" fill="#000000" x="66.23142531543172" y="3" transform="rotate(180 66.23142531543172 0)" font-family="sans-serif">收藏</text></g><g class="relationship" transform="translate(302.9093434661134 -155.32304482388074) rotate(507.40635722017294)"><path class="outline" fill="#A5ABB6" stroke="none" d="M 25 0.5 L 83.24590457429724 0.5 L 83.24590457429724 -0.5 L 25 -0.5 Z M 105.24590457429724 0.5 L 163.49180914859448 0.5 L 163.49180914859448 3.5 L 170.49180914859448 0 L 163.49180914859448 -3.5 L 163.49180914859448 -0.5 L 105.24590457429724 -0.5 Z"/><text text-anchor="middle" pointer-events="none" font-size="8px" fill="#000000" x="94.24590457429724" y="3" transform="rotate(180 94.24590457429724 0)" font-family="sans-serif">收录</text></g><g class="relationship" transform="translate(7.712161136628775 74.62596664561516) rotate(316.31371895381324)"><path class="outline" fill="#A5ABB6" stroke="none" d="M 25 0.5 L 75.72754797814095 0.5 L 75.72754797814095 -0.5 L 25 -0.5 Z M 97.72754797814095 0.5 L 148.4550959562819 0.5 L 148.4550959562819 3.5 L 155.4550959562819 0 L 148.4550959562819 -3.5 L 148.4550959562819 -0.5 L 97.72754797814095 -0.5 Z"/><text text-anchor="middle" pointer-events="none" font-size="8px" fill="#000000" x="86.72754797814095" y="3" font-family="sans-serif">演唱</text></g><g class="relationship" transform="translate(257.14576530807756 246.67891413648698) rotate(230.15573021734633)"><path class="outline" fill="#A5ABB6" stroke="none" d="M 25 0.5 L 61.66331388857655 0.5 L 61.66331388857655 -0.5 L 25 -0.5 Z M 83.66331388857655 0.5 L 120.3266277771531 0.5 L 120.3266277771531 3.5 L 127.3266277771531 0 L 120.3266277771531 -3.5 L 120.3266277771531 -0.5 L 83.66331388857655 -0.5 Z"/><text text-anchor="middle" pointer-events="none" font-size="8px" fill="#000000" x="72.66331388857655" y="3" transform="rotate(180 72.66331388857655 0)" font-family="sans-serif">收藏</text></g><g class="relationship" transform="translate(281.3604939309053 184.56625800523102) rotate(204.2383507889126)"><path class="outline" fill="#A5ABB6" stroke="none" d="M 25 0.5 L 52.29359111636231 0.5 L 52.29359111636231 -0.5 L 25 -0.5 Z M 74.29359111636231 0.5 L 101.58718223272462 0.5 L 101.58718223272462 3.5 L 108.58718223272462 0 L 101.58718223272462 -3.5 L 101.58718223272462 -0.5 L 74.29359111636231 -0.5 Z"/><text text-anchor="middle" pointer-events="none" font-size="8px" fill="#000000" x="63.29359111636231" y="3" transform="rotate(180 63.29359111636231 0)" font-family="sans-serif">收藏</text></g><g class="relationship" transform="translate(327.2616955494462 227.50337998024267) rotate(210.2429478149469)"><path class="outline" fill="#A5ABB6" stroke="none" d="M 25 0.5 L 82.56711486708426 0.5 L 82.56711486708426 -0.5 L 25 -0.5 Z M 104.56711486708426 0.5 L 162.1342297341685 0.5 L 162.1342297341685 3.5 L 169.1342297341685 0 L 162.1342297341685 -3.5 L 162.1342297341685 -0.5 L 104.56711486708426 -0.5 Z"/><text text-anchor="middle" pointer-events="none" font-size="8px" fill="#000000" x="93.56711486708426" y="3" transform="rotate(180 93.56711486708426 0)" font-family="sans-serif">收藏</text></g><g class="relationship" transform="translate(327.4657066861605 146.17572102199213) rotate(185.5956590325444)"><path class="outline" fill="#A5ABB6" stroke="none" d="M 25 0.5 L 69.86003718730198 0.5 L 69.86003718730198 -0.5 L 25 -0.5 Z M 91.86003718730198 0.5 L 136.72007437460397 0.5 L 136.72007437460397 3.5 L 143.72007437460397 0 L 136.72007437460397 -3.5 L 136.72007437460397 -0.5 L 91.86003718730198 -0.5 Z"/><text text-anchor="middle" pointer-events="none" font-size="8px" fill="#000000" x="80.86003718730198" y="3" transform="rotate(180 80.86003718730198 0)" font-family="sans-serif">收录</text></g><g class="relationship" transform="translate(7.712161136628775 74.62596664561516) rotate(379.94465712077226)"><path class="outline" fill="#A5ABB6" stroke="none" d="M 25 0.5 L 66.26266814667576 0.5 L 66.26266814667576 -0.5 L 25 -0.5 Z M 88.26266814667576 0.5 L 129.52533629335153 0.5 L 129.52533629335153 3.5 L 136.52533629335153 0 L 129.52533629335153 -3.5 L 129.52533629335153 -0.5 L 88.26266814667576 -0.5 Z"/><text text-anchor="middle" pointer-events="none" font-size="8px" fill="#000000" x="77.26266814667576" y="3" font-family="sans-serif">演唱</text></g><g class="relationship" transform="translate(771.8712738907645 -77.1391636446559) rotate(462.1264116761245)"><path class="outline" fill="#A5ABB6" stroke="none" d="M 25 0.5 L 52.059488320031065 0.5 L 52.059488320031065 -0.5 L 25 -0.5 Z M 74.05948832003106 0.5 L 101.11897664006213 0.5 L 101.11897664006213 3.5 L 108.11897664006213 0 L 101.11897664006213 -3.5 L 101.11897664006213 -0.5 L 74.05948832003106 -0.5 Z"/><text text-anchor="middle" pointer-events="none" font-size="8px" fill="#000000" x="63.059488320031065" y="3" transform="rotate(180 63.059488320031065 0)" font-family="sans-serif">收藏</text></g><g class="relationship" transform="translate(585.5584723393401 137.08909552224102) rotate(332.03267788101937)"><path class="outline" fill="#A5ABB6" stroke="none" d="M 25 0.5 L 75.1432682612613 0.5 L 75.1432682612613 -0.5 L 25 -0.5 Z M 97.1432682612613 0.5 L 147.2865365225226 0.5 L 147.2865365225226 3.5 L 154.2865365225226 0 L 147.2865365225226 -3.5 L 147.2865365225226 -0.5 L 97.1432682612613 -0.5 Z"/><text text-anchor="middle" pointer-events="none" font-size="8px" fill="#000000" x="86.1432682612613" y="3" font-family="sans-serif">收藏</text></g><g class="relationship" transform="translate(870.974572303735 23.207320669399856) rotate(526.8005434205721)"><path class="outline" fill="#A5ABB6" stroke="none" d="M 25 0.5 L 50.7577935013303 0.5 L 50.7577935013303 -0.5 L 25 -0.5 Z M 72.7577935013303 0.5 L 98.5155870026606 0.5 L 98.5155870026606 3.5 L 105.5155870026606 0 L 98.5155870026606 -3.5 L 98.5155870026606 -0.5 L 72.7577935013303 -0.5 Z"/><text text-anchor="middle" pointer-events="none" font-size="8px" fill="#000000" x="61.7577935013303" y="3" transform="rotate(180 61.7577935013303 0)" font-family="sans-serif">收藏</text></g><g class="relationship" transform="translate(858.4479079113208 102.2542951100717) rotate(203.26444159115357)"><path class="outline" fill="#A5ABB6" stroke="none" d="M 25 0.5 L 47.839107999802245 0.5 L 47.839107999802245 -0.5 L 25 -0.5 Z M 69.83910799980225 0.5 L 92.67821599960449 0.5 L 92.67821599960449 3.5 L 99.67821599960449 0 L 92.67821599960449 -3.5 L 92.67821599960449 -0.5 L 69.83910799980225 -0.5 Z"/><text text-anchor="middle" pointer-events="none" font-size="8px" fill="#000000" x="58.839107999802245" y="3" transform="rotate(180 58.839107999802245 0)" font-family="sans-serif">收录</text></g><g class="relationship" transform="translate(836.9090265806183 -43.46054954156879) rotate(493.95138754960396)"><path class="outline" fill="#A5ABB6" stroke="none" d="M 25 0.5 L 52.499678647951384 0.5 L 52.499678647951384 -0.5 L 25 -0.5 Z M 74.49967864795138 0.5 L 101.99935729590277 0.5 L 101.99935729590277 3.5 L 108.99935729590277 0 L 101.99935729590277 -3.5 L 101.99935729590277 -0.5 L 74.49967864795138 -0.5 Z"/><text text-anchor="middle" pointer-events="none" font-size="8px" fill="#000000" x="63.499678647951384" y="3" transform="rotate(180 63.499678647951384 0)" font-family="sans-serif">演唱</text></g><g class="relationship" transform="translate(122.71047424732083 -248.44546643514025) rotate(468.31605434720325)"><path class="outline" fill="#A5ABB6" stroke="none" d="M 25 0.5 L 56.2553633665114 0.5 L 56.2553633665114 -0.5 L 25 -0.5 Z M 78.2553633665114 0.5 L 109.5107267330228 0.5 L 109.5107267330228 3.5 L 116.5107267330228 0 L 109.5107267330228 -3.5 L 109.5107267330228 -0.5 L 78.2553633665114 -0.5 Z"/><text text-anchor="middle" pointer-events="none" font-size="8px" fill="#000000" x="67.2553633665114" y="3" transform="rotate(180 67.2553633665114 0)" font-family="sans-serif">收藏</text></g><g class="relationship" transform="translate(192.49544121673964 -261.63072413994064) rotate(487.75692980450384)"><path class="outline" fill="#A5ABB6" stroke="none" d="M 25 0.5 L 78.79863091608331 0.5 L 78.79863091608331 -0.5 L 25 -0.5 Z M 100.79863091608331 0.5 L 154.59726183216662 0.5 L 154.59726183216662 3.5 L 161.59726183216662 0 L 154.59726183216662 -3.5 L 154.59726183216662 -0.5 L 100.79863091608331 -0.5 Z"/><text text-anchor="middle" pointer-events="none" font-size="8px" fill="#000000" x="89.79863091608331" y="3" transform="rotate(180 89.79863091608331 0)" font-family="sans-serif">收藏</text></g><g class="relationship" transform="translate(87.60240468845471 -300.9308593799442) rotate(452.86899277067175)"><path class="outline" fill="#A5ABB6" stroke="none" d="M 25 0.5 L 79.03064554083277 0.5 L 79.03064554083277 -0.5 L 25 -0.5 Z M 101.03064554083277 0.5 L 155.06129108166553 0.5 L 155.06129108166553 3.5 L 162.06129108166553 0 L 155.06129108166553 -3.5 L 155.06129108166553 -0.5 L 101.03064554083277 -0.5 Z"/><text text-anchor="middle" pointer-events="none" font-size="8px" fill="#000000" x="90.03064554083277" y="3" transform="rotate(180 90.03064554083277 0)" font-family="sans-serif">收藏</text></g><g class="relationship" transform="translate(150.61278103274202 -307.7114658809614) rotate(470.4964684369859)"><path class="outline" fill="#A5ABB6" stroke="none" d="M 25 0.5 L 88.84617285641706 0.5 L 88.84617285641706 -0.5 L 25 -0.5 Z M 110.84617285641706 0.5 L 174.6923457128341 0.5 L 174.6923457128341 3.5 L 181.6923457128341 0 L 174.6923457128341 -3.5 L 174.6923457128341 -0.5 L 110.84617285641706 -0.5 Z"/><text text-anchor="middle" pointer-events="none" font-size="8px" fill="#000000" x="99.84617285641706" y="3" transform="rotate(180 99.84617285641706 0)" font-family="sans-serif">收录</text></g><g class="relationship" transform="translate(7.712161136628775 74.62596664561516) rotate(290.4904407552293)"><path class="outline" fill="#A5ABB6" stroke="none" d="M 25 0.5 L 86.23867465718888 0.5 L 86.23867465718888 -0.5 L 25 -0.5 Z M 108.23867465718888 0.5 L 169.47734931437776 0.5 L 169.47734931437776 3.5 L 176.47734931437776 0 L 169.47734931437776 -3.5 L 169.47734931437776 -0.5 L 108.23867465718888 -0.5 Z"/><text text-anchor="middle" pointer-events="none" font-size="8px" fill="#000000" x="97.23867465718888" y="3" font-family="sans-serif">演唱</text></g><g class="relationship" transform="translate(523.3167538722483 -577.6964496561715) rotate(234.07810828826115)"><path class="outline" fill="#A5ABB6" stroke="none" d="M 25 0.5 L 43.20898383847178 0.5 L 43.20898383847178 -0.5 L 25 -0.5 Z M 65.20898383847178 0.5 L 83.41796767694356 0.5 L 83.41796767694356 3.5 L 90.41796767694356 0 L 83.41796767694356 -3.5 L 83.41796767694356 -0.5 L 65.20898383847178 -0.5 Z"/><text text-anchor="middle" pointer-events="none" font-size="8px" fill="#000000" x="54.20898383847178" y="3" transform="rotate(180 54.20898383847178 0)" font-family="sans-serif">收藏</text></g><g class="relationship" transform="translate(570.3916139177271 -655.9076343572183) rotate(187.57069893997397)"><path class="outline" fill="#A5ABB6" stroke="none" d="M 25 0.5 L 43.398943895352566 0.5 L 43.398943895352566 -0.5 L 25 -0.5 Z M 65.39894389535257 0.5 L 83.79788779070513 0.5 L 83.79788779070513 3.5 L 90.79788779070513 0 L 83.79788779070513 -3.5 L 83.79788779070513 -0.5 L 65.39894389535257 -0.5 Z"/><text text-anchor="middle" pointer-events="none" font-size="8px" fill="#000000" x="54.398943895352566" y="3" transform="rotate(180 54.398943895352566 0)" font-family="sans-serif">收藏</text></g><g class="relationship" transform="translate(429.32373243269774 -776.9694219103875) rotate(436.051437714567)"><path class="outline" fill="#A5ABB6" stroke="none" d="M 25 0.5 L 40.01010435172714 0.5 L 40.01010435172714 -0.5 L 25 -0.5 Z M 62.01010435172714 0.5 L 77.02020870345429 0.5 L 77.02020870345429 3.5 L 84.02020870345429 0 L 77.02020870345429 -3.5 L 77.02020870345429 -0.5 L 62.01010435172714 -0.5 Z"/><text text-anchor="middle" pointer-events="none" font-size="8px" fill="#000000" x="51.01010435172714" y="3" font-family="sans-serif">收藏</text></g><g class="relationship" transform="translate(343.94352332686213 -727.6560040626224) rotate(386.8362639501292)"><path class="outline" fill="#A5ABB6" stroke="none" d="M 25 0.5 L 48.06840416748999 0.5 L 48.06840416748999 -0.5 L 25 -0.5 Z M 70.06840416748999 0.5 L 93.13680833497997 0.5 L 93.13680833497997 3.5 L 100.13680833497997 0 L 93.13680833497997 -3.5 L 93.13680833497997 -0.5 L 70.06840416748999 -0.5 Z"/><text text-anchor="middle" pointer-events="none" font-size="8px" fill="#000000" x="59.06840416748999" y="3" font-family="sans-serif">收录</text></g><g class="relationship" transform="translate(348.08607941074536 -639.506105547938) rotate(343.59320818031324)"><path class="outline" fill="#A5ABB6" stroke="none" d="M 25 0.5 L 41.5404655411824 0.5 L 41.5404655411824 -0.5 L 25 -0.5 Z M 63.5404655411824 0.5 L 80.0809310823648 0.5 L 80.0809310823648 3.5 L 87.0809310823648 0 L 80.0809310823648 -3.5 L 80.0809310823648 -0.5 L 63.5404655411824 -0.5 Z"/><text text-anchor="middle" pointer-events="none" font-size="8px" fill="#000000" x="52.5404655411824" y="3" font-family="sans-serif">演唱</text></g><g class="relationship" transform="translate(-265.28756381455867 132.40282091651218) rotate(349.38396585401017)"><path class="outline" fill="#A5ABB6" stroke="none" d="M 25 0.5 L 45.60758637386589 0.5 L 45.60758637386589 -0.5 L 25 -0.5 Z M 67.6075863738659 0.5 L 88.21517274773178 0.5 L 88.21517274773178 3.5 L 95.21517274773178 0 L 88.21517274773178 -3.5 L 88.21517274773178 -0.5 L 67.6075863738659 -0.5 Z"/><text text-anchor="middle" pointer-events="none" font-size="8px" fill="#000000" x="56.60758637386589" y="3" font-family="sans-serif">收藏</text></g><g class="relationship" transform="translate(-330.5710741598315 157.2949504200401) rotate(345.6177933845845)"><path class="outline" fill="#A5ABB6" stroke="none" d="M 25 0.5 L 80.18801980051886 0.5 L 80.18801980051886 -0.5 L 25 -0.5 Z M 102.18801980051886 0.5 L 157.37603960103772 0.5 L 157.37603960103772 3.5 L 164.37603960103772 0 L 157.37603960103772 -3.5 L 157.37603960103772 -0.5 L 102.18801980051886 -0.5 Z"/><text text-anchor="middle" pointer-events="none" font-size="8px" fill="#000000" x="91.18801980051886" y="3" font-family="sans-serif">收藏</text></g><g class="relationship" transform="translate(-237.8421084351481 -1.9785230165483647) rotate(411.05357681165935)"><path class="outline" fill="#A5ABB6" stroke="none" d="M 25 0.5 L 57.654824073507996 0.5 L 57.654824073507996 -0.5 L 25 -0.5 Z M 79.654824073508 0.5 L 112.30964814701599 0.5 L 112.30964814701599 3.5 L 119.30964814701599 0 L 112.30964814701599 -3.5 L 112.30964814701599 -0.5 L 79.654824073508 -0.5 Z"/><text text-anchor="middle" pointer-events="none" font-size="8px" fill="#000000" x="68.654824073508" y="3" font-family="sans-serif">收藏</text></g><g class="relationship" transform="translate(-284.2229458733092 208.7279568203696) rotate(324.3108384000616)"><path class="outline" fill="#A5ABB6" stroke="none" d="M 25 0.5 L 69.89667670598743 0.5 L 69.89667670598743 -0.5 L 25 -0.5 Z M 91.89667670598743 0.5 L 136.79335341197486 0.5 L 136.79335341197486 3.5 L 143.79335341197486 0 L 136.79335341197486 -3.5 L 136.79335341197486 -0.5 L 91.89667670598743 -0.5 Z"/><text text-anchor="middle" pointer-events="none" font-size="8px" fill="#000000" x="80.89667670598743" y="3" font-family="sans-serif">收录</text></g><g class="relationship" transform="translate(7.712161136628775 74.62596664561516) rotate(527.0414919358543)"><path class="outline" fill="#A5ABB6" stroke="none" d="M 25 0.5 L 64.94431896908075 0.5 L 64.94431896908075 -0.5 L 25 -0.5 Z M 86.94431896908075 0.5 L 126.88863793816151 0.5 L 126.88863793816151 3.5 L 133.8886379381615 0 L 126.88863793816151 -3.5 L 126.88863793816151 -0.5 L 86.94431896908075 -0.5 Z"/><text text-anchor="middle" pointer-events="none" font-size="8px" fill="#000000" x="75.94431896908075" y="3" transform="rotate(180 75.94431896908075 0)" font-family="sans-serif">演唱</text></g><g class="relationship" transform="translate(-88.80824837859669 -235.07025031855636) rotate(414.77718078429706)"><path class="outline" fill="#A5ABB6" stroke="none" d="M 25 0.5 L 54.2611680692129 0.5 L 54.2611680692129 -0.5 L 25 -0.5 Z M 76.2611680692129 0.5 L 105.5223361384258 0.5 L 105.5223361384258 3.5 L 112.5223361384258 0 L 105.5223361384258 -3.5 L 105.5223361384258 -0.5 L 76.2611680692129 -0.5 Z"/><text text-anchor="middle" pointer-events="none" font-size="8px" fill="#000000" x="65.2611680692129" y="3" font-family="sans-serif">收藏</text></g><g class="relationship" transform="translate(2.1394406708769687 -273.4249644328621) rotate(454.413220642154)"><path class="outline" fill="#A5ABB6" stroke="none" d="M 25 0.5 L 61.07347798696689 0.5 L 61.07347798696689 -0.5 L 25 -0.5 Z M 83.07347798696689 0.5 L 119.14695597393379 0.5 L 119.14695597393379 3.5 L 126.14695597393379 0 L 119.14695597393379 -3.5 L 119.14695597393379 -0.5 L 83.07347798696689 -0.5 Z"/><text text-anchor="middle" pointer-events="none" font-size="8px" fill="#000000" x="72.07347798696689" y="3" transform="rotate(180 72.07347798696689 0)" font-family="sans-serif">收藏</text></g><g class="relationship" transform="translate(-61.07434177020709 -309.2793658263531) rotate(434.5435361523744)"><path class="outline" fill="#A5ABB6" stroke="none" d="M 25 0.5 L 82.27670535432526 0.5 L 82.27670535432526 -0.5 L 25 -0.5 Z M 104.27670535432526 0.5 L 161.55341070865052 0.5 L 161.55341070865052 3.5 L 168.55341070865052 0 L 161.55341070865052 -3.5 L 161.55341070865052 -0.5 L 104.27670535432526 -0.5 Z"/><text text-anchor="middle" pointer-events="none" font-size="8px" fill="#000000" x="93.27670535432526" y="3" font-family="sans-serif">收藏</text></g><g class="relationship" transform="translate(-5.320867222709282 -332.9542482162436) rotate(451.13643226551085)"><path class="outline" fill="#A5ABB6" stroke="none" d="M 25 0.5 L 90.63472595276833 0.5 L 90.63472595276833 -0.5 L 25 -0.5 Z M 112.63472595276833 0.5 L 178.26945190553667 0.5 L 178.26945190553667 3.5 L 185.26945190553667 0 L 178.26945190553667 -3.5 L 178.26945190553667 -0.5 L 112.63472595276833 -0.5 Z"/><text text-anchor="middle" pointer-events="none" font-size="8px" fill="#000000" x="101.63472595276833" y="3" transform="rotate(180 101.63472595276833 0)" font-family="sans-serif">收录</text></g><g class="relationship" transform="translate(7.712161136628775 74.62596664561516) rotate(265.01807475049964)"><path class="outline" fill="#A5ABB6" stroke="none" d="M 25 0.5 L 84.55025887001418 0.5 L 84.55025887001418 -0.5 L 25 -0.5 Z M 106.55025887001418 0.5 L 166.10051774002835 0.5 L 166.10051774002835 3.5 L 173.10051774002835 0 L 166.10051774002835 -3.5 L 166.10051774002835 -0.5 L 106.55025887001418 -0.5 Z"/><text text-anchor="middle" pointer-events="none" font-size="8px" fill="#000000" x="95.55025887001418" y="3" transform="rotate(180 95.55025887001418 0)" font-family="sans-serif">演唱</text></g><g class="relationship" transform="translate(350.42551242848043 -19.176845118204636) rotate(522.5475347588143)"><path class="outline" fill="#A5ABB6" stroke="none" d="M 25 0.5 L 63.88380644328406 0.5 L 63.88380644328406 -0.5 L 25 -0.5 Z M 85.88380644328406 0.5 L 124.76761288656812 0.5 L 124.76761288656812 3.5 L 131.76761288656812 0 L 124.76761288656812 -3.5 L 124.76761288656812 -0.5 L 85.88380644328406 -0.5 Z"/><text text-anchor="middle" pointer-events="none" font-size="8px" fill="#000000" x="74.88380644328406" y="3" transform="rotate(180 74.88380644328406 0)" font-family="sans-serif">收藏</text></g><g class="relationship" transform="translate(366.4749587308387 -76.9785133899291) rotate(507.6678034473672)"><path class="outline" fill="#A5ABB6" stroke="none" d="M 25 0.5 L 83.49289588595686 0.5 L 83.49289588595686 -0.5 L 25 -0.5 Z M 105.49289588595686 0.5 L 163.9857917719137 0.5 L 163.9857917719137 3.5 L 170.9857917719137 0 L 163.9857917719137 -3.5 L 163.9857917719137 -0.5 L 105.49289588595686 -0.5 Z"/><text text-anchor="middle" pointer-events="none" font-size="8px" fill="#000000" x="94.49289588595686" y="3" transform="rotate(180 94.49289588595686 0)" font-family="sans-serif">收藏</text></g><g class="relationship" transform="translate(402.3607808052267 52.180911804504774) rotate(186.8883316951061)"><path class="outline" fill="#A5ABB6" stroke="none" d="M 25 0.5 L 86.97560075794516 0.5 L 86.97560075794516 -0.5 L 25 -0.5 Z M 108.97560075794516 0.5 L 170.95120151589032 0.5 L 170.95120151589032 3.5 L 177.95120151589032 0 L 170.95120151589032 -3.5 L 170.95120151589032 -0.5 L 108.97560075794516 -0.5 Z"/><text text-anchor="middle" pointer-events="none" font-size="8px" fill="#000000" x="97.97560075794516" y="3" transform="rotate(180 97.97560075794516 0)" font-family="sans-serif">收录</text></g><g class="relationship" transform="translate(7.712161136628775 74.62596664561516) rotate(346.3845764387215)"><path class="outline" fill="#A5ABB6" stroke="none" d="M 25 0.5 L 84.87381766658444 0.5 L 84.87381766658444 -0.5 L 25 -0.5 Z M 106.87381766658444 0.5 L 166.7476353331689 0.5 L 166.7476353331689 3.5 L 173.7476353331689 0 L 166.7476353331689 -3.5 L 166.7476353331689 -0.5 L 106.87381766658444 -0.5 Z"/><text text-anchor="middle" pointer-events="none" font-size="8px" fill="#000000" x="95.87381766658444" y="3" font-family="sans-serif">演唱</text></g><g class="relationship" transform="translate(-88.85004396367938 359.0060061799853) rotate(288.7005702755351)"><path class="outline" fill="#A5ABB6" stroke="none" d="M 25 0.5 L 70.49337276160095 0.5 L 70.49337276160095 -0.5 L 25 -0.5 Z M 92.49337276160095 0.5 L 137.9867455232019 0.5 L 137.9867455232019 3.5 L 144.9867455232019 0 L 137.9867455232019 -3.5 L 137.9867455232019 -0.5 L 92.49337276160095 -0.5 Z"/><text text-anchor="middle" pointer-events="none" font-size="8px" fill="#000000" x="81.49337276160095" y="3" font-family="sans-serif">收录</text></g><g class="relationship" transform="translate(7.712161136628775 74.62596664561516) rotate(468.82619916130955)"><path class="outline" fill="#A5ABB6" stroke="none" d="M 25 0.5 L 50.67018211983749 0.5 L 50.67018211983749 -0.5 L 25 -0.5 Z M 72.67018211983749 0.5 L 98.34036423967498 0.5 L 98.34036423967498 3.5 L 105.34036423967498 0 L 98.34036423967498 -3.5 L 98.34036423967498 -0.5 L 72.67018211983749 -0.5 Z"/><text text-anchor="middle" pointer-events="none" font-size="8px" fill="#000000" x="61.67018211983749" y="3" transform="rotate(180 61.67018211983749 0)" font-family="sans-serif">演唱</text></g><g class="relationship" transform="translate(241.00401166311977 345.5997221690231) rotate(229.11712555247033)"><path class="outline" fill="#A5ABB6" stroke="none" d="M 25 0.5 L 66.13040922039292 0.5 L 66.13040922039292 -0.5 L 25 -0.5 Z M 88.13040922039292 0.5 L 129.26081844078584 0.5 L 129.26081844078584 3.5 L 136.26081844078584 0 L 129.26081844078584 -3.5 L 129.26081844078584 -0.5 L 88.13040922039292 -0.5 Z"/><text text-anchor="middle" pointer-events="none" font-size="8px" fill="#000000" x="77.13040922039292" y="3" transform="rotate(180 77.13040922039292 0)" font-family="sans-serif">收藏</text></g><g class="relationship" transform="translate(109.66354070175262 343.9670288900546) rotate(282.10239905685177)"><path class="outline" fill="#A5ABB6" stroke="none" d="M 25 0.5 L 47.01132708862838 0.5 L 47.01132708862838 -0.5 L 25 -0.5 Z M 69.01132708862838 0.5 L 91.02265417725675 0.5 L 91.02265417725675 3.5 L 98.02265417725675 0 L 91.02265417725675 -3.5 L 91.02265417725675 -0.5 L 69.01132708862838 -0.5 Z"/><text text-anchor="middle" pointer-events="none" font-size="8px" fill="#000000" x="58.01132708862838" y="3" font-family="sans-serif">收藏</text></g><g class="relationship" transform="translate(300.91398193180225 342.5261154111729) rotate(215.6895321523674)"><path class="outline" fill="#A5ABB6" stroke="none" d="M 25 0.5 L 87.3588920335548 0.5 L 87.3588920335548 -0.5 L 25 -0.5 Z M 109.3588920335548 0.5 L 171.7177840671096 0.5 L 171.7177840671096 3.5 L 178.7177840671096 0 L 171.7177840671096 -3.5 L 171.7177840671096 -0.5 L 109.3588920335548 -0.5 Z"/><text text-anchor="middle" pointer-events="none" font-size="8px" fill="#000000" x="98.3588920335548" y="3" transform="rotate(180 98.3588920335548 0)" font-family="sans-serif">收藏</text></g><g class="relationship" transform="translate(247.99894324720097 405.18303251784533) rotate(238.19885308533105)"><path class="outline" fill="#A5ABB6" stroke="none" d="M 25 0.5 L 92.2821073290949 0.5 L 92.2821073290949 -0.5 L 25 -0.5 Z M 114.2821073290949 0.5 L 181.5642146581898 0.5 L 181.5642146581898 3.5 L 188.5642146581898 0 L 181.5642146581898 -3.5 L 181.5642146581898 -0.5 L 114.2821073290949 -0.5 Z"/><text text-anchor="middle" pointer-events="none" font-size="8px" fill="#000000" x="103.2821073290949" y="3" transform="rotate(180 103.2821073290949 0)" font-family="sans-serif">收录</text></g><g class="relationship" transform="translate(7.712161136628775 74.62596664561516) rotate(409.4020668455245)"><path class="outline" fill="#A5ABB6" stroke="none" d="M 25 0.5 L 83.65203303432735 0.5 L 83.65203303432735 -0.5 L 25 -0.5 Z M 105.65203303432735 0.5 L 164.3040660686547 0.5 L 164.3040660686547 3.5 L 171.3040660686547 0 L 164.3040660686547 -3.5 L 164.3040660686547 -0.5 L 105.65203303432735 -0.5 Z"/><text text-anchor="middle" pointer-events="none" font-size="8px" fill="#000000" x="94.65203303432735" y="3" font-family="sans-serif">演唱</text></g><g class="relationship" transform="translate(-199.71915906070186 -184.38446198781875) rotate(421.3930960342448)"><path class="outline" fill="#A5ABB6" stroke="none" d="M 25 0.5 L 64.03656200258368 0.5 L 64.03656200258368 -0.5 L 25 -0.5 Z M 86.03656200258368 0.5 L 125.07312400516736 0.5 L 125.07312400516736 3.5 L 132.07312400516736 0 L 125.07312400516736 -3.5 L 125.07312400516736 -0.5 L 86.03656200258368 -0.5 Z"/><text text-anchor="middle" pointer-events="none" font-size="8px" fill="#000000" x="75.03656200258368" y="3" font-family="sans-serif">收藏</text></g><g class="relationship" transform="translate(-251.84323152285316 -154.67115302268323) rotate(400.35261979670656)"><path class="outline" fill="#A5ABB6" stroke="none" d="M 25 0.5 L 69.04196199558082 0.5 L 69.04196199558082 -0.5 L 25 -0.5 Z M 91.04196199558082 0.5 L 135.08392399116164 0.5 L 135.08392399116164 3.5 L 142.08392399116164 0 L 135.08392399116164 -3.5 L 135.08392399116164 -0.5 L 91.04196199558082 -0.5 Z"/><text text-anchor="middle" pointer-events="none" font-size="8px" fill="#000000" x="80.04196199558082" y="3" font-family="sans-serif">收藏</text></g><g class="relationship" transform="translate(-237.8421084351481 -1.9785230165483647) rotate(338.5587070739534)"><path class="outline" fill="#A5ABB6" stroke="none" d="M 25 0.5 L 46.377788894916705 0.5 L 46.377788894916705 -0.5 L 25 -0.5 Z M 68.3777888949167 0.5 L 89.75557778983341 0.5 L 89.75557778983341 3.5 L 96.75557778983341 0 L 89.75557778983341 -3.5 L 89.75557778983341 -0.5 L 68.3777888949167 -0.5 Z"/><text text-anchor="middle" pointer-events="none" font-size="8px" fill="#000000" x="57.377788894916705" y="3" font-family="sans-serif">收藏</text></g><g class="relationship" transform="translate(-311.57321842402445 -159.79976902835236) rotate(391.2058327728699)"><path class="outline" fill="#A5ABB6" stroke="none" d="M 25 0.5 L 94.8521468127796 0.5 L 94.8521468127796 -0.5 L 25 -0.5 Z M 116.8521468127796 0.5 L 186.7042936255592 0.5 L 186.7042936255592 3.5 L 193.7042936255592 0 L 186.7042936255592 -3.5 L 186.7042936255592 -0.5 L 116.8521468127796 -0.5 Z"/><text text-anchor="middle" pointer-events="none" font-size="8px" fill="#000000" x="105.8521468127796" y="3" font-family="sans-serif">收录</text></g><g class="relationship" transform="translate(7.712161136628775 74.62596664561516) rotate(222.4882206814425)"><path class="outline" fill="#A5ABB6" stroke="none" d="M 25 0.5 L 75.15430591647105 0.5 L 75.15430591647105 -0.5 L 25 -0.5 Z M 97.15430591647105 0.5 L 147.3086118329421 0.5 L 147.3086118329421 3.5 L 154.3086118329421 0 L 147.3086118329421 -3.5 L 147.3086118329421 -0.5 L 97.15430591647105 -0.5 Z"/><text text-anchor="middle" pointer-events="none" font-size="8px" fill="#000000" x="86.15430591647105" y="3" transform="rotate(180 86.15430591647105 0)" font-family="sans-serif">演唱</text></g><g class="relationship" transform="translate(-352.7261880376592 -46.47175516129597) rotate(381.95139507277605)"><path class="outline" fill="#A5ABB6" stroke="none" d="M 25 0.5 L 88.64246423396233 0.5 L 88.64246423396233 -0.5 L 25 -0.5 Z M 110.64246423396233 0.5 L 174.28492846792466 0.5 L 174.28492846792466 3.5 L 181.28492846792466 0 L 174.28492846792466 -3.5 L 174.28492846792466 -0.5 L 110.64246423396233 -0.5 Z"/><text text-anchor="middle" pointer-events="none" font-size="8px" fill="#000000" x="99.64246423396233" y="3" font-family="sans-serif">收藏</text></g><g class="relationship" transform="translate(-265.28756381455867 132.40282091651218) rotate(315.5933398587037)"><path class="outline" fill="#A5ABB6" stroke="none" d="M 25 0.5 L 58.212888394868685 0.5 L 58.212888394868685 -0.5 L 25 -0.5 Z M 80.21288839486868 0.5 L 113.42577678973737 0.5 L 113.42577678973737 3.5 L 120.42577678973737 0 L 113.42577678973737 -3.5 L 113.42577678973737 -0.5 L 80.21288839486868 -0.5 Z"/><text text-anchor="middle" pointer-events="none" font-size="8px" fill="#000000" x="69.21288839486868" y="3" font-family="sans-serif">收藏</text></g><g class="relationship" transform="translate(-330.291797763747 20.932576168952703) rotate(363.2900761554338)"><path class="outline" fill="#A5ABB6" stroke="none" d="M 25 0.5 L 70.08699376741076 0.5 L 70.08699376741076 -0.5 L 25 -0.5 Z M 92.08699376741076 0.5 L 137.17398753482152 0.5 L 137.17398753482152 3.5 L 144.17398753482152 0 L 137.17398753482152 -3.5 L 137.17398753482152 -0.5 L 92.08699376741076 -0.5 Z"/><text text-anchor="middle" pointer-events="none" font-size="8px" fill="#000000" x="81.08699376741076" y="3" font-family="sans-serif">收藏</text></g><g class="relationship" transform="translate(-297.52525449985507 -69.91333676902812) rotate(396.4524090847052)"><path class="outline" fill="#A5ABB6" stroke="none" d="M 25 0.5 L 70.12018791387845 0.5 L 70.12018791387845 -0.5 L 25 -0.5 Z M 92.12018791387845 0.5 L 137.2403758277569 0.5 L 137.2403758277569 3.5 L 144.2403758277569 0 L 137.2403758277569 -3.5 L 137.2403758277569 -0.5 L 92.12018791387845 -0.5 Z"/><text text-anchor="middle" pointer-events="none" font-size="8px" fill="#000000" x="81.12018791387845" y="3" font-family="sans-serif">收录</text></g><g class="relationship" transform="translate(7.712161136628775 74.62596664561516) rotate(194.5792993026289)"><path class="outline" fill="#A5ABB6" stroke="none" d="M 25 0.5 L 72.86762628386329 0.5 L 72.86762628386329 -0.5 L 25 -0.5 Z M 94.86762628386329 0.5 L 142.73525256772658 0.5 L 142.73525256772658 3.5 L 149.73525256772658 0 L 142.73525256772658 -3.5 L 142.73525256772658 -0.5 L 94.86762628386329 -0.5 Z"/><text text-anchor="middle" pointer-events="none" font-size="8px" fill="#000000" x="83.86762628386329" y="3" transform="rotate(180 83.86762628386329 0)" font-family="sans-serif">演唱</text></g><g class="relationship" transform="translate(451.54882547829857 140.87573668172928) rotate(199.82586453352945)"><path class="outline" fill="#A5ABB6" stroke="none" d="M 25 0.5 L 72.11100278955043 0.5 L 72.11100278955043 -0.5 L 25 -0.5 Z M 94.11100278955043 0.5 L 141.22200557910085 0.5 L 141.22200557910085 3.5 L 148.22200557910085 0 L 141.22200557910085 -3.5 L 141.22200557910085 -0.5 L 94.11100278955043 -0.5 Z"/><text text-anchor="middle" pointer-events="none" font-size="8px" fill="#000000" x="83.11100278955043" y="3" transform="rotate(180 83.11100278955043 0)" font-family="sans-serif">收藏</text></g><g class="relationship" transform="translate(465.82944993454055 36.98497019008286) rotate(525.7110477017218)"><path class="outline" fill="#A5ABB6" stroke="none" d="M 25 0.5 L 76.9467437077363 0.5 L 76.9467437077363 -0.5 L 25 -0.5 Z M 98.9467437077363 0.5 L 150.8934874154726 0.5 L 150.8934874154726 3.5 L 157.8934874154726 0 L 150.8934874154726 -3.5 L 150.8934874154726 -0.5 L 98.9467437077363 -0.5 Z"/><text text-anchor="middle" pointer-events="none" font-size="8px" fill="#000000" x="87.9467437077363" y="3" transform="rotate(180 87.9467437077363 0)" font-family="sans-serif">收藏</text></g><g class="relationship" transform="translate(585.5584723393401 137.08909552224102) rotate(190.4859518087552)"><path class="outline" fill="#A5ABB6" stroke="none" d="M 25 0.5 L 136.5040318405468 0.5 L 136.5040318405468 -0.5 L 25 -0.5 Z M 158.5040318405468 0.5 L 270.0080636810936 0.5 L 270.0080636810936 3.5 L 277.0080636810936 0 L 270.0080636810936 -3.5 L 270.0080636810936 -0.5 L 158.5040318405468 -0.5 Z"/><text text-anchor="middle" pointer-events="none" font-size="8px" fill="#000000" x="147.5040318405468" y="3" transform="rotate(180 147.5040318405468 0)" font-family="sans-serif">收藏</text></g><g class="relationship" transform="translate(402.3607808052267 52.180911804504774) rotate(525.2537104047027)"><path class="outline" fill="#A5ABB6" stroke="none" d="M 25 0.5 L 44.320765678335626 0.5 L 44.320765678335626 -0.5 L 25 -0.5 Z M 66.32076567833562 0.5 L 85.64153135667125 0.5 L 85.64153135667125 3.5 L 92.64153135667125 0 L 85.64153135667125 -3.5 L 85.64153135667125 -0.5 L 66.32076567833562 -0.5 Z"/><text text-anchor="middle" pointer-events="none" font-size="8px" fill="#000000" x="55.320765678335626" y="3" transform="rotate(180 55.320765678335626 0)" font-family="sans-serif">收录</text></g><g class="relationship" transform="translate(7.712161136628775 74.62596664561516) rotate(361.5293919044304)"><path class="outline" fill="#A5ABB6" stroke="none" d="M 25 0.5 L 125.99100536713087 0.5 L 125.99100536713087 -0.5 L 25 -0.5 Z M 147.99100536713087 0.5 L 248.98201073426173 0.5 L 248.98201073426173 3.5 L 255.98201073426173 0 L 248.98201073426173 -3.5 L 248.98201073426173 -0.5 L 147.99100536713087 -0.5 Z"/><text text-anchor="middle" pointer-events="none" font-size="8px" fill="#000000" x="136.99100536713087" y="3" font-family="sans-serif">演唱</text></g><g class="relationship" transform="translate(-208.75646299102954 407.2243603807945) rotate(305.29225437562206)"><path class="outline" fill="#A5ABB6" stroke="none" d="M 25 0.5 L 69.03062373343957 0.5 L 69.03062373343957 -0.5 L 25 -0.5 Z M 91.03062373343957 0.5 L 135.06124746687914 0.5 L 135.06124746687914 3.5 L 142.06124746687914 0 L 135.06124746687914 -3.5 L 135.06124746687914 -0.5 L 91.03062373343957 -0.5 Z"/><text text-anchor="middle" pointer-events="none" font-size="8px" fill="#000000" x="80.03062373343957" y="3" font-family="sans-serif">收藏</text></g><g class="relationship" transform="translate(-268.9206570587749 412.4971847637482) rotate(317.88861906227555)"><path class="outline" fill="#A5ABB6" stroke="none" d="M 25 0.5 L 91.10418400928246 0.5 L 91.10418400928246 -0.5 L 25 -0.5 Z M 113.10418400928246 0.5 L 179.20836801856493 0.5 L 179.20836801856493 3.5 L 186.20836801856493 0 L 179.20836801856493 -3.5 L 179.20836801856493 -0.5 L 113.10418400928246 -0.5 Z"/><text text-anchor="middle" pointer-events="none" font-size="8px" fill="#000000" x="102.10418400928246" y="3" font-family="sans-serif">收藏</text></g><g class="relationship" transform="translate(-211.10441613634453 467.17091627505164) rotate(296.73172390044596)"><path class="outline" fill="#A5ABB6" stroke="none" d="M 25 0.5 L 95.39790081733905 0.5 L 95.39790081733905 -0.5 L 25 -0.5 Z M 117.39790081733905 0.5 L 187.7958016346781 0.5 L 187.7958016346781 3.5 L 194.7958016346781 0 L 187.7958016346781 -3.5 L 187.7958016346781 -0.5 L 117.39790081733905 -0.5 Z"/><text text-anchor="middle" pointer-events="none" font-size="8px" fill="#000000" x="106.39790081733905" y="3" font-family="sans-serif">收藏</text></g><g class="relationship" transform="translate(-151.5541091475221 456.8976605832547) rotate(281.93357907279864)"><path class="outline" fill="#A5ABB6" stroke="none" d="M 25 0.5 L 80.57031952284018 0.5 L 80.57031952284018 -0.5 L 25 -0.5 Z M 102.57031952284018 0.5 L 158.14063904568036 0.5 L 158.14063904568036 3.5 L 165.14063904568036 0 L 158.14063904568036 -3.5 L 158.14063904568036 -0.5 L 102.57031952284018 -0.5 Z"/><text text-anchor="middle" pointer-events="none" font-size="8px" fill="#000000" x="91.57031952284018" y="3" font-family="sans-serif">收录</text></g><g class="relationship" transform="translate(7.712161136628775 74.62596664561516) rotate(481.4348297142402)"><path class="outline" fill="#A5ABB6" stroke="none" d="M 25 0.5 L 100.49799501867419 0.5 L 100.49799501867419 -0.5 L 25 -0.5 Z M 122.49799501867419 0.5 L 197.99599003734838 0.5 L 197.99599003734838 3.5 L 204.99599003734838 0 L 197.99599003734838 -3.5 L 197.99599003734838 -0.5 L 122.49799501867419 -0.5 Z"/><text text-anchor="middle" pointer-events="none" font-size="8px" fill="#000000" x="111.49799501867419" y="3" transform="rotate(180 111.49799501867419 0)" font-family="sans-serif">演唱</text></g><g class="relationship" transform="translate(-265.28756381455867 132.40282091651218) rotate(315.4814602744592)"><path class="outline" fill="#A5ABB6" stroke="none" d="M 25 0.5 L 28.214915379831154 0.5 L 28.214915379831154 -0.5 L 25 -0.5 Z M 50.214915379831154 0.5 L 53.42983075966231 0.5 L 53.42983075966231 3.5 L 60.42983075966231 0 L 53.42983075966231 -3.5 L 53.42983075966231 -0.5 L 50.214915379831154 -0.5 Z"/><text text-anchor="middle" pointer-events="none" font-size="8px" fill="#000000" x="39.214915379831154" y="3" font-family="sans-serif">收藏</text></g><g class="relationship" transform="translate(-412.0948013365719 71.32613260724237) rotate(360.3250397011507)"><path class="outline" fill="#A5ABB6" stroke="none" d="M 25 0.5 L 89.36203331200912 0.5 L 89.36203331200912 -0.5 L 25 -0.5 Z M 111.36203331200912 0.5 L 175.72406662401823 0.5 L 175.72406662401823 3.5 L 182.72406662401823 0 L 175.72406662401823 -3.5 L 175.72406662401823 -0.5 L 111.36203331200912 -0.5 Z"/><text text-anchor="middle" pointer-events="none" font-size="8px" fill="#000000" x="100.36203331200912" y="3" font-family="sans-serif">收藏</text></g><g class="relationship" transform="translate(-414.3847526272501 11.378288528620757) rotate(376.22830400519285)"><path class="outline" fill="#A5ABB6" stroke="none" d="M 25 0.5 L 94.86281737835992 0.5 L 94.86281737835992 -0.5 L 25 -0.5 Z M 116.86281737835992 0.5 L 186.72563475671984 0.5 L 186.72563475671984 3.5 L 193.72563475671984 0 L 186.72563475671984 -3.5 L 186.72563475671984 -0.5 L 116.86281737835992 -0.5 Z"/><text text-anchor="middle" pointer-events="none" font-size="8px" fill="#000000" x="105.86281737835992" y="3" font-family="sans-serif">收藏</text></g><g class="relationship" transform="translate(-408.98718743903896 131.2320576973598) rotate(343.9856031854714)"><path class="outline" fill="#A5ABB6" stroke="none" d="M 25 0.5 L 91.93712378682204 0.5 L 91.93712378682204 -0.5 L 25 -0.5 Z M 113.93712378682204 0.5 L 180.87424757364408 0.5 L 180.87424757364408 3.5 L 187.87424757364408 0 L 180.87424757364408 -3.5 L 180.87424757364408 -0.5 L 113.93712378682204 -0.5 Z"/><text text-anchor="middle" pointer-events="none" font-size="8px" fill="#000000" x="102.93712378682204" y="3" font-family="sans-serif">收录</text></g><g class="relationship" transform="translate(7.712161136628775 74.62596664561516) rotate(180.57308906278934)"><path class="outline" fill="#A5ABB6" stroke="none" d="M 25 0.5 L 91.54842402685952 0.5 L 91.54842402685952 -0.5 L 25 -0.5 Z M 113.54842402685952 0.5 L 180.09684805371904 0.5 L 180.09684805371904 3.5 L 187.09684805371904 0 L 180.09684805371904 -3.5 L 180.09684805371904 -0.5 L 113.54842402685952 -0.5 Z"/><text text-anchor="middle" pointer-events="none" font-size="8px" fill="#000000" x="102.54842402685952" y="3" transform="rotate(180 102.54842402685952 0)" font-family="sans-serif">演唱</text></g><g class="relationship" transform="translate(-88.80824837859669 -235.07025031855636) rotate(448.65471055374394)"><path class="outline" fill="#A5ABB6" stroke="none" d="M 25 0.5 L 44.65869610642958 0.5 L 44.65869610642958 -0.5 L 25 -0.5 Z M 66.65869610642957 0.5 L 86.31739221285916 0.5 L 86.31739221285916 3.5 L 93.31739221285916 0 L 86.31739221285916 -3.5 L 86.31739221285916 -0.5 L 66.65869610642957 -0.5 Z"/><text text-anchor="middle" pointer-events="none" font-size="8px" fill="#000000" x="55.65869610642958" y="3" font-family="sans-serif">收藏</text></g><g class="relationship" transform="translate(-238.58126626823304 -252.95335897402902) rotate(401.75231473938106)"><path class="outline" fill="#A5ABB6" stroke="none" d="M 25 0.5 L 87.7416835651756 0.5 L 87.7416835651756 -0.5 L 25 -0.5 Z M 109.7416835651756 0.5 L 172.4833671303512 0.5 L 172.4833671303512 3.5 L 179.4833671303512 0 L 172.4833671303512 -3.5 L 172.4833671303512 -0.5 L 109.7416835651756 -0.5 Z"/><text text-anchor="middle" pointer-events="none" font-size="8px" fill="#000000" x="98.7416835651756" y="3" font-family="sans-serif">收藏</text></g><g class="relationship" transform="translate(-198.3355092845578 -297.39560477393155) rotate(418.1262656927003)"><path class="outline" fill="#A5ABB6" stroke="none" d="M 25 0.5 L 91.83960741081523 0.5 L 91.83960741081523 -0.5 L 25 -0.5 Z M 113.83960741081523 0.5 L 180.67921482163047 0.5 L 180.67921482163047 3.5 L 187.67921482163047 0 L 180.67921482163047 -3.5 L 180.67921482163047 -0.5 L 113.83960741081523 -0.5 Z"/><text text-anchor="middle" pointer-events="none" font-size="8px" fill="#000000" x="102.83960741081523" y="3" font-family="sans-serif">收藏</text></g><g class="relationship" transform="translate(-139.14067858777955 -306.93164344260015) rotate(434.39427808979434)"><path class="outline" fill="#A5ABB6" stroke="none" d="M 25 0.5 L 84.21203590282845 0.5 L 84.21203590282845 -0.5 L 25 -0.5 Z M 106.21203590282845 0.5 L 165.4240718056569 0.5 L 165.4240718056569 3.5 L 172.4240718056569 0 L 165.4240718056569 -3.5 L 165.4240718056569 -0.5 L 106.21203590282845 -0.5 Z"/><text text-anchor="middle" pointer-events="none" font-size="8px" fill="#000000" x="95.21203590282845" y="3" font-family="sans-serif">收录</text></g><g class="relationship" transform="translate(7.712161136628775 74.62596664561516) rotate(243.9069747109245)"><path class="outline" fill="#A5ABB6" stroke="none" d="M 25 0.5 L 92.0668970598645 0.5 L 92.0668970598645 -0.5 L 25 -0.5 Z M 114.0668970598645 0.5 L 181.133794119729 0.5 L 181.133794119729 3.5 L 188.133794119729 0 L 181.133794119729 -3.5 L 181.133794119729 -0.5 L 114.0668970598645 -0.5 Z"/><text text-anchor="middle" pointer-events="none" font-size="8px" fill="#000000" x="103.0668970598645" y="3" transform="rotate(180 103.0668970598645 0)" font-family="sans-serif">演唱</text></g><g class="relationship" transform="translate(-265.28756381455867 132.40282091651218) rotate(388.3490781587388)"><path class="outline" fill="#A5ABB6" stroke="none" d="M 25 0.5 L 45.767147302639884 0.5 L 45.767147302639884 -0.5 L 25 -0.5 Z M 67.76714730263988 0.5 L 88.53429460527977 0.5 L 88.53429460527977 3.5 L 95.53429460527977 0 L 88.53429460527977 -3.5 L 88.53429460527977 -0.5 L 67.76714730263988 -0.5 Z"/><text text-anchor="middle" pointer-events="none" font-size="8px" fill="#000000" x="56.767147302639884" y="3" font-family="sans-serif">收藏</text></g><g class="relationship" transform="translate(-355.2237932510656 268.1060778396099) rotate(338.18284316350514)"><path class="outline" fill="#A5ABB6" stroke="none" d="M 25 0.5 L 91.06889592397437 0.5 L 91.06889592397437 -0.5 L 25 -0.5 Z M 113.06889592397437 0.5 L 179.13779184794873 0.5 L 179.13779184794873 3.5 L 186.13779184794873 0 L 179.13779184794873 -3.5 L 179.13779184794873 -0.5 L 113.06889592397437 -0.5 Z"/><text text-anchor="middle" pointer-events="none" font-size="8px" fill="#000000" x="102.06889592397437" y="3" font-family="sans-serif">收藏</text></g><g class="relationship" transform="translate(-316.10375885305433 313.57489475425336) rotate(321.6934433393357)"><path class="outline" fill="#A5ABB6" stroke="none" d="M 25 0.5 L 85.47058553748454 0.5 L 85.47058553748454 -0.5 L 25 -0.5 Z M 107.47058553748454 0.5 L 167.94117107496908 0.5 L 167.94117107496908 3.5 L 174.94117107496908 0 L 167.94117107496908 -3.5 L 167.94117107496908 -0.5 L 107.47058553748454 -0.5 Z"/><text text-anchor="middle" pointer-events="none" font-size="8px" fill="#000000" x="96.47058553748454" y="3" font-family="sans-serif">收藏</text></g><g class="relationship" transform="translate(-256.2581929731732 317.72070635189397) rotate(307.1514322815377)"><path class="outline" fill="#A5ABB6" stroke="none" d="M 25 0.5 L 65.84902252354372 0.5 L 65.84902252354372 -0.5 L 25 -0.5 Z M 87.84902252354372 0.5 L 128.69804504708745 0.5 L 128.69804504708745 3.5 L 135.69804504708745 0 L 128.69804504708745 -3.5 L 128.69804504708745 -0.5 L 87.84902252354372 -0.5 Z"/><text text-anchor="middle" pointer-events="none" font-size="8px" fill="#000000" x="76.84902252354372" y="3" font-family="sans-serif">收录</text></g><g class="relationship" transform="translate(7.712161136628775 74.62596664561516) rotate(505.43244558436453)"><path class="outline" fill="#A5ABB6" stroke="none" d="M 25 0.5 L 86.85370382245624 0.5 L 86.85370382245624 -0.5 L 25 -0.5 Z M 108.85370382245624 0.5 L 170.70740764491248 0.5 L 170.70740764491248 3.5 L 177.70740764491248 0 L 170.70740764491248 -3.5 L 170.70740764491248 -0.5 L 108.85370382245624 -0.5 Z"/><text text-anchor="middle" pointer-events="none" font-size="8px" fill="#000000" x="97.85370382245624" y="3" transform="rotate(180 97.85370382245624 0)" font-family="sans-serif">演唱</text></g></g><g class="layer nodes"><g class="node" transform="translate(110.75723750018189,909.2860228006887)"><circle class="outline" cx="0" cy="0" r="25" fill="#4C8EDA" stroke="#2870c2" stroke-width="2px"/><text text-anchor="middle" pointer-events="none" font-family="sans-serif" dy="1.5625" font-size="25" fill="#FFFFFF"/><text text-anchor="middle" pointer-events="none" y="5" font-size="10px" fill="#FFFFFF" font-family="sans-serif"> 红海之…</text></g><g class="node" transform="translate(219.00865192615493,945.051336649851)"><circle class="outline" cx="0" cy="0" r="25" fill="#F16667" stroke="#eb2728" stroke-width="2px"/><text text-anchor="middle" pointer-events="none" font-family="sans-serif" dy="1.5625" font-size="25" fill="#FFFFFF"/><text text-anchor="middle" pointer-events="none" y="5" font-size="10px" fill="#FFFFFF" font-family="sans-serif"> 圣诞节</text></g><g class="node" transform="translate(122.3553485398242,1004.0651285019512)"><circle class="outline" cx="0" cy="0" r="25" fill="#4C8EDA" stroke="#2870c2" stroke-width="2px"/><text text-anchor="middle" pointer-events="none" font-family="sans-serif" dy="1.5625" font-size="25" fill="#FFFFFF"/><text text-anchor="middle" pointer-events="none" y="5" font-size="10px" fill="#FFFFFF" font-family="sans-serif"> 可爱的…</text></g><g class="node" transform="translate(328.3271127415406,972.7608098094158)"><circle class="outline" cx="0" cy="0" r="25" fill="#ECB5C9" stroke="#da7298" stroke-width="2px"/><text text-anchor="middle" pointer-events="none" font-family="sans-serif" dy="1.5625" font-size="25" fill="#604A0E"/><text text-anchor="middle" pointer-events="none" y="5" font-size="10px" fill="#604A0E" font-family="sans-serif"> 圣诞节</text></g><g class="node" transform="translate(311.89265413909555,876.962662200299)"><circle class="outline" cx="0" cy="0" r="25" fill="#FFC454" stroke="#d7a013" stroke-width="2px"/><text text-anchor="middle" pointer-events="none" font-family="sans-serif" dy="1.5625" font-size="25" fill="#604A0E"/><text text-anchor="middle" pointer-events="none" y="5" font-size="10px" fill="#604A0E" font-family="sans-serif"> 洪辰</text></g><g class="node" transform="translate(-51.502149678042166,444.6794090939478)"><circle class="outline" cx="0" cy="0" r="25" fill="#4C8EDA" stroke="#2870c2" stroke-width="2px"/><text text-anchor="middle" pointer-events="none" font-family="sans-serif" dy="1.5625" font-size="25" fill="#FFFFFF"/><text text-anchor="middle" pointer-events="none" y="5" font-size="10px" fill="#FFFFFF" font-family="sans-serif"> ساراڭ</text></g><g class="node" transform="translate(5.267923777300419,282.55967417606377)"><circle class="outline" cx="0" cy="0" r="25" fill="#F16667" stroke="#eb2728" stroke-width="2px"/><text text-anchor="middle" pointer-events="none" font-family="sans-serif" dy="1.5625" font-size="25" fill="#FFFFFF"/><text text-anchor="middle" pointer-events="none" y="5" font-size="10px" fill="#FFFFFF" font-family="sans-serif"> 你怎么…</text></g><g class="node" transform="translate(109.66354070175262,343.9670288900546)"><circle class="outline" cx="0" cy="0" r="25" fill="#4C8EDA" stroke="#2870c2" stroke-width="2px"/><text text-anchor="middle" pointer-events="none" font-family="sans-serif" dy="1.5625" font-size="25" fill="#FFFFFF"/><text text-anchor="middle" pointer-events="none" y="5" font-size="10px" fill="#FFFFFF" font-family="sans-serif"> 刘心最…</text></g><g class="node" transform="translate(-20.546051973874462,496.035619226261)"><circle class="outline" cx="0" cy="0" r="25" fill="#4C8EDA" stroke="#2870c2" stroke-width="2px"/><text text-anchor="middle" pointer-events="none" font-family="sans-serif" dy="1.5625" font-size="25" fill="#FFFFFF"/><text text-anchor="middle" pointer-events="none" y="5" font-size="10px" fill="#FFFFFF" font-family="sans-serif"> 陪伴本…</text></g><g class="node" transform="translate(36.38350578055568,477.14013671054926)"><circle class="outline" cx="0" cy="0" r="25" fill="#ECB5C9" stroke="#da7298" stroke-width="2px"/><text text-anchor="middle" pointer-events="none" font-family="sans-serif" dy="1.5625" font-size="25" fill="#604A0E"/><text text-anchor="middle" pointer-events="none" y="5" font-size="10px" fill="#604A0E" font-family="sans-serif"> 热门华…</text></g><g class="node" transform="translate(7.712161136628775,74.62596664561516)"><circle class="outline" cx="0" cy="0" r="25" fill="#FFC454" stroke="#d7a013" stroke-width="2px"/><text text-anchor="middle" pointer-events="none" font-family="sans-serif" dy="1.5625" font-size="25" fill="#604A0E"/><text text-anchor="middle" pointer-events="none" y="5" font-size="10px" fill="#604A0E" font-family="sans-serif"> 刘心</text></g><g class="node" transform="translate(67.70017259864451,244.3550136994873)"><circle class="outline" cx="0" cy="0" r="25" fill="#F16667" stroke="#eb2728" stroke-width="2px"/><text text-anchor="middle" pointer-events="none" font-family="sans-serif" dy="1.5625" font-size="25" fill="#FFFFFF"/><text text-anchor="middle" pointer-events="none" y="5" font-size="10px" fill="#FFFFFF" font-family="sans-serif"> 思念谁(L…</text></g><g class="node" transform="translate(129.188963805614,445.2637683427554)"><circle class="outline" cx="0" cy="0" r="25" fill="#4C8EDA" stroke="#2870c2" stroke-width="2px"/><text text-anchor="middle" pointer-events="none" font-family="sans-serif" dy="1.5625" font-size="25" fill="#FFFFFF"/><text text-anchor="middle" pointer-events="none" y="5" font-size="10px" fill="#FFFFFF" font-family="sans-serif"> بارالمىدىم.</text></g><g class="node" transform="translate(161.10882186805034,394.4717009532167)"><circle class="outline" cx="0" cy="0" r="25" fill="#4C8EDA" stroke="#2870c2" stroke-width="2px"/><text text-anchor="middle" pointer-events="none" font-family="sans-serif" dy="1.5625" font-size="25" fill="#FFFFFF"/><text text-anchor="middle" pointer-events="none" y="5" font-size="10px" fill="#FFFFFF" font-family="sans-serif"> كۇتۇش</text></g><g class="node" transform="translate(71.80735753095867,409.35012933307706)"><circle class="outline" cx="0" cy="0" r="25" fill="#ECB5C9" stroke="#da7298" stroke-width="2px"/><text text-anchor="middle" pointer-events="none" font-family="sans-serif" dy="1.5625" font-size="25" fill="#604A0E"/><text text-anchor="middle" pointer-events="none" y="5" font-size="10px" fill="#604A0E" font-family="sans-serif"> 热门华…</text></g><g class="node" transform="translate(585.5584723393401,137.08909552224102)"><circle class="outline" cx="0" cy="0" r="25" fill="#4C8EDA" stroke="#2870c2" stroke-width="2px"/><text text-anchor="middle" pointer-events="none" font-family="sans-serif" dy="1.5625" font-size="25" fill="#FFFFFF"/><text text-anchor="middle" pointer-events="none" y="5" font-size="10px" fill="#FFFFFF" font-family="sans-serif"> 那些很…</text></g><g class="node" transform="translate(713.1035270886127,271.94000117386247)"><circle class="outline" cx="0" cy="0" r="25" fill="#F16667" stroke="#eb2728" stroke-width="2px"/><text text-anchor="middle" pointer-events="none" font-family="sans-serif" dy="1.5625" font-size="25" fill="#FFFFFF"/><text text-anchor="middle" pointer-events="none" y="5" font-size="10px" fill="#FFFFFF" font-family="sans-serif"> 屌丝情歌</text></g><g class="node" transform="translate(703.7839225261197,405.65215265440753)"><circle class="outline" cx="0" cy="0" r="25" fill="#4C8EDA" stroke="#2870c2" stroke-width="2px"/><text text-anchor="middle" pointer-events="none" font-family="sans-serif" dy="1.5625" font-size="25" fill="#FFFFFF"/><text text-anchor="middle" pointer-events="none" y="5" font-size="10px" fill="#FFFFFF" font-family="sans-serif"> (˘³˘)♡个…</text></g><g class="node" transform="translate(774.6629915671386,394.55014809020184)"><circle class="outline" cx="0" cy="0" r="25" fill="#4C8EDA" stroke="#2870c2" stroke-width="2px"/><text text-anchor="middle" pointer-events="none" font-family="sans-serif" dy="1.5625" font-size="25" fill="#FFFFFF"/><text text-anchor="middle" pointer-events="none" y="5" font-size="10px" fill="#FFFFFF" font-family="sans-serif"> 有时翻…</text></g><g class="node" transform="translate(825.2051131332867,342.61825032951464)"><circle class="outline" cx="0" cy="0" r="25" fill="#ECB5C9" stroke="#da7298" stroke-width="2px"/><text text-anchor="middle" pointer-events="none" font-family="sans-serif" dy="1.5625" font-size="25" fill="#604A0E"/><text text-anchor="middle" pointer-events="none" y="5" font-size="10px" fill="#604A0E" font-family="sans-serif"> 屌丝情歌</text></g><g class="node" transform="translate(838.3644419295582,265.34433946029213)"><circle class="outline" cx="0" cy="0" r="25" fill="#FFC454" stroke="#d7a013" stroke-width="2px"/><text text-anchor="middle" pointer-events="none" font-family="sans-serif" dy="1.5625" font-size="25" fill="#604A0E"/><text text-anchor="middle" pointer-events="none" y="5" font-size="10px" fill="#604A0E" font-family="sans-serif"> 大鹏</text></g><g class="node" transform="translate(266.3225071923897,-107.76987467003994)"><circle class="outline" cx="0" cy="0" r="25" fill="#4C8EDA" stroke="#2870c2" stroke-width="2px"/><text text-anchor="middle" pointer-events="none" font-family="sans-serif" dy="1.5625" font-size="25" fill="#FFFFFF"/><text text-anchor="middle" pointer-events="none" y="5" font-size="10px" fill="#FFFFFF" font-family="sans-serif"> 【2019…</text></g><g class="node" transform="translate(138.20511496219686,-50.01604336091939)"><circle class="outline" cx="0" cy="0" r="25" fill="#F16667" stroke="#eb2728" stroke-width="2px"/><text text-anchor="middle" pointer-events="none" font-family="sans-serif" dy="1.5625" font-size="25" fill="#FFFFFF"/><text text-anchor="middle" pointer-events="none" y="5" font-size="10px" fill="#FFFFFF" font-family="sans-serif"> 方向感</text></g><g class="node" transform="translate(261.9377170618193,-199.147125804787)"><circle class="outline" cx="0" cy="0" r="25" fill="#4C8EDA" stroke="#2870c2" stroke-width="2px"/><text text-anchor="middle" pointer-events="none" font-family="sans-serif" dy="1.5625" font-size="25" fill="#FFFFFF"/><text text-anchor="middle" pointer-events="none" y="5" font-size="10px" fill="#FFFFFF" font-family="sans-serif"> 斗音歌…</text></g><g class="node" transform="translate(209.6139706152277,-169.81029213944439)"><circle class="outline" cx="0" cy="0" r="25" fill="#4C8EDA" stroke="#2870c2" stroke-width="2px"/><text text-anchor="middle" pointer-events="none" font-family="sans-serif" dy="1.5625" font-size="25" fill="#FFFFFF"/><text text-anchor="middle" pointer-events="none" y="5" font-size="10px" fill="#FFFFFF" font-family="sans-serif"> 亲爱的…</text></g><g class="node" transform="translate(302.9093434661134,-155.32304482388074)"><circle class="outline" cx="0" cy="0" r="25" fill="#ECB5C9" stroke="#da7298" stroke-width="2px"/><text text-anchor="middle" pointer-events="none" font-family="sans-serif" dy="1.5625" font-size="25" fill="#604A0E"/><text text-anchor="middle" pointer-events="none" y="5" font-size="10px" fill="#604A0E" font-family="sans-serif"> 你是我…</text></g><g class="node" transform="translate(257.14576530807756,246.67891413648698)"><circle class="outline" cx="0" cy="0" r="25" fill="#4C8EDA" stroke="#2870c2" stroke-width="2px"/><text text-anchor="middle" pointer-events="none" font-family="sans-serif" dy="1.5625" font-size="25" fill="#FFFFFF"/><text text-anchor="middle" pointer-events="none" y="5" font-size="10px" fill="#FFFFFF" font-family="sans-serif"> 前方高…</text></g><g class="node" transform="translate(159.54961882743615,129.72424889354537)"><circle class="outline" cx="0" cy="0" r="25" fill="#F16667" stroke="#eb2728" stroke-width="2px"/><text text-anchor="middle" pointer-events="none" font-family="sans-serif" dy="1.5625" font-size="25" fill="#FFFFFF"/><text text-anchor="middle" pointer-events="none" y="5" font-size="10px" fill="#FFFFFF" font-family="sans-serif"> 剪云者/…</text></g><g class="node" transform="translate(281.3604939309053,184.56625800523102)"><circle class="outline" cx="0" cy="0" r="25" fill="#4C8EDA" stroke="#2870c2" stroke-width="2px"/><text text-anchor="middle" pointer-events="none" font-family="sans-serif" dy="1.5625" font-size="25" fill="#FFFFFF"/><text text-anchor="middle" pointer-events="none" y="5" font-size="10px" fill="#FFFFFF" font-family="sans-serif"> 值得单…</text></g><g class="node" transform="translate(327.2616955494462,227.50337998024267)"><circle class="outline" cx="0" cy="0" r="25" fill="#4C8EDA" stroke="#2870c2" stroke-width="2px"/><text text-anchor="middle" pointer-events="none" font-family="sans-serif" dy="1.5625" font-size="25" fill="#FFFFFF"/><text text-anchor="middle" pointer-events="none" y="5" font-size="10px" fill="#FFFFFF" font-family="sans-serif"> 唱首情…</text></g><g class="node" transform="translate(327.4657066861605,146.17572102199213)"><circle class="outline" cx="0" cy="0" r="25" fill="#ECB5C9" stroke="#da7298" stroke-width="2px"/><text text-anchor="middle" pointer-events="none" font-family="sans-serif" dy="1.5625" font-size="25" fill="#604A0E"/><text text-anchor="middle" pointer-events="none" y="5" font-size="10px" fill="#604A0E" font-family="sans-serif"> 剪云者/…</text></g><g class="node" transform="translate(771.8712738907645,-77.1391636446559)"><circle class="outline" cx="0" cy="0" r="25" fill="#4C8EDA" stroke="#2870c2" stroke-width="2px"/><text text-anchor="middle" pointer-events="none" font-family="sans-serif" dy="1.5625" font-size="25" fill="#FFFFFF"/><text text-anchor="middle" pointer-events="none" y="5" font-size="10px" fill="#FFFFFF" font-family="sans-serif"> 天娱精…</text></g><g class="node" transform="translate(743.9070676383502,53.00946335682205)"><circle class="outline" cx="0" cy="0" r="25" fill="#F16667" stroke="#eb2728" stroke-width="2px"/><text text-anchor="middle" pointer-events="none" font-family="sans-serif" dy="1.5625" font-size="25" fill="#FFFFFF"/><text text-anchor="middle" pointer-events="none" y="5" font-size="10px" fill="#FFFFFF" font-family="sans-serif"> 单身狗…</text></g><g class="node" transform="translate(870.974572303735,23.207320669399856)"><circle class="outline" cx="0" cy="0" r="25" fill="#4C8EDA" stroke="#2870c2" stroke-width="2px"/><text text-anchor="middle" pointer-events="none" font-family="sans-serif" dy="1.5625" font-size="25" fill="#FFFFFF"/><text text-anchor="middle" pointer-events="none" y="5" font-size="10px" fill="#FFFFFF" font-family="sans-serif"> 谭佑铭(…</text></g><g class="node" transform="translate(858.4479079113208,102.2542951100717)"><circle class="outline" cx="0" cy="0" r="25" fill="#ECB5C9" stroke="#da7298" stroke-width="2px"/><text text-anchor="middle" pointer-events="none" font-family="sans-serif" dy="1.5625" font-size="25" fill="#604A0E"/><text text-anchor="middle" pointer-events="none" y="5" font-size="10px" fill="#604A0E" font-family="sans-serif"> 单身狗…</text></g><g class="node" transform="translate(836.9090265806183,-43.46054954156879)"><circle class="outline" cx="0" cy="0" r="25" fill="#FFC454" stroke="#d7a013" stroke-width="2px"/><text text-anchor="middle" pointer-events="none" font-family="sans-serif" dy="1.5625" font-size="25" fill="#604A0E"/><text text-anchor="middle" pointer-events="none" y="5" font-size="10px" fill="#604A0E" font-family="sans-serif"> 张阳阳</text></g><g class="node" transform="translate(122.71047424732083,-248.44546643514025)"><circle class="outline" cx="0" cy="0" r="25" fill="#4C8EDA" stroke="#2870c2" stroke-width="2px"/><text text-anchor="middle" pointer-events="none" font-family="sans-serif" dy="1.5625" font-size="25" fill="#FFFFFF"/><text text-anchor="middle" pointer-events="none" y="5" font-size="10px" fill="#FFFFFF" font-family="sans-serif"> 民谣“不…</text></g><g class="node" transform="translate(78.23952923604453,-114.10403265422404)"><circle class="outline" cx="0" cy="0" r="25" fill="#F16667" stroke="#eb2728" stroke-width="2px"/><text text-anchor="middle" pointer-events="none" font-family="sans-serif" dy="1.5625" font-size="25" fill="#FFFFFF"/><text text-anchor="middle" pointer-events="none" y="5" font-size="10px" fill="#FFFFFF" font-family="sans-serif"> 有里也…</text></g><g class="node" transform="translate(192.49544121673964,-261.63072413994064)"><circle class="outline" cx="0" cy="0" r="25" fill="#4C8EDA" stroke="#2870c2" stroke-width="2px"/><text text-anchor="middle" pointer-events="none" font-family="sans-serif" dy="1.5625" font-size="25" fill="#FFFFFF"/><text text-anchor="middle" pointer-events="none" y="5" font-size="10px" fill="#FFFFFF" font-family="sans-serif"> 上仙全…</text></g><g class="node" transform="translate(87.60240468845471,-300.9308593799442)"><circle class="outline" cx="0" cy="0" r="25" fill="#4C8EDA" stroke="#2870c2" stroke-width="2px"/><text text-anchor="middle" pointer-events="none" font-family="sans-serif" dy="1.5625" font-size="25" fill="#FFFFFF"/><text text-anchor="middle" pointer-events="none" y="5" font-size="10px" fill="#FFFFFF" font-family="sans-serif"> 随机播放¡</text></g><g class="node" transform="translate(150.61278103274202,-307.7114658809614)"><circle class="outline" cx="0" cy="0" r="25" fill="#ECB5C9" stroke="#da7298" stroke-width="2px"/><text text-anchor="middle" pointer-events="none" font-family="sans-serif" dy="1.5625" font-size="25" fill="#604A0E"/><text text-anchor="middle" pointer-events="none" y="5" font-size="10px" fill="#604A0E" font-family="sans-serif"> 有里也…</text></g><g class="node" transform="translate(523.3167538722483,-577.6964496561715)"><circle class="outline" cx="0" cy="0" r="25" fill="#4C8EDA" stroke="#2870c2" stroke-width="2px"/><text text-anchor="middle" pointer-events="none" font-family="sans-serif" dy="1.5625" font-size="25" fill="#FFFFFF"/><text text-anchor="middle" pointer-events="none" y="5" font-size="10px" fill="#FFFFFF" font-family="sans-serif"> 喀什三中</text></g><g class="node" transform="translate(455.60313092489844,-671.1639441664028)"><circle class="outline" cx="0" cy="0" r="25" fill="#F16667" stroke="#eb2728" stroke-width="2px"/><text text-anchor="middle" pointer-events="none" font-family="sans-serif" dy="1.5625" font-size="25" fill="#FFFFFF"/><text text-anchor="middle" pointer-events="none" y="5" font-size="10px" fill="#FFFFFF" font-family="sans-serif"> 爱</text></g><g class="node" transform="translate(570.3916139177271,-655.9076343572183)"><circle class="outline" cx="0" cy="0" r="25" fill="#4C8EDA" stroke="#2870c2" stroke-width="2px"/><text text-anchor="middle" pointer-events="none" font-family="sans-serif" dy="1.5625" font-size="25" fill="#FFFFFF"/><text text-anchor="middle" pointer-events="none" y="5" font-size="10px" fill="#FFFFFF" font-family="sans-serif"> 那些年…</text></g><g class="node" transform="translate(429.32373243269774,-776.9694219103875)"><circle class="outline" cx="0" cy="0" r="25" fill="#4C8EDA" stroke="#2870c2" stroke-width="2px"/><text text-anchor="middle" pointer-events="none" font-family="sans-serif" dy="1.5625" font-size="25" fill="#FFFFFF"/><text text-anchor="middle" pointer-events="none" y="5" font-size="10px" fill="#FFFFFF" font-family="sans-serif"> 陈翔热…</text></g><g class="node" transform="translate(343.94352332686213,-727.6560040626224)"><circle class="outline" cx="0" cy="0" r="25" fill="#ECB5C9" stroke="#da7298" stroke-width="2px"/><text text-anchor="middle" pointer-events="none" font-family="sans-serif" dy="1.5625" font-size="25" fill="#604A0E"/><text text-anchor="middle" pointer-events="none" y="5" font-size="10px" fill="#604A0E" font-family="sans-serif"> 热门华…</text></g><g class="node" transform="translate(348.08607941074536,-639.506105547938)"><circle class="outline" cx="0" cy="0" r="25" fill="#FFC454" stroke="#d7a013" stroke-width="2px"/><text text-anchor="middle" pointer-events="none" font-family="sans-serif" dy="1.5625" font-size="25" fill="#604A0E"/><text text-anchor="middle" pointer-events="none" y="5" font-size="10px" fill="#604A0E" font-family="sans-serif"> 赵帆</text></g><g class="node" transform="translate(-265.28756381455867,132.40282091651218)"><circle class="outline" cx="0" cy="0" r="25" fill="#4C8EDA" stroke="#2870c2" stroke-width="2px"/><text text-anchor="middle" pointer-events="none" font-family="sans-serif" dy="1.5625" font-size="25" fill="#FFFFFF"/><text text-anchor="middle" pointer-events="none" y="5" font-size="10px" fill="#FFFFFF" font-family="sans-serif"> 最后最…</text></g><g class="node" transform="translate(-147.13001414464358,110.2560104290279)"><circle class="outline" cx="0" cy="0" r="25" fill="#F16667" stroke="#eb2728" stroke-width="2px"/><text text-anchor="middle" pointer-events="none" font-family="sans-serif" dy="1.5625" font-size="25" fill="#FFFFFF"/><text text-anchor="middle" pointer-events="none" y="5" font-size="10px" fill="#FFFFFF" font-family="sans-serif"> 无尽的夜</text></g><g class="node" transform="translate(-330.5710741598315,157.2949504200401)"><circle class="outline" cx="0" cy="0" r="25" fill="#4C8EDA" stroke="#2870c2" stroke-width="2px"/><text text-anchor="middle" pointer-events="none" font-family="sans-serif" dy="1.5625" font-size="25" fill="#FFFFFF"/><text text-anchor="middle" pointer-events="none" y="5" font-size="10px" fill="#FFFFFF" font-family="sans-serif"> 小载循…</text></g><g class="node" transform="translate(-237.8421084351481,-1.9785230165483647)"><circle class="outline" cx="0" cy="0" r="25" fill="#4C8EDA" stroke="#2870c2" stroke-width="2px"/><text text-anchor="middle" pointer-events="none" font-family="sans-serif" dy="1.5625" font-size="25" fill="#FFFFFF"/><text text-anchor="middle" pointer-events="none" y="5" font-size="10px" fill="#FFFFFF" font-family="sans-serif"> [华语私…</text></g><g class="node" transform="translate(-284.2229458733092,208.7279568203696)"><circle class="outline" cx="0" cy="0" r="25" fill="#ECB5C9" stroke="#da7298" stroke-width="2px"/><text text-anchor="middle" pointer-events="none" font-family="sans-serif" dy="1.5625" font-size="25" fill="#604A0E"/><text text-anchor="middle" pointer-events="none" y="5" font-size="10px" fill="#604A0E" font-family="sans-serif"> 无尽的夜</text></g><g class="node" transform="translate(-88.80824837859669,-235.07025031855636)"><circle class="outline" cx="0" cy="0" r="25" fill="#4C8EDA" stroke="#2870c2" stroke-width="2px"/><text text-anchor="middle" pointer-events="none" font-family="sans-serif" dy="1.5625" font-size="25" fill="#FFFFFF"/><text text-anchor="middle" pointer-events="none" y="5" font-size="10px" fill="#FFFFFF" font-family="sans-serif"> 丧完就…</text></g><g class="node" transform="translate(-9.491180011050645,-122.7261556693573)"><circle class="outline" cx="0" cy="0" r="25" fill="#F16667" stroke="#eb2728" stroke-width="2px"/><text text-anchor="middle" pointer-events="none" font-family="sans-serif" dy="1.5625" font-size="25" fill="#FFFFFF"/><text text-anchor="middle" pointer-events="none" y="5" font-size="10px" fill="#FFFFFF" font-family="sans-serif"> 辛德瑞拉</text></g><g class="node" transform="translate(2.1394406708769687,-273.4249644328621)"><circle class="outline" cx="0" cy="0" r="25" fill="#4C8EDA" stroke="#2870c2" stroke-width="2px"/><text text-anchor="middle" pointer-events="none" font-family="sans-serif" dy="1.5625" font-size="25" fill="#FFFFFF"/><text text-anchor="middle" pointer-events="none" y="5" font-size="10px" fill="#FFFFFF" font-family="sans-serif"> 路远情…</text></g><g class="node" transform="translate(-61.07434177020709,-309.2793658263531)"><circle class="outline" cx="0" cy="0" r="25" fill="#4C8EDA" stroke="#2870c2" stroke-width="2px"/><text text-anchor="middle" pointer-events="none" font-family="sans-serif" dy="1.5625" font-size="25" fill="#FFFFFF"/><text text-anchor="middle" pointer-events="none" y="5" font-size="10px" fill="#FFFFFF" font-family="sans-serif"> _Y1ME…</text></g><g class="node" transform="translate(-5.320867222709282,-332.9542482162436)"><circle class="outline" cx="0" cy="0" r="25" fill="#ECB5C9" stroke="#da7298" stroke-width="2px"/><text text-anchor="middle" pointer-events="none" font-family="sans-serif" dy="1.5625" font-size="25" fill="#604A0E"/><text text-anchor="middle" pointer-events="none" y="5" font-size="10px" fill="#604A0E" font-family="sans-serif"> 辛德瑞拉</text></g><g class="node" transform="translate(350.42551242848043,-19.176845118204636)"><circle class="outline" cx="0" cy="0" r="25" fill="#4C8EDA" stroke="#2870c2" stroke-width="2px"/><text text-anchor="middle" pointer-events="none" font-family="sans-serif" dy="1.5625" font-size="25" fill="#FFFFFF"/><text text-anchor="middle" pointer-events="none" y="5" font-size="10px" fill="#FFFFFF" font-family="sans-serif"> 啊哦哦…</text></g><g class="node" transform="translate(200.87452423961764,27.840028256015987)"><circle class="outline" cx="0" cy="0" r="25" fill="#F16667" stroke="#eb2728" stroke-width="2px"/><text text-anchor="middle" pointer-events="none" font-family="sans-serif" dy="1.5625" font-size="25" fill="#FFFFFF"/><text text-anchor="middle" pointer-events="none" y="5" font-size="10px" fill="#FFFFFF" font-family="sans-serif"> 游响云停</text></g><g class="node" transform="translate(366.4749587308387,-76.9785133899291)"><circle class="outline" cx="0" cy="0" r="25" fill="#4C8EDA" stroke="#2870c2" stroke-width="2px"/><text text-anchor="middle" pointer-events="none" font-family="sans-serif" dy="1.5625" font-size="25" fill="#FFFFFF"/><text text-anchor="middle" pointer-events="none" y="5" font-size="10px" fill="#FFFFFF" font-family="sans-serif"> 只是后…</text></g><g class="node" transform="translate(402.3607808052267,52.180911804504774)"><circle class="outline" cx="0" cy="0" r="25" fill="#ECB5C9" stroke="#da7298" stroke-width="2px"/><text text-anchor="middle" pointer-events="none" font-family="sans-serif" dy="1.5625" font-size="25" fill="#604A0E"/><text text-anchor="middle" pointer-events="none" y="5" font-size="10px" fill="#604A0E" font-family="sans-serif"> 小新</text></g><g class="node" transform="translate(-88.85004396367938,359.0060061799853)"><circle class="outline" cx="0" cy="0" r="25" fill="#ECB5C9" stroke="#da7298" stroke-width="2px"/><text text-anchor="middle" pointer-events="none" font-family="sans-serif" dy="1.5625" font-size="25" fill="#604A0E"/><text text-anchor="middle" pointer-events="none" y="5" font-size="10px" fill="#604A0E" font-family="sans-serif"> 情难枕</text></g><g class="node" transform="translate(-34.34848253004937,197.99335619599785)"><circle class="outline" cx="0" cy="0" r="25" fill="#F16667" stroke="#eb2728" stroke-width="2px"/><text text-anchor="middle" pointer-events="none" font-family="sans-serif" dy="1.5625" font-size="25" fill="#FFFFFF"/><text text-anchor="middle" pointer-events="none" y="5" font-size="10px" fill="#FFFFFF" font-family="sans-serif"> 情难枕(c…</text></g><g class="node" transform="translate(241.00401166311977,345.5997221690231)"><circle class="outline" cx="0" cy="0" r="25" fill="#4C8EDA" stroke="#2870c2" stroke-width="2px"/><text text-anchor="middle" pointer-events="none" font-family="sans-serif" dy="1.5625" font-size="25" fill="#FFFFFF"/><text text-anchor="middle" pointer-events="none" y="5" font-size="10px" fill="#FFFFFF" font-family="sans-serif"> 无损人…</text></g><g class="node" transform="translate(135.45640934663786,223.6786197731135)"><circle class="outline" cx="0" cy="0" r="25" fill="#F16667" stroke="#eb2728" stroke-width="2px"/><text text-anchor="middle" pointer-events="none" font-family="sans-serif" dy="1.5625" font-size="25" fill="#FFFFFF"/><text text-anchor="middle" pointer-events="none" y="5" font-size="10px" fill="#FFFFFF" font-family="sans-serif"> 单身情…</text></g><g class="node" transform="translate(300.91398193180225,342.5261154111729)"><circle class="outline" cx="0" cy="0" r="25" fill="#4C8EDA" stroke="#2870c2" stroke-width="2px"/><text text-anchor="middle" pointer-events="none" font-family="sans-serif" dy="1.5625" font-size="25" fill="#FFFFFF"/><text text-anchor="middle" pointer-events="none" y="5" font-size="10px" fill="#FFFFFF" font-family="sans-serif"> 「活着…</text></g><g class="node" transform="translate(247.99894324720097,405.18303251784533)"><circle class="outline" cx="0" cy="0" r="25" fill="#ECB5C9" stroke="#da7298" stroke-width="2px"/><text text-anchor="middle" pointer-events="none" font-family="sans-serif" dy="1.5625" font-size="25" fill="#604A0E"/><text text-anchor="middle" pointer-events="none" y="5" font-size="10px" fill="#604A0E" font-family="sans-serif"> 热门华…</text></g><g class="node" transform="translate(-199.71915906070186,-184.38446198781875)"><circle class="outline" cx="0" cy="0" r="25" fill="#4C8EDA" stroke="#2870c2" stroke-width="2px"/><text text-anchor="middle" pointer-events="none" font-family="sans-serif" dy="1.5625" font-size="25" fill="#FFFFFF"/><text text-anchor="middle" pointer-events="none" y="5" font-size="10px" fill="#FFFFFF" font-family="sans-serif"> ［华语…</text></g><g class="node" transform="translate(-124.51291660965627,-46.48599433448611)"><circle class="outline" cx="0" cy="0" r="25" fill="#F16667" stroke="#eb2728" stroke-width="2px"/><text text-anchor="middle" pointer-events="none" font-family="sans-serif" dy="1.5625" font-size="25" fill="#FFFFFF"/><text text-anchor="middle" pointer-events="none" y="5" font-size="10px" fill="#FFFFFF" font-family="sans-serif"> 有回忆…</text></g><g class="node" transform="translate(-251.84323152285316,-154.67115302268323)"><circle class="outline" cx="0" cy="0" r="25" fill="#4C8EDA" stroke="#2870c2" stroke-width="2px"/><text text-anchor="middle" pointer-events="none" font-family="sans-serif" dy="1.5625" font-size="25" fill="#FFFFFF"/><text text-anchor="middle" pointer-events="none" y="5" font-size="10px" fill="#FFFFFF" font-family="sans-serif"> 你今天…</text></g><g class="node" transform="translate(-311.57321842402445,-159.79976902835236)"><circle class="outline" cx="0" cy="0" r="25" fill="#ECB5C9" stroke="#da7298" stroke-width="2px"/><text text-anchor="middle" pointer-events="none" font-family="sans-serif" dy="1.5625" font-size="25" fill="#604A0E"/><text text-anchor="middle" pointer-events="none" y="5" font-size="10px" fill="#604A0E" font-family="sans-serif"> 有回忆…</text></g><g class="node" transform="translate(-352.7261880376592,-46.47175516129597)"><circle class="outline" cx="0" cy="0" r="25" fill="#4C8EDA" stroke="#2870c2" stroke-width="2px"/><text text-anchor="middle" pointer-events="none" font-family="sans-serif" dy="1.5625" font-size="25" fill="#FFFFFF"/><text text-anchor="middle" pointer-events="none" y="5" font-size="10px" fill="#FFFFFF" font-family="sans-serif"> 希希催…</text></g><g class="node" transform="translate(-161.3966475413376,30.64165901861972)"><circle class="outline" cx="0" cy="0" r="25" fill="#F16667" stroke="#eb2728" stroke-width="2px"/><text text-anchor="middle" pointer-events="none" font-family="sans-serif" dy="1.5625" font-size="25" fill="#FFFFFF"/><text text-anchor="middle" pointer-events="none" y="5" font-size="10px" fill="#FFFFFF" font-family="sans-serif"> 纸短情…</text></g><g class="node" transform="translate(-330.291797763747,20.932576168952703)"><circle class="outline" cx="0" cy="0" r="25" fill="#4C8EDA" stroke="#2870c2" stroke-width="2px"/><text text-anchor="middle" pointer-events="none" font-family="sans-serif" dy="1.5625" font-size="25" fill="#FFFFFF"/><text text-anchor="middle" pointer-events="none" y="5" font-size="10px" fill="#FFFFFF" font-family="sans-serif"> 纯白|适…</text></g><g class="node" transform="translate(-297.52525449985507,-69.91333676902812)"><circle class="outline" cx="0" cy="0" r="25" fill="#ECB5C9" stroke="#da7298" stroke-width="2px"/><text text-anchor="middle" pointer-events="none" font-family="sans-serif" dy="1.5625" font-size="25" fill="#604A0E"/><text text-anchor="middle" pointer-events="none" y="5" font-size="10px" fill="#604A0E" font-family="sans-serif"> 纸短情长</text></g><g class="node" transform="translate(451.54882547829857,140.87573668172928)"><circle class="outline" cx="0" cy="0" r="25" fill="#4C8EDA" stroke="#2870c2" stroke-width="2px"/><text text-anchor="middle" pointer-events="none" font-family="sans-serif" dy="1.5625" font-size="25" fill="#FFFFFF"/><text text-anchor="middle" pointer-events="none" y="5" font-size="10px" fill="#FFFFFF" font-family="sans-serif"> 想去快…</text></g><g class="node" transform="translate(288.59407625809456,82.1253075477522)"><circle class="outline" cx="0" cy="0" r="25" fill="#F16667" stroke="#eb2728" stroke-width="2px"/><text text-anchor="middle" pointer-events="none" font-family="sans-serif" dy="1.5625" font-size="25" fill="#FFFFFF"/><text text-anchor="middle" pointer-events="none" y="5" font-size="10px" fill="#FFFFFF" font-family="sans-serif"> 最爱</text></g><g class="node" transform="translate(465.82944993454055,36.98497019008286)"><circle class="outline" cx="0" cy="0" r="25" fill="#4C8EDA" stroke="#2870c2" stroke-width="2px"/><text text-anchor="middle" pointer-events="none" font-family="sans-serif" dy="1.5625" font-size="25" fill="#FFFFFF"/><text text-anchor="middle" pointer-events="none" y="5" font-size="10px" fill="#FFFFFF" font-family="sans-serif"> 斗鱼266…</text></g><g class="node" transform="translate(-208.75646299102954,407.2243603807945)"><circle class="outline" cx="0" cy="0" r="25" fill="#4C8EDA" stroke="#2870c2" stroke-width="2px"/><text text-anchor="middle" pointer-events="none" font-family="sans-serif" dy="1.5625" font-size="25" fill="#FFFFFF"/><text text-anchor="middle" pointer-events="none" y="5" font-size="10px" fill="#FFFFFF" font-family="sans-serif"> 请饮一…</text></g><g class="node" transform="translate(-112.2372803039951,270.8663471266527)"><circle class="outline" cx="0" cy="0" r="25" fill="#F16667" stroke="#eb2728" stroke-width="2px"/><text text-anchor="middle" pointer-events="none" font-family="sans-serif" dy="1.5625" font-size="25" fill="#FFFFFF"/><text text-anchor="middle" pointer-events="none" y="5" font-size="10px" fill="#FFFFFF" font-family="sans-serif"> 老街（C…</text></g><g class="node" transform="translate(-268.9206570587749,412.4971847637482)"><circle class="outline" cx="0" cy="0" r="25" fill="#4C8EDA" stroke="#2870c2" stroke-width="2px"/><text text-anchor="middle" pointer-events="none" font-family="sans-serif" dy="1.5625" font-size="25" fill="#FFFFFF"/><text text-anchor="middle" pointer-events="none" y="5" font-size="10px" fill="#FFFFFF" font-family="sans-serif"> 翻唱丨…</text></g><g class="node" transform="translate(-211.10441613634453,467.17091627505164)"><circle class="outline" cx="0" cy="0" r="25" fill="#4C8EDA" stroke="#2870c2" stroke-width="2px"/><text text-anchor="middle" pointer-events="none" font-family="sans-serif" dy="1.5625" font-size="25" fill="#FFFFFF"/><text text-anchor="middle" pointer-events="none" y="5" font-size="10px" fill="#FFFFFF" font-family="sans-serif"> 既生厌。</text></g><g class="node" transform="translate(-151.5541091475221,456.8976605832547)"><circle class="outline" cx="0" cy="0" r="25" fill="#ECB5C9" stroke="#da7298" stroke-width="2px"/><text text-anchor="middle" pointer-events="none" font-family="sans-serif" dy="1.5625" font-size="25" fill="#604A0E"/><text text-anchor="middle" pointer-events="none" y="5" font-size="10px" fill="#604A0E" font-family="sans-serif"> 老街</text></g><g class="node" transform="translate(-204.37407730333447,72.5045476135909)"><circle class="outline" cx="0" cy="0" r="25" fill="#F16667" stroke="#eb2728" stroke-width="2px"/><text text-anchor="middle" pointer-events="none" font-family="sans-serif" dy="1.5625" font-size="25" fill="#FFFFFF"/><text text-anchor="middle" pointer-events="none" y="5" font-size="10px" fill="#FFFFFF" font-family="sans-serif"> 风(Demo)</text></g><g class="node" transform="translate(-412.0948013365719,71.32613260724237)"><circle class="outline" cx="0" cy="0" r="25" fill="#4C8EDA" stroke="#2870c2" stroke-width="2px"/><text text-anchor="middle" pointer-events="none" font-family="sans-serif" dy="1.5625" font-size="25" fill="#FFFFFF"/><text text-anchor="middle" pointer-events="none" y="5" font-size="10px" fill="#FFFFFF" font-family="sans-serif"> 经典华…</text></g><g class="node" transform="translate(-414.3847526272501,11.378288528620757)"><circle class="outline" cx="0" cy="0" r="25" fill="#4C8EDA" stroke="#2870c2" stroke-width="2px"/><text text-anchor="middle" pointer-events="none" font-family="sans-serif" dy="1.5625" font-size="25" fill="#FFFFFF"/><text text-anchor="middle" pointer-events="none" y="5" font-size="10px" fill="#FFFFFF" font-family="sans-serif"> 做个有…</text></g><g class="node" transform="translate(-408.98718743903896,131.2320576973598)"><circle class="outline" cx="0" cy="0" r="25" fill="#ECB5C9" stroke="#da7298" stroke-width="2px"/><text text-anchor="middle" pointer-events="none" font-family="sans-serif" dy="1.5625" font-size="25" fill="#604A0E"/><text text-anchor="middle" pointer-events="none" y="5" font-size="10px" fill="#604A0E" font-family="sans-serif"> 刘心原…</text></g><g class="node" transform="translate(-86.03044317734897,-116.78547066235771)"><circle class="outline" cx="0" cy="0" r="25" fill="#F16667" stroke="#eb2728" stroke-width="2px"/><text text-anchor="middle" pointer-events="none" font-family="sans-serif" dy="1.5625" font-size="25" fill="#FFFFFF"/><text text-anchor="middle" pointer-events="none" y="5" font-size="10px" fill="#FFFFFF" font-family="sans-serif"> 疯狂而…</text></g><g class="node" transform="translate(-238.58126626823304,-252.95335897402902)"><circle class="outline" cx="0" cy="0" r="25" fill="#4C8EDA" stroke="#2870c2" stroke-width="2px"/><text text-anchor="middle" pointer-events="none" font-family="sans-serif" dy="1.5625" font-size="25" fill="#FFFFFF"/><text text-anchor="middle" pointer-events="none" y="5" font-size="10px" fill="#FFFFFF" font-family="sans-serif"> 只有巨…</text></g><g class="node" transform="translate(-198.3355092845578,-297.39560477393155)"><circle class="outline" cx="0" cy="0" r="25" fill="#4C8EDA" stroke="#2870c2" stroke-width="2px"/><text text-anchor="middle" pointer-events="none" font-family="sans-serif" dy="1.5625" font-size="25" fill="#FFFFFF"/><text text-anchor="middle" pointer-events="none" y="5" font-size="10px" fill="#FFFFFF" font-family="sans-serif"> 一个巨…</text></g><g class="node" transform="translate(-139.14067858777955,-306.93164344260015)"><circle class="outline" cx="0" cy="0" r="25" fill="#ECB5C9" stroke="#da7298" stroke-width="2px"/><text text-anchor="middle" pointer-events="none" font-family="sans-serif" dy="1.5625" font-size="25" fill="#604A0E"/><text text-anchor="middle" pointer-events="none" y="5" font-size="10px" fill="#604A0E" font-family="sans-serif"> 疯狂而…</text></g><g class="node" transform="translate(-159.20883407358951,189.63759419757622)"><circle class="outline" cx="0" cy="0" r="25" fill="#F16667" stroke="#eb2728" stroke-width="2px"/><text text-anchor="middle" pointer-events="none" font-family="sans-serif" dy="1.5625" font-size="25" fill="#FFFFFF"/><text text-anchor="middle" pointer-events="none" y="5" font-size="10px" fill="#FFFFFF" font-family="sans-serif"> 还是可以</text></g><g class="node" transform="translate(-355.2237932510656,268.1060778396099)"><circle class="outline" cx="0" cy="0" r="25" fill="#4C8EDA" stroke="#2870c2" stroke-width="2px"/><text text-anchor="middle" pointer-events="none" font-family="sans-serif" dy="1.5625" font-size="25" fill="#FFFFFF"/><text text-anchor="middle" pointer-events="none" y="5" font-size="10px" fill="#FFFFFF" font-family="sans-serif"> 明天的…</text></g><g class="node" transform="translate(-316.10375885305433,313.57489475425336)"><circle class="outline" cx="0" cy="0" r="25" fill="#4C8EDA" stroke="#2870c2" stroke-width="2px"/><text text-anchor="middle" pointer-events="none" font-family="sans-serif" dy="1.5625" font-size="25" fill="#FFFFFF"/><text text-anchor="middle" pointer-events="none" y="5" font-size="10px" fill="#FFFFFF" font-family="sans-serif"> 考研备…</text></g><g class="node" transform="translate(-256.2581929731732,317.72070635189397)"><circle class="outline" cx="0" cy="0" r="25" fill="#ECB5C9" stroke="#da7298" stroke-width="2px"/><text text-anchor="middle" pointer-events="none" font-family="sans-serif" dy="1.5625" font-size="25" fill="#604A0E"/><text text-anchor="middle" pointer-events="none" y="5" font-size="10px" fill="#604A0E" font-family="sans-serif"> 还是可以</text></g></g></svg>