<svg xmlns="http://www.w3.org/2000/svg" width="999.2890625" height="1353.378173828125" viewBox="-348.5882568359375 -430.7119140625 999.2890625 1353.378173828125"><title>Neo4j Graph Visualization</title><desc>Created using Neo4j (http://www.neo4j.com/)</desc><g class="layer relationships"><g class="relationship" transform="translate(-293.2946591028412 706.657155821901) rotate(403.7047966775483)"><path class="outline" fill="#FFC454" stroke="none" d="M 25 0.5 L 44.96714231911071 0.5 L 44.96714231911071 -0.5 L 25 -0.5 Z M 66.9671423191107 0.5 L 86.93428463822141 0.5 L 86.93428463822141 3.5 L 93.93428463822141 0 L 86.93428463822141 -3.5 L 86.93428463822141 -0.5 L 66.9671423191107 -0.5 Z"/><text text-anchor="middle" pointer-events="none" font-size="8px" fill="#000000" x="55.96714231911071" y="3" font-family="sans-serif">相似</text></g><g class="relationship" transform="translate(-319.58826759483196 797.4495926202841) rotate(355.61179557643663)"><path class="outline" fill="#A5ABB6" stroke="none" d="M 25 0.5 L 41.80120026341245 0.5 L 41.80120026341245 -0.5 L 25 -0.5 Z M 63.80120026341245 0.5 L 80.6024005268249 0.5 L 80.6024005268249 3.5 L 87.6024005268249 0 L 80.6024005268249 -3.5 L 80.6024005268249 -0.5 L 63.80120026341245 -0.5 Z"/><text text-anchor="middle" pointer-events="none" font-size="8px" fill="#000000" x="52.80120026341245" y="3" font-family="sans-serif">收藏</text></g><g class="relationship" transform="translate(-99.38463032221578 760.7523259399752) rotate(525.4160938973313)"><path class="outline" fill="#A5ABB6" stroke="none" d="M 25 0.5 L 41.26232972069248 0.5 L 41.26232972069248 -0.5 L 25 -0.5 Z M 63.26232972069248 0.5 L 79.52465944138496 0.5 L 79.52465944138496 3.5 L 86.52465944138496 0 L 79.52465944138496 -3.5 L 79.52465944138496 -0.5 L 63.26232972069248 -0.5 Z"/><text text-anchor="middle" pointer-events="none" font-size="8px" fill="#000000" x="52.26232972069248" y="3" transform="rotate(180 52.26232972069248 0)" font-family="sans-serif">收藏</text></g><g class="relationship" transform="translate(-167.90579023601546 893.6662329139945) rotate(249.39697979636924)"><path class="outline" fill="#A5ABB6" stroke="none" d="M 25 0.5 L 41.49769394178595 0.5 L 41.49769394178595 -0.5 L 25 -0.5 Z M 63.49769394178595 0.5 L 79.9953878835719 0.5 L 79.9953878835719 3.5 L 86.9953878835719 0 L 79.9953878835719 -3.5 L 79.9953878835719 -0.5 L 63.49769394178595 -0.5 Z"/><text text-anchor="middle" pointer-events="none" font-size="8px" fill="#000000" x="52.49769394178595" y="3" transform="rotate(180 52.49769394178595 0)" font-family="sans-serif">收录</text></g><g class="relationship" transform="translate(-93.63640017097785 843.7580273761771) rotate(205.78742486534247)"><path class="outline" fill="#A5ABB6" stroke="none" d="M 25 0.5 L 48.6262527522101 0.5 L 48.6262527522101 -0.5 L 25 -0.5 Z M 70.62625275221009 0.5 L 94.2525055044202 0.5 L 94.2525055044202 3.5 L 101.2525055044202 0 L 94.2525055044202 -3.5 L 94.2525055044202 -0.5 L 70.62625275221009 -0.5 Z"/><text text-anchor="middle" pointer-events="none" font-size="8px" fill="#000000" x="59.6262527522101" y="3" transform="rotate(180 59.6262527522101 0)" font-family="sans-serif">演唱</text></g><g class="relationship" transform="translate(11.337332959102794 196.6399149625742) rotate(290.92424594942815)"><path class="outline" fill="#FFC454" stroke="none" d="M 25 0.5 L 45.206458989511795 0.5 L 45.206458989511795 -0.5 L 25 -0.5 Z M 67.20645898951179 0.5 L 87.41291797902359 0.5 L 87.41291797902359 3.5 L 94.41291797902359 0 L 87.41291797902359 -3.5 L 87.41291797902359 -0.5 L 67.20645898951179 -0.5 Z"/><text text-anchor="middle" pointer-events="none" font-size="8px" fill="#000000" x="56.206458989511795" y="3" font-family="sans-serif">相似</text></g><g class="relationship" transform="translate(173.88085818585125 -0.9535156575169208) rotate(504.33136655606353)"><path class="outline" fill="#FFC454" stroke="none" d="M 25 0.5 L 59.29171186982278 0.5 L 59.29171186982278 -0.5 L 25 -0.5 Z M 81.29171186982278 0.5 L 115.58342373964555 0.5 L 115.58342373964555 3.5 L 122.58342373964555 0 L 115.58342373964555 -3.5 L 115.58342373964555 -0.5 L 81.29171186982278 -0.5 Z"/><text text-anchor="middle" pointer-events="none" font-size="8px" fill="#000000" x="70.29171186982278" y="3" transform="rotate(180 70.29171186982278 0)" font-family="sans-serif">相似</text></g><g class="relationship" transform="translate(233.82923548337521 -2.5497726292673595) rotate(514.0167064258742)"><path class="outline" fill="#FFC454" stroke="none" d="M 25 0.5 L 85.53404503976196 0.5 L 85.53404503976196 -0.5 L 25 -0.5 Z M 107.53404503976196 0.5 L 168.06809007952393 0.5 L 168.06809007952393 3.5 L 175.06809007952393 0 L 168.06809007952393 -3.5 L 168.06809007952393 -0.5 L 107.53404503976196 -0.5 Z"/><text text-anchor="middle" pointer-events="none" font-size="8px" fill="#000000" x="96.53404503976196" y="3" transform="rotate(180 96.53404503976196 0)" font-family="sans-serif">相似</text></g><g class="relationship" transform="translate(-167.79564279893134 102.52228925559785) rotate(355.50872722521626)"><path class="outline" fill="#A5ABB6" stroke="none" d="M 25 0.5 L 96.7312130763191 0.5 L 96.7312130763191 -0.5 L 25 -0.5 Z M 118.7312130763191 0.5 L 190.4624261526382 0.5 L 190.4624261526382 3.5 L 197.4624261526382 0 L 190.4624261526382 -3.5 L 190.4624261526382 -0.5 L 118.7312130763191 -0.5 Z"/><text text-anchor="middle" pointer-events="none" font-size="8px" fill="#000000" x="107.7312130763191" y="3" font-family="sans-serif">收藏</text></g><g class="relationship" transform="translate(-57.937389562478735 82.58730070307723) rotate(361.28706743215935)"><path class="outline" fill="#A5ABB6" stroke="none" d="M 25 0.5 L 41.47464790289067 0.5 L 41.47464790289067 -0.5 L 25 -0.5 Z M 63.47464790289067 0.5 L 79.94929580578135 0.5 L 79.94929580578135 3.5 L 86.94929580578135 0 L 79.94929580578135 -3.5 L 79.94929580578135 -0.5 L 63.47464790289067 -0.5 Z"/><text text-anchor="middle" pointer-events="none" font-size="8px" fill="#000000" x="52.47464790289067" y="3" font-family="sans-serif">收藏</text></g><g class="relationship" transform="translate(-134.63715167029218 152.51321712756672) rotate(340.3335767380747)"><path class="outline" fill="#A5ABB6" stroke="none" d="M 25 0.5 L 85.65251012386713 0.5 L 85.65251012386713 -0.5 L 25 -0.5 Z M 107.65251012386713 0.5 L 168.30502024773426 0.5 L 168.30502024773426 3.5 L 175.30502024773426 0 L 168.30502024773426 -3.5 L 168.30502024773426 -0.5 L 107.65251012386713 -0.5 Z"/><text text-anchor="middle" pointer-events="none" font-size="8px" fill="#000000" x="96.65251012386713" y="3" font-family="sans-serif">收藏</text></g><g class="relationship" transform="translate(-166.54255073315744 42.55341636244486) rotate(370.92049094220135)"><path class="outline" fill="#A5ABB6" stroke="none" d="M 25 0.5 L 97.79668444131977 0.5 L 97.79668444131977 -0.5 L 25 -0.5 Z M 119.79668444131977 0.5 L 192.59336888263954 0.5 L 192.59336888263954 3.5 L 199.59336888263954 0 L 192.59336888263954 -3.5 L 192.59336888263954 -0.5 L 119.79668444131977 -0.5 Z"/><text text-anchor="middle" pointer-events="none" font-size="8px" fill="#000000" x="108.79668444131977" y="3" font-family="sans-serif">收录</text></g><g class="relationship" transform="translate(212.74995898168984 120.23511010843018) rotate(192.47784609819462)"><path class="outline" fill="#A5ABB6" stroke="none" d="M 25 0.5 L 66.80356952274849 0.5 L 66.80356952274849 -0.5 L 25 -0.5 Z M 88.80356952274849 0.5 L 130.60713904549698 0.5 L 130.60713904549698 3.5 L 137.60713904549698 0 L 130.60713904549698 -3.5 L 130.60713904549698 -0.5 L 88.80356952274849 -0.5 Z"/><text text-anchor="middle" pointer-events="none" font-size="8px" fill="#000000" x="77.80356952274849" y="3" transform="rotate(180 77.80356952274849 0)" font-family="sans-serif">演唱</text></g><g class="relationship" transform="translate(173.88085818585125 -0.9535156575169208) rotate(188.4301999577409)"><path class="outline" fill="#FFC454" stroke="none" d="M 25 0.5 L 36.719893310448356 0.5 L 36.719893310448356 -0.5 L 25 -0.5 Z M 58.719893310448356 0.5 L 70.43978662089671 0.5 L 70.43978662089671 3.5 L 77.43978662089671 0 L 70.43978662089671 -3.5 L 70.43978662089671 -0.5 L 58.719893310448356 -0.5 Z"/><text text-anchor="middle" pointer-events="none" font-size="8px" fill="#000000" x="47.719893310448356" y="3" transform="rotate(180 47.719893310448356 0)" font-family="sans-serif">相似</text></g><g class="relationship" transform="translate(233.82923548337521 -2.5497726292673595) rotate(184.7572067231519)"><path class="outline" fill="#FFC454" stroke="none" d="M 25 0.5 L 66.41942211745015 0.5 L 66.41942211745015 -0.5 L 25 -0.5 Z M 88.41942211745015 0.5 L 129.8388442349003 0.5 L 129.8388442349003 3.5 L 136.8388442349003 0 L 129.8388442349003 -3.5 L 129.8388442349003 -0.5 L 88.41942211745015 -0.5 Z"/><text text-anchor="middle" pointer-events="none" font-size="8px" fill="#000000" x="77.41942211745015" y="3" transform="rotate(180 77.41942211745015 0)" font-family="sans-serif">相似</text></g><g class="relationship" transform="translate(204.1868815671911 -62.83060303441736) rotate(520.406013910393)"><path class="outline" fill="#FFC454" stroke="none" d="M 25 0.5 L 55.365191725500594 0.5 L 55.365191725500594 -0.5 L 25 -0.5 Z M 77.3651917255006 0.5 L 107.73038345100119 0.5 L 107.73038345100119 3.5 L 114.73038345100119 0 L 107.73038345100119 -3.5 L 107.73038345100119 -0.5 L 77.3651917255006 -0.5 Z"/><text text-anchor="middle" pointer-events="none" font-size="8px" fill="#000000" x="66.3651917255006" y="3" transform="rotate(180 66.3651917255006 0)" font-family="sans-serif">相似</text></g><g class="relationship" transform="translate(-57.937389562478735 82.58730070307723) rotate(322.93529978437135)"><path class="outline" fill="#A5ABB6" stroke="none" d="M 25 0.5 L 67.26227696462516 0.5 L 67.26227696462516 -0.5 L 25 -0.5 Z M 89.26227696462516 0.5 L 131.52455392925032 0.5 L 131.52455392925032 3.5 L 138.52455392925032 0 L 131.52455392925032 -3.5 L 131.52455392925032 -0.5 L 89.26227696462516 -0.5 Z"/><text text-anchor="middle" pointer-events="none" font-size="8px" fill="#000000" x="78.26227696462516" y="3" font-family="sans-serif">收藏</text></g><g class="relationship" transform="translate(-43.98905238417614 -170.58940134268735) rotate(412.9942977073545)"><path class="outline" fill="#A5ABB6" stroke="none" d="M 25 0.5 L 82.3084647909965 0.5 L 82.3084647909965 -0.5 L 25 -0.5 Z M 104.3084647909965 0.5 L 161.616929581993 0.5 L 161.616929581993 3.5 L 168.616929581993 0 L 161.616929581993 -3.5 L 161.616929581993 -0.5 L 104.3084647909965 -0.5 Z"/><text text-anchor="middle" pointer-events="none" font-size="8px" fill="#000000" x="93.3084647909965" y="3" font-family="sans-serif">收藏</text></g><g class="relationship" transform="translate(-97.86861375100665 -144.2244723872796) rotate(396.96455024733046)"><path class="outline" fill="#A5ABB6" stroke="none" d="M 25 0.5 L 92.14260501444151 0.5 L 92.14260501444151 -0.5 L 25 -0.5 Z M 114.14260501444151 0.5 L 181.28521002888303 0.5 L 181.28521002888303 3.5 L 188.28521002888303 0 L 181.28521002888303 -3.5 L 181.28521002888303 -0.5 L 114.14260501444151 -0.5 Z"/><text text-anchor="middle" pointer-events="none" font-size="8px" fill="#000000" x="103.14260501444151" y="3" font-family="sans-serif">收藏</text></g><g class="relationship" transform="translate(-134.60957252543366 -96.7941074851302) rotate(381.31323600044277)"><path class="outline" fill="#A5ABB6" stroke="none" d="M 25 0.5 L 96.68283885335028 0.5 L 96.68283885335028 -0.5 L 25 -0.5 Z M 118.68283885335028 0.5 L 190.36567770670055 0.5 L 190.36567770670055 3.5 L 197.36567770670055 0 L 190.36567770670055 -3.5 L 190.36567770670055 -0.5 L 118.68283885335028 -0.5 Z"/><text text-anchor="middle" pointer-events="none" font-size="8px" fill="#000000" x="107.68283885335028" y="3" font-family="sans-serif">收录</text></g><g class="relationship" transform="translate(212.74995898168984 120.23511010843018) rotate(224.1718880278088)"><path class="outline" fill="#A5ABB6" stroke="none" d="M 25 0.5 L 83.23547632991524 0.5 L 83.23547632991524 -0.5 L 25 -0.5 Z M 105.23547632991524 0.5 L 163.4709526598305 0.5 L 163.4709526598305 3.5 L 170.4709526598305 0 L 163.4709526598305 -3.5 L 163.4709526598305 -0.5 L 105.23547632991524 -0.5 Z"/><text text-anchor="middle" pointer-events="none" font-size="8px" fill="#000000" x="94.23547632991524" y="3" transform="rotate(180 94.23547632991524 0)" font-family="sans-serif">演唱</text></g><g class="relationship" transform="translate(204.1868815671911 -62.83060303441736) rotate(309.5044615233358)"><path class="outline" fill="#FFC454" stroke="none" d="M 25 0.5 L 48.02932923731278 0.5 L 48.02932923731278 -0.5 L 25 -0.5 Z M 70.02932923731278 0.5 L 93.05865847462556 0.5 L 93.05865847462556 3.5 L 100.05865847462556 0 L 93.05865847462556 -3.5 L 93.05865847462556 -0.5 L 70.02932923731278 -0.5 Z"/><text text-anchor="middle" pointer-events="none" font-size="8px" fill="#000000" x="59.02932923731278" y="3" font-family="sans-serif">相似</text></g><g class="relationship" transform="translate(233.82923548337521 -2.5497726292673595) rotate(287.66005986540483)"><path class="outline" fill="#FFC454" stroke="none" d="M 25 0.5 L 67.76329235884137 0.5 L 67.76329235884137 -0.5 L 25 -0.5 Z M 89.76329235884137 0.5 L 132.52658471768274 0.5 L 132.52658471768274 3.5 L 139.52658471768274 0 L 132.52658471768274 -3.5 L 132.52658471768274 -0.5 L 89.76329235884137 -0.5 Z"/><text text-anchor="middle" pointer-events="none" font-size="8px" fill="#000000" x="78.76329235884137" y="3" font-family="sans-serif">相似</text></g><g class="relationship" transform="translate(173.88085818585125 -0.9535156575169208) rotate(304.74901896824696)"><path class="outline" fill="#FFC454" stroke="none" d="M 25 0.5 L 81.8718963333375 0.5 L 81.8718963333375 -0.5 L 25 -0.5 Z M 103.8718963333375 0.5 L 160.743792666675 0.5 L 160.743792666675 3.5 L 167.743792666675 0 L 160.743792666675 -3.5 L 160.743792666675 -0.5 L 103.8718963333375 -0.5 Z"/><text text-anchor="middle" pointer-events="none" font-size="8px" fill="#000000" x="92.8718963333375" y="3" font-family="sans-serif">相似</text></g><g class="relationship" transform="translate(166.01681077277584 -171.9697004669038) rotate(366.131669785522)"><path class="outline" fill="#A5ABB6" stroke="none" d="M 25 0.5 L 44.70102256967477 0.5 L 44.70102256967477 -0.5 L 25 -0.5 Z M 66.70102256967476 0.5 L 86.40204513934954 0.5 L 86.40204513934954 3.5 L 93.40204513934954 0 L 86.40204513934954 -3.5 L 86.40204513934954 -0.5 L 66.70102256967476 -0.5 Z"/><text text-anchor="middle" pointer-events="none" font-size="8px" fill="#000000" x="55.70102256967477" y="3" font-family="sans-serif">收藏</text></g><g class="relationship" transform="translate(444.7550454612539 -242.41016854522996) rotate(512.7050218221684)"><path class="outline" fill="#A5ABB6" stroke="none" d="M 25 0.5 L 76.093718047327 0.5 L 76.093718047327 -0.5 L 25 -0.5 Z M 98.093718047327 0.5 L 149.187436094654 0.5 L 149.187436094654 3.5 L 156.187436094654 0 L 149.187436094654 -3.5 L 149.187436094654 -0.5 L 98.093718047327 -0.5 Z"/><text text-anchor="middle" pointer-events="none" font-size="8px" fill="#000000" x="87.093718047327" y="3" transform="rotate(180 87.093718047327 0)" font-family="sans-serif">收藏</text></g><g class="relationship" transform="translate(412.69491543253037 -293.1140740757351) rotate(493.9451363835887)"><path class="outline" fill="#A5ABB6" stroke="none" d="M 25 0.5 L 78.41004713537879 0.5 L 78.41004713537879 -0.5 L 25 -0.5 Z M 100.41004713537879 0.5 L 153.82009427075758 0.5 L 153.82009427075758 3.5 L 160.82009427075758 0 L 153.82009427075758 -3.5 L 153.82009427075758 -0.5 L 100.41004713537879 -0.5 Z"/><text text-anchor="middle" pointer-events="none" font-size="8px" fill="#000000" x="89.41004713537879" y="3" transform="rotate(180 89.41004713537879 0)" font-family="sans-serif">收藏</text></g><g class="relationship" transform="translate(361.7917902881637 -324.80423700614654) rotate(475.2511801875053)"><path class="outline" fill="#A5ABB6" stroke="none" d="M 25 0.5 L 76.98220434325162 0.5 L 76.98220434325162 -0.5 L 25 -0.5 Z M 98.98220434325162 0.5 L 150.96440868650325 0.5 L 150.96440868650325 3.5 L 157.96440868650325 0 L 150.96440868650325 -3.5 L 150.96440868650325 -0.5 L 98.98220434325162 -0.5 Z"/><text text-anchor="middle" pointer-events="none" font-size="8px" fill="#000000" x="87.98220434325162" y="3" transform="rotate(180 87.98220434325162 0)" font-family="sans-serif">收录</text></g><g class="relationship" transform="translate(303.75790488607885 -340.0332853833026) rotate(456.3206075685243)"><path class="outline" fill="#A5ABB6" stroke="none" d="M 25 0.5 L 76.40786122688577 0.5 L 76.40786122688577 -0.5 L 25 -0.5 Z M 98.40786122688577 0.5 L 149.81572245377154 0.5 L 149.81572245377154 3.5 L 156.81572245377154 0 L 149.81572245377154 -3.5 L 149.81572245377154 -0.5 L 98.40786122688577 -0.5 Z"/><text text-anchor="middle" pointer-events="none" font-size="8px" fill="#000000" x="87.40786122688577" y="3" transform="rotate(180 87.40786122688577 0)" font-family="sans-serif">演唱</text></g><g class="relationship" transform="translate(592.6471345797369 335.2890740819527) rotate(214.9202109254972)"><path class="outline" fill="#A5ABB6" stroke="none" d="M 25 0.5 L 72.0748410909146 0.5 L 72.0748410909146 -0.5 L 25 -0.5 Z M 94.0748410909146 0.5 L 141.1496821818292 0.5 L 141.1496821818292 3.5 L 148.1496821818292 0 L 141.1496821818292 -3.5 L 141.1496821818292 -0.5 L 94.0748410909146 -0.5 Z"/><text text-anchor="middle" pointer-events="none" font-size="8px" fill="#000000" x="83.0748410909146" y="3" transform="rotate(180 83.0748410909146 0)" font-family="sans-serif">收藏</text></g><g class="relationship" transform="translate(546.6484693432232 378.486952882051) rotate(236.00474746867746)"><path class="outline" fill="#A5ABB6" stroke="none" d="M 25 0.5 L 71.32656195142498 0.5 L 71.32656195142498 -0.5 L 25 -0.5 Z M 93.32656195142498 0.5 L 139.65312390284996 0.5 L 139.65312390284996 3.5 L 146.65312390284996 0 L 139.65312390284996 -3.5 L 139.65312390284996 -0.5 L 93.32656195142498 -0.5 Z"/><text text-anchor="middle" pointer-events="none" font-size="8px" fill="#000000" x="82.32656195142498" y="3" transform="rotate(180 82.32656195142498 0)" font-family="sans-serif">收藏</text></g><g class="relationship" transform="translate(617.5831618964902 280.0144785760526) rotate(194.71744457336138)"><path class="outline" fill="#A5ABB6" stroke="none" d="M 25 0.5 L 71.7860618632791 0.5 L 71.7860618632791 -0.5 L 25 -0.5 Z M 93.7860618632791 0.5 L 140.5721237265582 0.5 L 140.5721237265582 3.5 L 147.5721237265582 0 L 140.5721237265582 -3.5 L 140.5721237265582 -0.5 L 93.7860618632791 -0.5 Z"/><text text-anchor="middle" pointer-events="none" font-size="8px" fill="#000000" x="82.7860618632791" y="3" transform="rotate(180 82.7860618632791 0)" font-family="sans-serif">收藏</text></g><g class="relationship" transform="translate(621.7007872252143 216.7761746296982) rotate(533.5298365565919)"><path class="outline" fill="#A5ABB6" stroke="none" d="M 25 0.5 L 71.56202479051595 0.5 L 71.56202479051595 -0.5 L 25 -0.5 Z M 93.56202479051595 0.5 L 140.1240495810319 0.5 L 140.1240495810319 3.5 L 147.1240495810319 0 L 140.1240495810319 -3.5 L 140.1240495810319 -0.5 L 93.56202479051595 -0.5 Z"/><text text-anchor="middle" pointer-events="none" font-size="8px" fill="#000000" x="82.56202479051595" y="3" transform="rotate(180 82.56202479051595 0)" font-family="sans-serif">收录</text></g><g class="relationship" transform="translate(212.74995898168984 120.23511010843018) rotate(385.97940532656975)"><path class="outline" fill="#A5ABB6" stroke="none" d="M 25 0.5 L 117.83365641342925 0.5 L 117.83365641342925 -0.5 L 25 -0.5 Z M 139.83365641342925 0.5 L 232.6673128268585 0.5 L 232.6673128268585 3.5 L 239.6673128268585 0 L 232.6673128268585 -3.5 L 232.6673128268585 -0.5 L 139.83365641342925 -0.5 Z"/><text text-anchor="middle" pointer-events="none" font-size="8px" fill="#000000" x="128.83365641342925" y="3" font-family="sans-serif">演唱</text></g><g class="relationship" transform="translate(173.88085818585125 -0.9535156575169208) rotate(468.0247627422103)"><path class="outline" fill="#FFC454" stroke="none" d="M 25 0.5 L 50.11642077450425 0.5 L 50.11642077450425 -0.5 L 25 -0.5 Z M 72.11642077450425 0.5 L 97.2328415490085 0.5 L 97.2328415490085 3.5 L 104.2328415490085 0 L 97.2328415490085 -3.5 L 97.2328415490085 -0.5 L 72.11642077450425 -0.5 Z"/><text text-anchor="middle" pointer-events="none" font-size="8px" fill="#000000" x="61.11642077450425" y="3" transform="rotate(180 61.11642077450425 0)" font-family="sans-serif">相似</text></g><g class="relationship" transform="translate(36.44433518321148 280.3884462385133) rotate(301.5916710709538)"><path class="outline" fill="#A5ABB6" stroke="none" d="M 25 0.5 L 78.50946296004881 0.5 L 78.50946296004881 -0.5 L 25 -0.5 Z M 100.50946296004881 0.5 L 154.01892592009762 0.5 L 154.01892592009762 3.5 L 161.01892592009762 0 L 154.01892592009762 -3.5 L 154.01892592009762 -0.5 L 100.50946296004881 -0.5 Z"/><text text-anchor="middle" pointer-events="none" font-size="8px" fill="#000000" x="89.50946296004881" y="3" font-family="sans-serif">收藏</text></g><g class="relationship" transform="translate(99.50732500604359 298.2375240458441) rotate(281.03629441191754)"><path class="outline" fill="#A5ABB6" stroke="none" d="M 25 0.5 L 75.31124602281781 0.5 L 75.31124602281781 -0.5 L 25 -0.5 Z M 97.31124602281781 0.5 L 147.62249204563562 0.5 L 147.62249204563562 3.5 L 154.62249204563562 0 L 147.62249204563562 -3.5 L 147.62249204563562 -0.5 L 97.31124602281781 -0.5 Z"/><text text-anchor="middle" pointer-events="none" font-size="8px" fill="#000000" x="86.31124602281781" y="3" font-family="sans-serif">收藏</text></g><g class="relationship" transform="translate(-46.501368984462026 180.86199759544803) rotate(341.91055745952985)"><path class="outline" fill="#A5ABB6" stroke="none" d="M 25 0.5 L 80.38696516541532 0.5 L 80.38696516541532 -0.5 L 25 -0.5 Z M 102.38696516541532 0.5 L 157.77393033083064 0.5 L 157.77393033083064 3.5 L 164.77393033083064 0 L 157.77393033083064 -3.5 L 157.77393033083064 -0.5 L 102.38696516541532 -0.5 Z"/><text text-anchor="middle" pointer-events="none" font-size="8px" fill="#000000" x="91.38696516541532" y="3" font-family="sans-serif">收藏</text></g><g class="relationship" transform="translate(-18.207997893700096 250.8238642067398) rotate(319.7227449418982)"><path class="outline" fill="#A5ABB6" stroke="none" d="M 25 0.5 L 85.18253118864544 0.5 L 85.18253118864544 -0.5 L 25 -0.5 Z M 107.18253118864544 0.5 L 167.36506237729088 0.5 L 167.36506237729088 3.5 L 174.36506237729088 0 L 167.36506237729088 -3.5 L 167.36506237729088 -0.5 L 107.18253118864544 -0.5 Z"/><text text-anchor="middle" pointer-events="none" font-size="8px" fill="#000000" x="96.18253118864544" y="3" font-family="sans-serif">收录</text></g><g class="relationship" transform="translate(212.74995898168984 120.23511010843018) rotate(538.7636782577023)"><path class="outline" fill="#A5ABB6" stroke="none" d="M 25 0.5 L 35.93786137836843 0.5 L 35.93786137836843 -0.5 L 25 -0.5 Z M 35.93786137836843 0.5 L 46.87572275673686 0.5 L 46.87572275673686 3.5 L 53.87572275673686 0 L 46.87572275673686 -3.5 L 46.87572275673686 -0.5 L 35.93786137836843 -0.5 Z"/><text text-anchor="middle" pointer-events="none" font-size="8px" fill="#000000" x="35.93786137836843" y="3" transform="rotate(180 35.93786137836843 0)" font-family="sans-serif"/></g><g class="relationship" transform="translate(204.1868815671911 -62.83060303441736) rotate(476.09458664436454)"><path class="outline" fill="#FFC454" stroke="none" d="M 25 0.5 L 30.950068923874774 0.5 L 30.950068923874774 -0.5 L 25 -0.5 Z M 30.950068923874774 0.5 L 36.90013784774955 0.5 L 36.90013784774955 3.5 L 43.90013784774955 0 L 36.90013784774955 -3.5 L 36.90013784774955 -0.5 L 30.950068923874774 -0.5 Z"/><text text-anchor="middle" pointer-events="none" font-size="8px" fill="#000000" x="30.950068923874774" y="3" transform="rotate(180 30.950068923874774 0)" font-family="sans-serif"/></g><g class="relationship" transform="translate(69.4925586729323 -134.90403449686073) rotate(412.0705378930656)"><path class="outline" fill="#A5ABB6" stroke="none" d="M 25 0.5 L 70.41121623868115 0.5 L 70.41121623868115 -0.5 L 25 -0.5 Z M 92.41121623868115 0.5 L 137.8224324773623 0.5 L 137.8224324773623 3.5 L 144.8224324773623 0 L 137.8224324773623 -3.5 L 137.8224324773623 -0.5 L 92.41121623868115 -0.5 Z"/><text text-anchor="middle" pointer-events="none" font-size="8px" fill="#000000" x="81.41121623868115" y="3" font-family="sans-serif">收藏</text></g><g class="relationship" transform="translate(166.01681077277584 -171.9697004669038) rotate(447.3671524681428)"><path class="outline" fill="#A5ABB6" stroke="none" d="M 25 0.5 L 71.09845020278325 0.5 L 71.09845020278325 -0.5 L 25 -0.5 Z M 93.09845020278325 0.5 L 139.1969004055665 0.5 L 139.1969004055665 3.5 L 146.1969004055665 0 L 139.1969004055665 -3.5 L 139.1969004055665 -0.5 L 93.09845020278325 -0.5 Z"/><text text-anchor="middle" pointer-events="none" font-size="8px" fill="#000000" x="82.09845020278325" y="3" font-family="sans-serif">收藏</text></g><g class="relationship" transform="translate(174.25321892368325 166.1756780480661) rotate(269.8723462791861)"><path class="outline" fill="#A5ABB6" stroke="none" d="M 25 0.5 L 69.06480425573521 0.5 L 69.06480425573521 -0.5 L 25 -0.5 Z M 91.06480425573521 0.5 L 135.12960851147042 0.5 L 135.12960851147042 3.5 L 142.12960851147042 0 L 135.12960851147042 -3.5 L 135.12960851147042 -0.5 L 91.06480425573521 -0.5 Z"/><text text-anchor="middle" pointer-events="none" font-size="8px" fill="#000000" x="80.06480425573521" y="3" transform="rotate(180 80.06480425573521 0)" font-family="sans-serif">收藏</text></g><g class="relationship" transform="translate(222.07990051537794 -150.81092171415042) rotate(467.8294888557285)"><path class="outline" fill="#A5ABB6" stroke="none" d="M 25 0.5 L 64.20894140996027 0.5 L 64.20894140996027 -0.5 L 25 -0.5 Z M 86.20894140996027 0.5 L 125.41788281992055 0.5 L 125.41788281992055 3.5 L 132.41788281992055 0 L 125.41788281992055 -3.5 L 125.41788281992055 -0.5 L 86.20894140996027 -0.5 Z"/><text text-anchor="middle" pointer-events="none" font-size="8px" fill="#000000" x="75.20894140996027" y="3" transform="rotate(180 75.20894140996027 0)" font-family="sans-serif">收录</text></g><g class="relationship" transform="translate(306.44639610124773 -103.79830874180496) rotate(502.19556899647785)"><path class="outline" fill="#A5ABB6" stroke="none" d="M 25 0.5 L 69.39081193335245 0.5 L 69.39081193335245 -0.5 L 25 -0.5 Z M 91.39081193335245 0.5 L 135.7816238667049 0.5 L 135.7816238667049 3.5 L 142.7816238667049 0 L 135.7816238667049 -3.5 L 135.7816238667049 -0.5 L 91.39081193335245 -0.5 Z"/><text text-anchor="middle" pointer-events="none" font-size="8px" fill="#000000" x="80.39081193335245" y="3" transform="rotate(180 80.39081193335245 0)" font-family="sans-serif">演唱</text></g><g class="relationship" transform="translate(204.1868815671911 -62.83060303441736) rotate(493.1298455023203)"><path class="outline" fill="#FFC454" stroke="none" d="M 25 0.5 L 61.193752590235704 0.5 L 61.193752590235704 -0.5 L 25 -0.5 Z M 83.1937525902357 0.5 L 119.38750518047141 0.5 L 119.38750518047141 3.5 L 126.38750518047141 0 L 119.38750518047141 -3.5 L 119.38750518047141 -0.5 L 83.1937525902357 -0.5 Z"/><text text-anchor="middle" pointer-events="none" font-size="8px" fill="#000000" x="72.1937525902357" y="3" transform="rotate(180 72.1937525902357 0)" font-family="sans-serif">相似</text></g><g class="relationship" transform="translate(229.50124767598635 220.4608807271544) rotate(233.299152095664)"><path class="outline" fill="#FFC454" stroke="none" d="M 25 0.5 L 93.26695603771255 0.5 L 93.26695603771255 -0.5 L 25 -0.5 Z M 115.26695603771255 0.5 L 183.5339120754251 0.5 L 183.5339120754251 3.5 L 190.5339120754251 0 L 183.5339120754251 -3.5 L 183.5339120754251 -0.5 L 115.26695603771255 -0.5 Z"/><text text-anchor="middle" pointer-events="none" font-size="8px" fill="#000000" x="104.26695603771255" y="3" transform="rotate(180 104.26695603771255 0)" font-family="sans-serif">相似</text></g><g class="relationship" transform="translate(133.89259798274338 121.9369493133655) rotate(245.9169998982593)"><path class="outline" fill="#FFC454" stroke="none" d="M 25 0.5 L 26.18326475403299 0.5 L 26.18326475403299 -0.5 L 25 -0.5 Z M 48.18326475403299 0.5 L 49.36652950806598 0.5 L 49.36652950806598 3.5 L 56.36652950806598 0 L 49.36652950806598 -3.5 L 49.36652950806598 -0.5 L 48.18326475403299 -0.5 Z"/><text text-anchor="middle" pointer-events="none" font-size="8px" fill="#000000" x="37.18326475403299" y="3" transform="rotate(180 37.18326475403299 0)" font-family="sans-serif">相似</text></g><g class="relationship" transform="translate(173.88085818585125 -0.9535156575169208) rotate(506.41156547982723)"><path class="outline" fill="#FFC454" stroke="none" d="M 25 0.5 L 29.430228443972915 0.5 L 29.430228443972915 -0.5 L 25 -0.5 Z M 51.430228443972915 0.5 L 55.86045688794583 0.5 L 55.86045688794583 3.5 L 62.86045688794583 0 L 55.86045688794583 -3.5 L 55.86045688794583 -0.5 L 51.430228443972915 -0.5 Z"/><text text-anchor="middle" pointer-events="none" font-size="8px" fill="#000000" x="40.430228443972915" y="3" transform="rotate(180 40.430228443972915 0)" font-family="sans-serif">相似</text></g><g class="relationship" transform="translate(172.4302408864292 75.9503210005141) rotate(201.5264220854919)"><path class="outline" fill="#A5ABB6" stroke="none" d="M 25 0.5 L 35.05961059109869 0.5 L 35.05961059109869 -0.5 L 25 -0.5 Z M 35.05961059109869 0.5 L 45.11922118219738 0.5 L 45.11922118219738 3.5 L 52.11922118219738 0 L 45.11922118219738 -3.5 L 45.11922118219738 -0.5 L 35.05961059109869 -0.5 Z"/><text text-anchor="middle" pointer-events="none" font-size="8px" fill="#000000" x="35.05961059109869" y="3" transform="rotate(180 35.05961059109869 0)" font-family="sans-serif"/></g><g class="relationship" transform="translate(-86.64928193563507 -29.93670635752969) rotate(382.4976755878717)"><path class="outline" fill="#A5ABB6" stroke="none" d="M 25 0.5 L 86.88569582127016 0.5 L 86.88569582127016 -0.5 L 25 -0.5 Z M 108.88569582127016 0.5 L 170.77139164254032 0.5 L 170.77139164254032 3.5 L 177.77139164254032 0 L 170.77139164254032 -3.5 L 170.77139164254032 -0.5 L 108.88569582127016 -0.5 Z"/><text text-anchor="middle" pointer-events="none" font-size="8px" fill="#000000" x="97.88569582127016" y="3" font-family="sans-serif">收藏</text></g><g class="relationship" transform="translate(-34.49280158016274 -59.595684876374854) rotate(398.427036305377)"><path class="outline" fill="#A5ABB6" stroke="none" d="M 25 0.5 L 71.7796527081678 0.5 L 71.7796527081678 -0.5 L 25 -0.5 Z M 93.7796527081678 0.5 L 140.5593054163356 0.5 L 140.5593054163356 3.5 L 147.5593054163356 0 L 140.5593054163356 -3.5 L 140.5593054163356 -0.5 L 93.7796527081678 -0.5 Z"/><text text-anchor="middle" pointer-events="none" font-size="8px" fill="#000000" x="82.7796527081678" y="3" font-family="sans-serif">收藏</text></g><g class="relationship" transform="translate(-86.8952987235694 30.009102936062508) rotate(365.37329534913715)"><path class="outline" fill="#A5ABB6" stroke="none" d="M 25 0.5 L 79.7067224074221 0.5 L 79.7067224074221 -0.5 L 25 -0.5 Z M 101.7067224074221 0.5 L 156.4134448148442 0.5 L 156.4134448148442 3.5 L 163.4134448148442 0 L 156.4134448148442 -3.5 L 156.4134448148442 -0.5 L 101.7067224074221 -0.5 Z"/><text text-anchor="middle" pointer-events="none" font-size="8px" fill="#000000" x="90.7067224074221" y="3" font-family="sans-serif">收录</text></g><g class="relationship" transform="translate(212.74995898168984 120.23511010843018) rotate(212.93151253788426)"><path class="outline" fill="#A5ABB6" stroke="none" d="M 25 0.5 L 52.25619666406682 0.5 L 52.25619666406682 -0.5 L 25 -0.5 Z M 74.25619666406682 0.5 L 101.51239332813364 0.5 L 101.51239332813364 3.5 L 108.51239332813364 0 L 101.51239332813364 -3.5 L 101.51239332813364 -0.5 L 74.25619666406682 -0.5 Z"/><text text-anchor="middle" pointer-events="none" font-size="8px" fill="#000000" x="63.25619666406682" y="3" transform="rotate(180 63.25619666406682 0)" font-family="sans-serif">演唱</text></g><g class="relationship" transform="translate(173.88085818585125 -0.9535156575169208) rotate(252.3064151632708)"><path class="outline" fill="#FFC454" stroke="none" d="M 25 0.5 L 95.19370063418998 0.5 L 95.19370063418998 -0.5 L 25 -0.5 Z M 117.19370063418998 0.5 L 187.38740126837996 0.5 L 187.38740126837996 3.5 L 194.38740126837996 0 L 187.38740126837996 -3.5 L 187.38740126837996 -0.5 L 117.19370063418998 -0.5 Z"/><text text-anchor="middle" pointer-events="none" font-size="8px" fill="#000000" x="106.19370063418998" y="3" transform="rotate(180 106.19370063418998 0)" font-family="sans-serif">相似</text></g><g class="relationship" transform="translate(204.1868815671911 -62.83060303441736) rotate(236.60875006189764)"><path class="outline" fill="#FFC454" stroke="none" d="M 25 0.5 L 73.6103611033893 0.5 L 73.6103611033893 -0.5 L 25 -0.5 Z M 95.6103611033893 0.5 L 144.2207222067786 0.5 L 144.2207222067786 3.5 L 151.2207222067786 0 L 144.2207222067786 -3.5 L 144.2207222067786 -0.5 L 95.6103611033893 -0.5 Z"/><text text-anchor="middle" pointer-events="none" font-size="8px" fill="#000000" x="84.6103611033893" y="3" transform="rotate(180 84.6103611033893 0)" font-family="sans-serif">相似</text></g><g class="relationship" transform="translate(137.6245317717131 -382.7456991556901) rotate(459.9855359280187)"><path class="outline" fill="#A5ABB6" stroke="none" d="M 25 0.5 L 73.22021958642804 0.5 L 73.22021958642804 -0.5 L 25 -0.5 Z M 95.22021958642804 0.5 L 143.4404391728561 0.5 L 143.4404391728561 3.5 L 150.4404391728561 0 L 143.4404391728561 -3.5 L 143.4404391728561 -0.5 L 95.22021958642804 -0.5 Z"/><text text-anchor="middle" pointer-events="none" font-size="8px" fill="#000000" x="84.22021958642804" y="3" transform="rotate(180 84.22021958642804 0)" font-family="sans-serif">收藏</text></g><g class="relationship" transform="translate(-11.623220930130648 -370.9141573623061) rotate(413.5624348559001)"><path class="outline" fill="#A5ABB6" stroke="none" d="M 25 0.5 L 85.53128418559605 0.5 L 85.53128418559605 -0.5 L 25 -0.5 Z M 107.53128418559605 0.5 L 168.0625683711921 0.5 L 168.0625683711921 3.5 L 175.0625683711921 0 L 168.0625683711921 -3.5 L 168.0625683711921 -0.5 L 107.53128418559605 -0.5 Z"/><text text-anchor="middle" pointer-events="none" font-size="8px" fill="#000000" x="96.53128418559605" y="3" font-family="sans-serif">收藏</text></g><g class="relationship" transform="translate(-39.68527208768396 -316.8847404292647) rotate(396.05130294754935)"><path class="outline" fill="#A5ABB6" stroke="none" d="M 25 0.5 L 76.34122404835605 0.5 L 76.34122404835605 -0.5 L 25 -0.5 Z M 98.34122404835605 0.5 L 149.6824480967121 0.5 L 149.6824480967121 3.5 L 156.6824480967121 0 L 149.6824480967121 -3.5 L 149.6824480967121 -0.5 L 98.34122404835605 -0.5 Z"/><text text-anchor="middle" pointer-events="none" font-size="8px" fill="#000000" x="87.34122404835605" y="3" font-family="sans-serif">收藏</text></g><g class="relationship" transform="translate(77.98103968408074 -401.7119092089266) rotate(441.3349004181798)"><path class="outline" fill="#A5ABB6" stroke="none" d="M 25 0.5 L 82.48146186046385 0.5 L 82.48146186046385 -0.5 L 25 -0.5 Z M 104.48146186046385 0.5 L 161.9629237209277 0.5 L 161.9629237209277 3.5 L 168.9629237209277 0 L 161.9629237209277 -3.5 L 161.9629237209277 -0.5 L 104.48146186046385 -0.5 Z"/><text text-anchor="middle" pointer-events="none" font-size="8px" fill="#000000" x="93.48146186046385" y="3" font-family="sans-serif">收录</text></g><g class="relationship" transform="translate(45.12105921723835 -351.5359178135009) rotate(426.321729972356)"><path class="outline" fill="#A5ABB6" stroke="none" d="M 25 0.5 L 62.7934562174444 0.5 L 62.7934562174444 -0.5 L 25 -0.5 Z M 84.7934562174444 0.5 L 122.5869124348888 0.5 L 122.5869124348888 3.5 L 129.5869124348888 0 L 122.5869124348888 -3.5 L 122.5869124348888 -0.5 L 84.7934562174444 -0.5 Z"/><text text-anchor="middle" pointer-events="none" font-size="8px" fill="#000000" x="73.7934562174444" y="3" font-family="sans-serif">演唱</text></g><g class="relationship" transform="translate(204.1868815671911 -62.83060303441736) rotate(417.54100678207465)"><path class="outline" fill="#FFC454" stroke="none" d="M 25 0.5 L 67.24111571596539 0.5 L 67.24111571596539 -0.5 L 25 -0.5 Z M 89.24111571596539 0.5 L 131.48223143193078 0.5 L 131.48223143193078 3.5 L 138.48223143193078 0 L 131.48223143193078 -3.5 L 131.48223143193078 -0.5 L 89.24111571596539 -0.5 Z"/><text text-anchor="middle" pointer-events="none" font-size="8px" fill="#000000" x="78.24111571596539" y="3" font-family="sans-serif">相似</text></g><g class="relationship" transform="translate(173.88085818585125 -0.9535156575169208) rotate(392.796445957561)"><path class="outline" fill="#FFC454" stroke="none" d="M 25 0.5 L 55.71545940172959 0.5 L 55.71545940172959 -0.5 L 25 -0.5 Z M 77.71545940172959 0.5 L 108.43091880345918 0.5 L 108.43091880345918 3.5 L 115.43091880345918 0 L 108.43091880345918 -3.5 L 108.43091880345918 -0.5 L 77.71545940172959 -0.5 Z"/><text text-anchor="middle" pointer-events="none" font-size="8px" fill="#000000" x="66.71545940172959" y="3" font-family="sans-serif">相似</text></g><g class="relationship" transform="translate(340.038847975067 178.22432496025274) rotate(244.9865168207328)"><path class="outline" fill="#FFC454" stroke="none" d="M 25 0.5 L 42.3923172193249 0.5 L 42.3923172193249 -0.5 L 25 -0.5 Z M 64.3923172193249 0.5 L 81.7846344386498 0.5 L 81.7846344386498 3.5 L 88.7846344386498 0 L 81.7846344386498 -3.5 L 81.7846344386498 -0.5 L 64.3923172193249 -0.5 Z"/><text text-anchor="middle" pointer-events="none" font-size="8px" fill="#000000" x="53.3923172193249" y="3" transform="rotate(180 53.3923172193249 0)" font-family="sans-serif">相似</text></g><g class="relationship" transform="translate(133.89259798274338 121.9369493133655) rotate(343.49558436188045)"><path class="outline" fill="#FFC454" stroke="none" d="M 25 0.5 L 67.91284657820286 0.5 L 67.91284657820286 -0.5 L 25 -0.5 Z M 89.91284657820286 0.5 L 132.82569315640572 0.5 L 132.82569315640572 3.5 L 139.82569315640572 0 L 132.82569315640572 -3.5 L 132.82569315640572 -0.5 L 89.91284657820286 -0.5 Z"/><text text-anchor="middle" pointer-events="none" font-size="8px" fill="#000000" x="78.91284657820286" y="3" font-family="sans-serif">相似</text></g><g class="relationship" transform="translate(379.8374021154822 -24.07254130148163) rotate(491.5516236285023)"><path class="outline" fill="#A5ABB6" stroke="none" d="M 25 0.5 L 51.76790439507316 0.5 L 51.76790439507316 -0.5 L 25 -0.5 Z M 73.76790439507316 0.5 L 100.53580879014632 0.5 L 100.53580879014632 3.5 L 107.53580879014632 0 L 100.53580879014632 -3.5 L 100.53580879014632 -0.5 L 73.76790439507316 -0.5 Z"/><text text-anchor="middle" pointer-events="none" font-size="8px" fill="#000000" x="62.76790439507316" y="3" transform="rotate(180 62.76790439507316 0)" font-family="sans-serif">收藏</text></g><g class="relationship" transform="translate(330.09208327559156 241.85577884684488) rotate(257.10800445825254)"><path class="outline" fill="#A5ABB6" stroke="none" d="M 25 0.5 L 71.02797475213009 0.5 L 71.02797475213009 -0.5 L 25 -0.5 Z M 93.02797475213009 0.5 L 139.05594950426018 0.5 L 139.05594950426018 3.5 L 146.05594950426018 0 L 139.05594950426018 -3.5 L 139.05594950426018 -0.5 L 93.02797475213009 -0.5 Z"/><text text-anchor="middle" pointer-events="none" font-size="8px" fill="#000000" x="82.02797475213009" y="3" transform="rotate(180 82.02797475213009 0)" font-family="sans-serif">收藏</text></g><g class="relationship" transform="translate(389.8315038717333 238.42840756305065) rotate(239.05833297438608)"><path class="outline" fill="#A5ABB6" stroke="none" d="M 25 0.5 L 80.70714468714986 0.5 L 80.70714468714986 -0.5 L 25 -0.5 Z M 102.70714468714986 0.5 L 158.41428937429973 0.5 L 158.41428937429973 3.5 L 165.41428937429973 0 L 158.41428937429973 -3.5 L 158.41428937429973 -0.5 L 102.70714468714986 -0.5 Z"/><text text-anchor="middle" pointer-events="none" font-size="8px" fill="#000000" x="91.70714468714986" y="3" transform="rotate(180 91.70714468714986 0)" font-family="sans-serif">收藏</text></g><g class="relationship" transform="translate(473.09499892530465 116.87909145042885) rotate(192.98241781121374)"><path class="outline" fill="#A5ABB6" stroke="none" d="M 25 0.5 L 78.46008916561068 0.5 L 78.46008916561068 -0.5 L 25 -0.5 Z M 100.46008916561068 0.5 L 153.92017833122136 0.5 L 153.92017833122136 3.5 L 160.92017833122136 0 L 153.92017833122136 -3.5 L 153.92017833122136 -0.5 L 100.46008916561068 -0.5 Z"/><text text-anchor="middle" pointer-events="none" font-size="8px" fill="#000000" x="89.46008916561068" y="3" transform="rotate(180 89.46008916561068 0)" font-family="sans-serif">收录</text></g><g class="relationship" transform="translate(212.74995898168984 120.23511010843018) rotate(330.32101856747386)"><path class="outline" fill="#A5ABB6" stroke="none" d="M 25 0.5 L 31.066271969595547 0.5 L 31.066271969595547 -0.5 L 25 -0.5 Z M 53.06627196959555 0.5 L 59.132543939191095 0.5 L 59.132543939191095 3.5 L 66.1325439391911 0 L 59.132543939191095 -3.5 L 59.132543939191095 -0.5 L 53.06627196959555 -0.5 Z"/><text text-anchor="middle" pointer-events="none" font-size="8px" fill="#000000" x="42.06627196959555" y="3" font-family="sans-serif">演唱</text></g><g class="relationship" transform="translate(133.89259798274338 121.9369493133655) rotate(326.94305093002833)"><path class="outline" fill="#FFC454" stroke="none" d="M 25 0.5 L 83.1478167824683 0.5 L 83.1478167824683 -0.5 L 25 -0.5 Z M 105.1478167824683 0.5 L 163.2956335649366 0.5 L 163.2956335649366 3.5 L 170.2956335649366 0 L 163.2956335649366 -3.5 L 163.2956335649366 -0.5 L 105.1478167824683 -0.5 Z"/><text text-anchor="middle" pointer-events="none" font-size="8px" fill="#000000" x="94.1478167824683" y="3" font-family="sans-serif">相似</text></g><g class="relationship" transform="translate(173.88085818585125 -0.9535156575169208) rotate(367.53523220836195)"><path class="outline" fill="#FFC454" stroke="none" d="M 25 0.5 L 47.88605878346075 0.5 L 47.88605878346075 -0.5 L 25 -0.5 Z M 69.88605878346075 0.5 L 92.7721175669215 0.5 L 92.7721175669215 3.5 L 99.7721175669215 0 L 92.7721175669215 -3.5 L 92.7721175669215 -0.5 L 69.88605878346075 -0.5 Z"/><text text-anchor="middle" pointer-events="none" font-size="8px" fill="#000000" x="58.88605878346075" y="3" font-family="sans-serif">相似</text></g><g class="relationship" transform="translate(204.1868815671911 -62.83060303441736) rotate(399.9556268006049)"><path class="outline" fill="#FFC454" stroke="none" d="M 25 0.5 L 46.415520833345795 0.5 L 46.415520833345795 -0.5 L 25 -0.5 Z M 68.4155208333458 0.5 L 89.83104166669159 0.5 L 89.83104166669159 3.5 L 96.83104166669159 0 L 89.83104166669159 -3.5 L 89.83104166669159 -0.5 L 68.4155208333458 -0.5 Z"/><text text-anchor="middle" pointer-events="none" font-size="8px" fill="#000000" x="57.415520833345795" y="3" font-family="sans-serif">相似</text></g><g class="relationship" transform="translate(426.8507806273492 71.07392950197227) rotate(203.29649185220933)"><path class="outline" fill="#A5ABB6" stroke="none" d="M 25 0.5 L 55.875298799410146 0.5 L 55.875298799410146 -0.5 L 25 -0.5 Z M 77.87529879941015 0.5 L 108.75059759882029 0.5 L 108.75059759882029 3.5 L 115.75059759882029 0 L 108.75059759882029 -3.5 L 108.75059759882029 -0.5 L 77.87529879941015 -0.5 Z"/><text text-anchor="middle" pointer-events="none" font-size="8px" fill="#000000" x="66.87529879941015" y="3" transform="rotate(180 66.87529879941015 0)" font-family="sans-serif">收藏</text></g><g class="relationship" transform="translate(452.7090979424614 -98.1179159425458) rotate(503.80340056335444)"><path class="outline" fill="#A5ABB6" stroke="none" d="M 25 0.5 L 81.6180261227763 0.5 L 81.6180261227763 -0.5 L 25 -0.5 Z M 103.6180261227763 0.5 L 160.2360522455526 0.5 L 160.2360522455526 3.5 L 167.2360522455526 0 L 160.2360522455526 -3.5 L 160.2360522455526 -0.5 L 103.6180261227763 -0.5 Z"/><text text-anchor="middle" pointer-events="none" font-size="8px" fill="#000000" x="92.6180261227763" y="3" transform="rotate(180 92.6180261227763 0)" font-family="sans-serif">收藏</text></g><g class="relationship" transform="translate(487.8823200743735 -48.96999324563825) rotate(521.3099233499187)"><path class="outline" fill="#A5ABB6" stroke="none" d="M 25 0.5 L 85.95059508225846 0.5 L 85.95059508225846 -0.5 L 25 -0.5 Z M 107.95059508225846 0.5 L 168.90119016451692 0.5 L 168.90119016451692 3.5 L 175.90119016451692 0 L 168.90119016451692 -3.5 L 168.90119016451692 -0.5 L 107.95059508225846 -0.5 Z"/><text text-anchor="middle" pointer-events="none" font-size="8px" fill="#000000" x="96.95059508225846" y="3" transform="rotate(180 96.95059508225846 0)" font-family="sans-serif">收藏</text></g><g class="relationship" transform="translate(492.6578107908132 16.638050556383345) rotate(180.3610916974754)"><path class="outline" fill="#A5ABB6" stroke="none" d="M 25 0.5 L 83.04309499298013 0.5 L 83.04309499298013 -0.5 L 25 -0.5 Z M 105.04309499298013 0.5 L 163.08618998596026 0.5 L 163.08618998596026 3.5 L 170.08618998596026 0 L 163.08618998596026 -3.5 L 163.08618998596026 -0.5 L 105.04309499298013 -0.5 Z"/><text text-anchor="middle" pointer-events="none" font-size="8px" fill="#000000" x="94.04309499298013" y="3" transform="rotate(180 94.04309499298013 0)" font-family="sans-serif">收录</text></g><g class="relationship" transform="translate(212.74995898168984 120.23511010843018) rotate(308.9797535505524)"><path class="outline" fill="#A5ABB6" stroke="none" d="M 25 0.5 L 52.92398166066428 0.5 L 52.92398166066428 -0.5 L 25 -0.5 Z M 74.92398166066428 0.5 L 102.84796332132856 0.5 L 102.84796332132856 3.5 L 109.84796332132856 0 L 102.84796332132856 -3.5 L 102.84796332132856 -0.5 L 74.92398166066428 -0.5 Z"/><text text-anchor="middle" pointer-events="none" font-size="8px" fill="#000000" x="63.92398166066428" y="3" font-family="sans-serif">演唱</text></g><g class="relationship" transform="translate(133.89259798274338 121.9369493133655) rotate(450.4312386508444)"><path class="outline" fill="#FFC454" stroke="none" d="M 25 0.5 L 32.45601305913949 0.5 L 32.45601305913949 -0.5 L 25 -0.5 Z M 54.45601305913949 0.5 L 61.91202611827897 0.5 L 61.91202611827897 3.5 L 68.91202611827897 0 L 61.91202611827897 -3.5 L 61.91202611827897 -0.5 L 54.45601305913949 -0.5 Z"/><text text-anchor="middle" pointer-events="none" font-size="8px" fill="#000000" x="43.45601305913949" y="3" transform="rotate(180 43.45601305913949 0)" font-family="sans-serif">相似</text></g><g class="relationship" transform="translate(173.88085818585125 -0.9535156575169208) rotate(460.63117346958643)"><path class="outline" fill="#FFC454" stroke="none" d="M 25 0.5 L 95.79308314667384 0.5 L 95.79308314667384 -0.5 L 25 -0.5 Z M 117.79308314667384 0.5 L 188.58616629334767 0.5 L 188.58616629334767 3.5 L 195.58616629334767 0 L 188.58616629334767 -3.5 L 188.58616629334767 -0.5 L 117.79308314667384 -0.5 Z"/><text text-anchor="middle" pointer-events="none" font-size="8px" fill="#000000" x="106.79308314667384" y="3" transform="rotate(180 106.79308314667384 0)" font-family="sans-serif">相似</text></g><g class="relationship" transform="translate(229.50124767598635 220.4608807271544) rotate(182.7429973230142)"><path class="outline" fill="#FFC454" stroke="none" d="M 25 0.5 L 33.71297791538056 0.5 L 33.71297791538056 -0.5 L 25 -0.5 Z M 55.71297791538056 0.5 L 64.42595583076113 0.5 L 64.42595583076113 3.5 L 71.42595583076113 0 L 64.42595583076113 -3.5 L 64.42595583076113 -0.5 L 55.71297791538056 -0.5 Z"/><text text-anchor="middle" pointer-events="none" font-size="8px" fill="#000000" x="44.71297791538056" y="3" transform="rotate(180 44.71297791538056 0)" font-family="sans-serif">相似</text></g><g class="relationship" transform="translate(94.68753405082603 411.9143968248623) rotate(281.1087820854334)"><path class="outline" fill="#A5ABB6" stroke="none" d="M 25 0.5 L 85.40596441714668 0.5 L 85.40596441714668 -0.5 L 25 -0.5 Z M 107.40596441714668 0.5 L 167.81192883429335 0.5 L 167.81192883429335 3.5 L 174.81192883429335 0 L 167.81192883429335 -3.5 L 167.81192883429335 -0.5 L 107.40596441714668 -0.5 Z"/><text text-anchor="middle" pointer-events="none" font-size="8px" fill="#000000" x="96.40596441714668" y="3" font-family="sans-serif">收藏</text></g><g class="relationship" transform="translate(33.39718585024704 391.416554146999) rotate(299.6125342474461)"><path class="outline" fill="#A5ABB6" stroke="none" d="M 25 0.5 L 86.47359897110898 0.5 L 86.47359897110898 -0.5 L 25 -0.5 Z M 108.47359897110898 0.5 L 169.94719794221797 0.5 L 169.94719794221797 3.5 L 176.94719794221797 0 L 169.94719794221797 -3.5 L 169.94719794221797 -0.5 L 108.47359897110898 -0.5 Z"/><text text-anchor="middle" pointer-events="none" font-size="8px" fill="#000000" x="97.47359897110898" y="3" font-family="sans-serif">收藏</text></g><g class="relationship" transform="translate(155.95343230625025 403.82740541073764) rotate(263.09415786989314)"><path class="outline" fill="#A5ABB6" stroke="none" d="M 25 0.5 L 80.17742142952251 0.5 L 80.17742142952251 -0.5 L 25 -0.5 Z M 102.17742142952251 0.5 L 157.35484285904502 0.5 L 157.35484285904502 3.5 L 164.35484285904502 0 L 157.35484285904502 -3.5 L 157.35484285904502 -0.5 L 102.17742142952251 -0.5 Z"/><text text-anchor="middle" pointer-events="none" font-size="8px" fill="#000000" x="91.17742142952251" y="3" transform="rotate(180 91.17742142952251 0)" font-family="sans-serif">收录</text></g><g class="relationship" transform="translate(212.74995898168984 120.23511010843018) rotate(489.7660027225843)"><path class="outline" fill="#A5ABB6" stroke="none" d="M 25 0.5 L 47.69317154179219 0.5 L 47.69317154179219 -0.5 L 25 -0.5 Z M 69.6931715417922 0.5 L 92.38634308358438 0.5 L 92.38634308358438 3.5 L 99.38634308358438 0 L 92.38634308358438 -3.5 L 92.38634308358438 -0.5 L 69.6931715417922 -0.5 Z"/><text text-anchor="middle" pointer-events="none" font-size="8px" fill="#000000" x="58.69317154179219" y="3" transform="rotate(180 58.69317154179219 0)" font-family="sans-serif">演唱</text></g><g class="relationship" transform="translate(235.21970399594593 -245.36025224139814) rotate(459.6488940704253)"><path class="outline" fill="#A5ABB6" stroke="none" d="M 25 0.5 L 78.07444154235834 0.5 L 78.07444154235834 -0.5 L 25 -0.5 Z M 100.07444154235834 0.5 L 153.1488830847167 0.5 L 153.1488830847167 3.5 L 160.1488830847167 0 L 153.1488830847167 -3.5 L 153.1488830847167 -0.5 L 100.07444154235834 -0.5 Z"/><text text-anchor="middle" pointer-events="none" font-size="8px" fill="#000000" x="89.07444154235834" y="3" transform="rotate(180 89.07444154235834 0)" font-family="sans-serif">收录</text></g><g class="relationship" transform="translate(212.74995898168984 120.23511010843018) rotate(267.3218860816476)"><path class="outline" fill="#A5ABB6" stroke="none" d="M 25 0.5 L 77.13293843278468 0.5 L 77.13293843278468 -0.5 L 25 -0.5 Z M 99.13293843278468 0.5 L 151.26587686556937 0.5 L 151.26587686556937 3.5 L 158.26587686556937 0 L 151.26587686556937 -3.5 L 151.26587686556937 -0.5 L 99.13293843278468 -0.5 Z"/><text text-anchor="middle" pointer-events="none" font-size="8px" fill="#000000" x="88.13293843278468" y="3" transform="rotate(180 88.13293843278468 0)" font-family="sans-serif">演唱</text></g><g class="relationship" transform="translate(-194.41494741108156 245.2988582468554) rotate(346.6944181748379)"><path class="outline" fill="#A5ABB6" stroke="none" d="M 25 0.5 L 91.21387519984526 0.5 L 91.21387519984526 -0.5 L 25 -0.5 Z M 113.21387519984526 0.5 L 179.42775039969052 0.5 L 179.42775039969052 3.5 L 186.42775039969052 0 L 179.42775039969052 -3.5 L 179.42775039969052 -0.5 L 113.21387519984526 -0.5 Z"/><text text-anchor="middle" pointer-events="none" font-size="8px" fill="#000000" x="102.21387519984526" y="3" font-family="sans-serif">收藏</text></g><g class="relationship" transform="translate(-57.937389562478735 82.58730070307723) rotate(418.72581111150987)"><path class="outline" fill="#A5ABB6" stroke="none" d="M 25 0.5 L 52.22140960716382 0.5 L 52.22140960716382 -0.5 L 25 -0.5 Z M 74.22140960716382 0.5 L 101.44281921432764 0.5 L 101.44281921432764 3.5 L 108.44281921432764 0 L 101.44281921432764 -3.5 L 101.44281921432764 -0.5 L 74.22140960716382 -0.5 Z"/><text text-anchor="middle" pointer-events="none" font-size="8px" fill="#000000" x="63.22140960716382" y="3" font-family="sans-serif">收藏</text></g><g class="relationship" transform="translate(-165.7780240104771 300.07093819970896) rotate(329.7161198338566)"><path class="outline" fill="#A5ABB6" stroke="none" d="M 25 0.5 L 88.05221382586338 0.5 L 88.05221382586338 -0.5 L 25 -0.5 Z M 110.05221382586338 0.5 L 173.10442765172675 0.5 L 173.10442765172675 3.5 L 180.10442765172675 0 L 173.10442765172675 -3.5 L 173.10442765172675 -0.5 L 110.05221382586338 -0.5 Z"/><text text-anchor="middle" pointer-events="none" font-size="8px" fill="#000000" x="99.05221382586338" y="3" font-family="sans-serif">收藏</text></g><g class="relationship" transform="translate(-120.55888407571021 345.8471992036607) rotate(311.47603073031877)"><path class="outline" fill="#A5ABB6" stroke="none" d="M 25 0.5 L 85.07337211661417 0.5 L 85.07337211661417 -0.5 L 25 -0.5 Z M 107.07337211661417 0.5 L 167.14674423322833 0.5 L 167.14674423322833 3.5 L 174.14674423322833 0 L 167.14674423322833 -3.5 L 167.14674423322833 -0.5 L 107.07337211661417 -0.5 Z"/><text text-anchor="middle" pointer-events="none" font-size="8px" fill="#000000" x="96.07337211661417" y="3" font-family="sans-serif">收录</text></g><g class="relationship" transform="translate(212.74995898168984 120.23511010843018) rotate(519.2260263420807)"><path class="outline" fill="#A5ABB6" stroke="none" d="M 25 0.5 L 93.20879737295643 0.5 L 93.20879737295643 -0.5 L 25 -0.5 Z M 115.20879737295643 0.5 L 183.41759474591285 0.5 L 183.41759474591285 3.5 L 190.41759474591285 0 L 183.41759474591285 -3.5 L 183.41759474591285 -0.5 L 115.20879737295643 -0.5 Z"/><text text-anchor="middle" pointer-events="none" font-size="8px" fill="#000000" x="104.20879737295643" y="3" transform="rotate(180 104.20879737295643 0)" font-family="sans-serif">演唱</text></g><g class="relationship" transform="translate(298.1962764684972 134.68100449692952) rotate(448.8521785177456)"><path class="outline" fill="#FFC454" stroke="none" d="M 25 0.5 L 71.75652297201319 0.5 L 71.75652297201319 -0.5 L 25 -0.5 Z M 93.75652297201319 0.5 L 140.51304594402637 0.5 L 140.51304594402637 3.5 L 147.51304594402637 0 L 140.51304594402637 -3.5 L 140.51304594402637 -0.5 L 93.75652297201319 -0.5 Z"/><text text-anchor="middle" pointer-events="none" font-size="8px" fill="#000000" x="82.75652297201319" y="3" font-family="sans-serif">相似</text></g><g class="relationship" transform="translate(359.4936397461505 478.7425897386089) rotate(251.37076461618005)"><path class="outline" fill="#A5ABB6" stroke="none" d="M 25 0.5 L 76.03511667630545 0.5 L 76.03511667630545 -0.5 L 25 -0.5 Z M 98.03511667630545 0.5 L 149.0702333526109 0.5 L 149.0702333526109 3.5 L 156.0702333526109 0 L 149.0702333526109 -3.5 L 149.0702333526109 -0.5 L 98.03511667630545 -0.5 Z"/><text text-anchor="middle" pointer-events="none" font-size="8px" fill="#000000" x="87.03511667630545" y="3" transform="rotate(180 87.03511667630545 0)" font-family="sans-serif">收藏</text></g><g class="relationship" transform="translate(299.12389785982407 487.1033350330616) rotate(270.80493206083577)"><path class="outline" fill="#A5ABB6" stroke="none" d="M 25 0.5 L 75.48082990391687 0.5 L 75.48082990391687 -0.5 L 25 -0.5 Z M 97.48082990391687 0.5 L 147.96165980783374 0.5 L 147.96165980783374 3.5 L 154.96165980783374 0 L 147.96165980783374 -3.5 L 147.96165980783374 -0.5 L 97.48082990391687 -0.5 Z"/><text text-anchor="middle" pointer-events="none" font-size="8px" fill="#000000" x="86.48082990391687" y="3" font-family="sans-serif">收藏</text></g><g class="relationship" transform="translate(389.8315038717333 238.42840756305065) rotate(502.06554996716017)"><path class="outline" fill="#A5ABB6" stroke="none" d="M 25 0.5 L 41.40074022186056 0.5 L 41.40074022186056 -0.5 L 25 -0.5 Z M 63.40074022186056 0.5 L 79.80148044372112 0.5 L 79.80148044372112 3.5 L 86.80148044372112 0 L 79.80148044372112 -3.5 L 79.80148044372112 -0.5 L 63.40074022186056 -0.5 Z"/><text text-anchor="middle" pointer-events="none" font-size="8px" fill="#000000" x="52.40074022186056" y="3" transform="rotate(180 52.40074022186056 0)" font-family="sans-serif">收藏</text></g><g class="relationship" transform="translate(409.50177763024016 443.94699826232085) rotate(231.74609632735053)"><path class="outline" fill="#A5ABB6" stroke="none" d="M 25 0.5 L 72.59535376930168 0.5 L 72.59535376930168 -0.5 L 25 -0.5 Z M 94.59535376930168 0.5 L 142.19070753860336 0.5 L 142.19070753860336 3.5 L 149.19070753860336 0 L 142.19070753860336 -3.5 L 142.19070753860336 -0.5 L 94.59535376930168 -0.5 Z"/><text text-anchor="middle" pointer-events="none" font-size="8px" fill="#000000" x="83.59535376930168" y="3" transform="rotate(180 83.59535376930168 0)" font-family="sans-serif">收录</text></g><g class="relationship" transform="translate(212.74995898168984 120.23511010843018) rotate(424.5640202001525)"><path class="outline" fill="#A5ABB6" stroke="none" d="M 25 0.5 L 88.99430389692789 0.5 L 88.99430389692789 -0.5 L 25 -0.5 Z M 110.99430389692789 0.5 L 174.98860779385578 0.5 L 174.98860779385578 3.5 L 181.98860779385578 0 L 174.98860779385578 -3.5 L 174.98860779385578 -0.5 L 110.99430389692789 -0.5 Z"/><text text-anchor="middle" pointer-events="none" font-size="8px" fill="#000000" x="99.99430389692789" y="3" font-family="sans-serif">演唱</text></g><g class="relationship" transform="translate(126.46773919996956 -42.2154992369661) rotate(380.27723049090554)"><path class="outline" fill="#FFC454" stroke="none" d="M 25 0.5 L 42.72731155560347 0.5 L 42.72731155560347 -0.5 L 25 -0.5 Z M 64.72731155560348 0.5 L 82.45462311120694 0.5 L 82.45462311120694 3.5 L 89.45462311120694 0 L 82.45462311120694 -3.5 L 82.45462311120694 -0.5 L 64.72731155560348 -0.5 Z"/><text text-anchor="middle" pointer-events="none" font-size="8px" fill="#000000" x="53.72731155560347" y="3" font-family="sans-serif">相似</text></g><g class="relationship" transform="translate(173.88085818585125 -0.9535156575169208) rotate(221.03191387486515)"><path class="outline" fill="#FFC454" stroke="none" d="M 25 0.5 L 27.926720879214034 0.5 L 27.926720879214034 -0.5 L 25 -0.5 Z M 27.926720879214034 0.5 L 30.85344175842807 0.5 L 30.85344175842807 3.5 L 37.85344175842807 0 L 30.85344175842807 -3.5 L 30.85344175842807 -0.5 L 27.926720879214034 -0.5 Z"/><text text-anchor="middle" pointer-events="none" font-size="8px" fill="#000000" x="27.926720879214034" y="3" transform="rotate(180 27.926720879214034 0)" font-family="sans-serif"/></g><g class="relationship" transform="translate(173.88085818585125 -0.9535156575169208) rotate(407.4932775657924)"><path class="outline" fill="#FFC454" stroke="none" d="M 25 0.5 L 77.4932691563847 0.5 L 77.4932691563847 -0.5 L 25 -0.5 Z M 99.4932691563847 0.5 L 151.9865383127694 0.5 L 151.9865383127694 3.5 L 158.9865383127694 0 L 151.9865383127694 -3.5 L 151.9865383127694 -0.5 L 99.4932691563847 -0.5 Z"/><text text-anchor="middle" pointer-events="none" font-size="8px" fill="#000000" x="88.4932691563847" y="3" font-family="sans-serif">相似</text></g><g class="relationship" transform="translate(173.88085818585125 -0.9535156575169208) rotate(358.47473466627025)"><path class="outline" fill="#FFC454" stroke="none" d="M 25 0.5 L 26.484812726304245 0.5 L 26.484812726304245 -0.5 L 25 -0.5 Z M 26.484812726304245 0.5 L 27.96962545260849 0.5 L 27.96962545260849 3.5 L 34.96962545260849 0 L 27.96962545260849 -3.5 L 27.96962545260849 -0.5 L 26.484812726304245 -0.5 Z"/><text text-anchor="middle" pointer-events="none" font-size="8px" fill="#000000" x="26.484812726304245" y="3" font-family="sans-serif"/></g><g class="relationship" transform="translate(233.82923548337521 -2.5497726292673595) rotate(424.8714355086798)"><path class="outline" fill="#FFC454" stroke="none" d="M 25 0.5 L 61.28819524807325 0.5 L 61.28819524807325 -0.5 L 25 -0.5 Z M 83.28819524807325 0.5 L 119.5763904961465 0.5 L 119.5763904961465 3.5 L 126.5763904961465 0 L 119.5763904961465 -3.5 L 119.5763904961465 -0.5 L 83.28819524807325 -0.5 Z"/><text text-anchor="middle" pointer-events="none" font-size="8px" fill="#000000" x="72.28819524807325" y="3" font-family="sans-serif">相似</text></g><g class="relationship" transform="translate(212.74995898168984 120.23511010843018) rotate(279.7413766026542)"><path class="outline" fill="#A5ABB6" stroke="none" d="M 25 0.5 L 47.79057578547626 0.5 L 47.79057578547626 -0.5 L 25 -0.5 Z M 69.79057578547625 0.5 L 92.58115157095251 0.5 L 92.58115157095251 3.5 L 99.58115157095251 0 L 92.58115157095251 -3.5 L 92.58115157095251 -0.5 L 69.79057578547625 -0.5 Z"/><text text-anchor="middle" pointer-events="none" font-size="8px" fill="#000000" x="58.79057578547626" y="3" font-family="sans-serif">演唱</text></g><g class="relationship" transform="translate(212.74995898168984 120.23511010843018) rotate(369.59591356563544)"><path class="outline" fill="#A5ABB6" stroke="none" d="M 25 0.5 L 28.829427173515576 0.5 L 28.829427173515576 -0.5 L 25 -0.5 Z M 50.829427173515576 0.5 L 54.65885434703115 0.5 L 54.65885434703115 3.5 L 61.65885434703115 0 L 54.65885434703115 -3.5 L 54.65885434703115 -0.5 L 50.829427173515576 -0.5 Z"/><text text-anchor="middle" pointer-events="none" font-size="8px" fill="#000000" x="39.829427173515576" y="3" font-family="sans-serif">演唱</text></g><g class="relationship" transform="translate(212.74995898168984 120.23511010843018) rotate(384.49266679641136)"><path class="outline" fill="#A5ABB6" stroke="none" d="M 25 0.5 L 55.43784794426249 0.5 L 55.43784794426249 -0.5 L 25 -0.5 Z M 77.43784794426249 0.5 L 107.87569588852497 0.5 L 107.87569588852497 3.5 L 114.87569588852497 0 L 107.87569588852497 -3.5 L 107.87569588852497 -0.5 L 77.43784794426249 -0.5 Z"/><text text-anchor="middle" pointer-events="none" font-size="8px" fill="#000000" x="66.43784794426249" y="3" font-family="sans-serif">演唱</text></g><g class="relationship" transform="translate(212.74995898168984 120.23511010843018) rotate(242.02593544501008)"><path class="outline" fill="#A5ABB6" stroke="none" d="M 25 0.5 L 77.47122094322718 0.5 L 77.47122094322718 -0.5 L 25 -0.5 Z M 99.47122094322718 0.5 L 151.94244188645436 0.5 L 151.94244188645436 3.5 L 158.94244188645436 0 L 151.94244188645436 -3.5 L 151.94244188645436 -0.5 L 99.47122094322718 -0.5 Z"/><text text-anchor="middle" pointer-events="none" font-size="8px" fill="#000000" x="88.47122094322718" y="3" transform="rotate(180 88.47122094322718 0)" font-family="sans-serif">演唱</text></g><g class="relationship" transform="translate(212.74995898168984 120.23511010843018) rotate(440.5115411620112)"><path class="outline" fill="#A5ABB6" stroke="none" d="M 25 0.5 L 36.3079983099039 0.5 L 36.3079983099039 -0.5 L 25 -0.5 Z M 58.3079983099039 0.5 L 69.6159966198078 0.5 L 69.6159966198078 3.5 L 76.6159966198078 0 L 69.6159966198078 -3.5 L 69.6159966198078 -0.5 L 58.3079983099039 -0.5 Z"/><text text-anchor="middle" pointer-events="none" font-size="8px" fill="#000000" x="47.3079983099039" y="3" font-family="sans-serif">演唱</text></g><g class="relationship" transform="translate(229.50124767598635 220.4608807271544) rotate(308.6887654917082)"><path class="outline" fill="#FFC454" stroke="none" d="M 25 0.5 L 40.44814406983323 0.5 L 40.44814406983323 -0.5 L 25 -0.5 Z M 62.44814406983323 0.5 L 77.89628813966647 0.5 L 77.89628813966647 3.5 L 84.89628813966647 0 L 77.89628813966647 -3.5 L 77.89628813966647 -0.5 L 62.44814406983323 -0.5 Z"/><text text-anchor="middle" pointer-events="none" font-size="8px" fill="#000000" x="51.44814406983323" y="3" font-family="sans-serif">相似</text></g><g class="relationship" transform="translate(379.8374021154822 -24.07254130148163) rotate(531.6145332387057)"><path class="outline" fill="#A5ABB6" stroke="none" d="M 25 0.5 L 59.292977807151075 0.5 L 59.292977807151075 -0.5 L 25 -0.5 Z M 81.29297780715108 0.5 L 115.58595561430215 0.5 L 115.58595561430215 3.5 L 122.58595561430215 0 L 115.58595561430215 -3.5 L 115.58595561430215 -0.5 L 81.29297780715108 -0.5 Z"/><text text-anchor="middle" pointer-events="none" font-size="8px" fill="#000000" x="70.29297780715108" y="3" transform="rotate(180 70.29297780715108 0)" font-family="sans-serif">收藏</text></g><g class="relationship" transform="translate(389.8315038717333 238.42840756305065) rotate(230.40705921744643)"><path class="outline" fill="#A5ABB6" stroke="none" d="M 25 0.5 L 35.563538444719555 0.5 L 35.563538444719555 -0.5 L 25 -0.5 Z M 35.563538444719555 0.5 L 46.12707688943911 0.5 L 46.12707688943911 3.5 L 53.12707688943911 0 L 46.12707688943911 -3.5 L 46.12707688943911 -0.5 L 35.563538444719555 -0.5 Z"/><text text-anchor="middle" pointer-events="none" font-size="8px" fill="#000000" x="35.563538444719555" y="3" transform="rotate(180 35.563538444719555 0)" font-family="sans-serif"/></g><g class="relationship" transform="translate(389.8315038717333 238.42840756305065) rotate(186.39421455400054)"><path class="outline" fill="#A5ABB6" stroke="none" d="M 25 0.5 L 66.16694346569805 0.5 L 66.16694346569805 -0.5 L 25 -0.5 Z M 88.16694346569805 0.5 L 129.3338869313961 0.5 L 129.3338869313961 3.5 L 136.3338869313961 0 L 129.3338869313961 -3.5 L 129.3338869313961 -0.5 L 88.16694346569805 -0.5 Z"/><text text-anchor="middle" pointer-events="none" font-size="8px" fill="#000000" x="77.16694346569805" y="3" transform="rotate(180 77.16694346569805 0)" font-family="sans-serif">收藏</text></g><g class="relationship" transform="translate(426.8507806273492 71.07392950197227) rotate(513.6921053352736)"><path class="outline" fill="#A5ABB6" stroke="none" d="M 25 0.5 L 57.25974050568706 0.5 L 57.25974050568706 -0.5 L 25 -0.5 Z M 79.25974050568706 0.5 L 111.51948101137413 0.5 L 111.51948101137413 3.5 L 118.51948101137413 0 L 111.51948101137413 -3.5 L 111.51948101137413 -0.5 L 79.25974050568706 -0.5 Z"/><text text-anchor="middle" pointer-events="none" font-size="8px" fill="#000000" x="68.25974050568706" y="3" transform="rotate(180 68.25974050568706 0)" font-family="sans-serif">收藏</text></g></g><g class="layer nodes"><g class="node" transform="translate(-293.2946591028412,706.657155821901)"><circle class="outline" cx="0" cy="0" r="25" fill="#F16667" stroke="#eb2728" stroke-width="2px"/><text text-anchor="middle" pointer-events="none" font-family="sans-serif" dy="1.5625" font-size="25" fill="#FFFFFF"/><text text-anchor="middle" pointer-events="none" y="5" font-size="10px" fill="#FFFFFF" font-family="sans-serif"> 爱在圣诞</text></g><g class="node" transform="translate(-207.31595814839505,788.8339593895222)"><circle class="outline" cx="0" cy="0" r="25" fill="#F16667" stroke="#eb2728" stroke-width="2px"/><text text-anchor="middle" pointer-events="none" font-family="sans-serif" dy="1.5625" font-size="25" fill="#FFFFFF"/><text text-anchor="middle" pointer-events="none" y="5" font-size="10px" fill="#FFFFFF" font-family="sans-serif"> 圣诞节</text></g><g class="node" transform="translate(-319.58826759483196,797.4495926202841)"><circle class="outline" cx="0" cy="0" r="25" fill="#4C8EDA" stroke="#2870c2" stroke-width="2px"/><text text-anchor="middle" pointer-events="none" font-family="sans-serif" dy="1.5625" font-size="25" fill="#FFFFFF"/><text text-anchor="middle" pointer-events="none" y="5" font-size="10px" fill="#FFFFFF" font-family="sans-serif"> 红海之…</text></g><g class="node" transform="translate(-99.38463032221578,760.7523259399752)"><circle class="outline" cx="0" cy="0" r="25" fill="#4C8EDA" stroke="#2870c2" stroke-width="2px"/><text text-anchor="middle" pointer-events="none" font-family="sans-serif" dy="1.5625" font-size="25" fill="#FFFFFF"/><text text-anchor="middle" pointer-events="none" y="5" font-size="10px" fill="#FFFFFF" font-family="sans-serif"> 可爱的…</text></g><g class="node" transform="translate(-167.90579023601546,893.6662329139945)"><circle class="outline" cx="0" cy="0" r="25" fill="#ECB5C9" stroke="#da7298" stroke-width="2px"/><text text-anchor="middle" pointer-events="none" font-family="sans-serif" dy="1.5625" font-size="25" fill="#604A0E"/><text text-anchor="middle" pointer-events="none" y="5" font-size="10px" fill="#604A0E" font-family="sans-serif"> 圣诞节</text></g><g class="node" transform="translate(-93.63640017097785,843.7580273761771)"><circle class="outline" cx="0" cy="0" r="25" fill="#FFC454" stroke="#d7a013" stroke-width="2px"/><text text-anchor="middle" pointer-events="none" font-family="sans-serif" dy="1.5625" font-size="25" fill="#604A0E"/><text text-anchor="middle" pointer-events="none" y="5" font-size="10px" fill="#604A0E" font-family="sans-serif"> 洪辰</text></g><g class="node" transform="translate(11.337332959102794,196.6399149625742)"><circle class="outline" cx="0" cy="0" r="25" fill="#F16667" stroke="#eb2728" stroke-width="2px"/><text text-anchor="middle" pointer-events="none" font-family="sans-serif" dy="1.5625" font-size="25" fill="#FFFFFF"/><text text-anchor="middle" pointer-events="none" y="5" font-size="10px" fill="#FFFFFF" font-family="sans-serif"> 单身情…</text></g><g class="node" transform="translate(53.983661967400764,85.101869424825)"><circle class="outline" cx="0" cy="0" r="25" fill="#F16667" stroke="#eb2728" stroke-width="2px"/><text text-anchor="middle" pointer-events="none" font-family="sans-serif" dy="1.5625" font-size="25" fill="#FFFFFF"/><text text-anchor="middle" pointer-events="none" y="5" font-size="10px" fill="#FFFFFF" font-family="sans-serif"> 你怎么…</text></g><g class="node" transform="translate(173.88085818585125,-0.9535156575169208)"><circle class="outline" cx="0" cy="0" r="25" fill="#F16667" stroke="#eb2728" stroke-width="2px"/><text text-anchor="middle" pointer-events="none" font-family="sans-serif" dy="1.5625" font-size="25" fill="#FFFFFF"/><text text-anchor="middle" pointer-events="none" y="5" font-size="10px" fill="#FFFFFF" font-family="sans-serif"> 单身狗…</text></g><g class="node" transform="translate(233.82923548337521,-2.5497726292673595)"><circle class="outline" cx="0" cy="0" r="25" fill="#F16667" stroke="#eb2728" stroke-width="2px"/><text text-anchor="middle" pointer-events="none" font-family="sans-serif" dy="1.5625" font-size="25" fill="#FFFFFF"/><text text-anchor="middle" pointer-events="none" y="5" font-size="10px" fill="#FFFFFF" font-family="sans-serif"> 纸短情…</text></g><g class="node" transform="translate(-167.79564279893134,102.52228925559785)"><circle class="outline" cx="0" cy="0" r="25" fill="#4C8EDA" stroke="#2870c2" stroke-width="2px"/><text text-anchor="middle" pointer-events="none" font-family="sans-serif" dy="1.5625" font-size="25" fill="#FFFFFF"/><text text-anchor="middle" pointer-events="none" y="5" font-size="10px" fill="#FFFFFF" font-family="sans-serif"> ساراڭ</text></g><g class="node" transform="translate(-57.937389562478735,82.58730070307723)"><circle class="outline" cx="0" cy="0" r="25" fill="#4C8EDA" stroke="#2870c2" stroke-width="2px"/><text text-anchor="middle" pointer-events="none" font-family="sans-serif" dy="1.5625" font-size="25" fill="#FFFFFF"/><text text-anchor="middle" pointer-events="none" y="5" font-size="10px" fill="#FFFFFF" font-family="sans-serif"> 刘心最…</text></g><g class="node" transform="translate(-134.63715167029218,152.51321712756672)"><circle class="outline" cx="0" cy="0" r="25" fill="#4C8EDA" stroke="#2870c2" stroke-width="2px"/><text text-anchor="middle" pointer-events="none" font-family="sans-serif" dy="1.5625" font-size="25" fill="#FFFFFF"/><text text-anchor="middle" pointer-events="none" y="5" font-size="10px" fill="#FFFFFF" font-family="sans-serif"> 陪伴本…</text></g><g class="node" transform="translate(-166.54255073315744,42.55341636244486)"><circle class="outline" cx="0" cy="0" r="25" fill="#ECB5C9" stroke="#da7298" stroke-width="2px"/><text text-anchor="middle" pointer-events="none" font-family="sans-serif" dy="1.5625" font-size="25" fill="#604A0E"/><text text-anchor="middle" pointer-events="none" y="5" font-size="10px" fill="#604A0E" font-family="sans-serif"> 热门华…</text></g><g class="node" transform="translate(212.74995898168984,120.23511010843018)"><circle class="outline" cx="0" cy="0" r="25" fill="#FFC454" stroke="#d7a013" stroke-width="2px"/><text text-anchor="middle" pointer-events="none" font-family="sans-serif" dy="1.5625" font-size="25" fill="#604A0E"/><text text-anchor="middle" pointer-events="none" y="5" font-size="10px" fill="#604A0E" font-family="sans-serif"> 刘心</text></g><g class="node" transform="translate(72.54791329592514,-15.971643465937218)"><circle class="outline" cx="0" cy="0" r="25" fill="#F16667" stroke="#eb2728" stroke-width="2px"/><text text-anchor="middle" pointer-events="none" font-family="sans-serif" dy="1.5625" font-size="25" fill="#FFFFFF"/><text text-anchor="middle" pointer-events="none" y="5" font-size="10px" fill="#FFFFFF" font-family="sans-serif"> 思念谁(L…</text></g><g class="node" transform="translate(204.1868815671911,-62.83060303441736)"><circle class="outline" cx="0" cy="0" r="25" fill="#F16667" stroke="#eb2728" stroke-width="2px"/><text text-anchor="middle" pointer-events="none" font-family="sans-serif" dy="1.5625" font-size="25" fill="#FFFFFF"/><text text-anchor="middle" pointer-events="none" y="5" font-size="10px" fill="#FFFFFF" font-family="sans-serif"> 情难枕(c…</text></g><g class="node" transform="translate(-43.98905238417614,-170.58940134268735)"><circle class="outline" cx="0" cy="0" r="25" fill="#4C8EDA" stroke="#2870c2" stroke-width="2px"/><text text-anchor="middle" pointer-events="none" font-family="sans-serif" dy="1.5625" font-size="25" fill="#FFFFFF"/><text text-anchor="middle" pointer-events="none" y="5" font-size="10px" fill="#FFFFFF" font-family="sans-serif"> بارالمىدىم.</text></g><g class="node" transform="translate(-97.86861375100665,-144.2244723872796)"><circle class="outline" cx="0" cy="0" r="25" fill="#4C8EDA" stroke="#2870c2" stroke-width="2px"/><text text-anchor="middle" pointer-events="none" font-family="sans-serif" dy="1.5625" font-size="25" fill="#FFFFFF"/><text text-anchor="middle" pointer-events="none" y="5" font-size="10px" fill="#FFFFFF" font-family="sans-serif"> كۇتۇش</text></g><g class="node" transform="translate(-134.60957252543366,-96.7941074851302)"><circle class="outline" cx="0" cy="0" r="25" fill="#ECB5C9" stroke="#da7298" stroke-width="2px"/><text text-anchor="middle" pointer-events="none" font-family="sans-serif" dy="1.5625" font-size="25" fill="#604A0E"/><text text-anchor="middle" pointer-events="none" y="5" font-size="10px" fill="#604A0E" font-family="sans-serif"> 热门华…</text></g><g class="node" transform="translate(283.7414843974857,-159.32274379203096)"><circle class="outline" cx="0" cy="0" r="25" fill="#F16667" stroke="#eb2728" stroke-width="2px"/><text text-anchor="middle" pointer-events="none" font-family="sans-serif" dy="1.5625" font-size="25" fill="#FFFFFF"/><text text-anchor="middle" pointer-events="none" y="5" font-size="10px" fill="#FFFFFF" font-family="sans-serif"> 屌丝情歌</text></g><g class="node" transform="translate(166.01681077277584,-171.9697004669038)"><circle class="outline" cx="0" cy="0" r="25" fill="#4C8EDA" stroke="#2870c2" stroke-width="2px"/><text text-anchor="middle" pointer-events="none" font-family="sans-serif" dy="1.5625" font-size="25" fill="#FFFFFF"/><text text-anchor="middle" pointer-events="none" y="5" font-size="10px" fill="#FFFFFF" font-family="sans-serif"> 那些很…</text></g><g class="node" transform="translate(444.7550454612539,-242.41016854522996)"><circle class="outline" cx="0" cy="0" r="25" fill="#4C8EDA" stroke="#2870c2" stroke-width="2px"/><text text-anchor="middle" pointer-events="none" font-family="sans-serif" dy="1.5625" font-size="25" fill="#FFFFFF"/><text text-anchor="middle" pointer-events="none" y="5" font-size="10px" fill="#FFFFFF" font-family="sans-serif"> (˘³˘)♡个…</text></g><g class="node" transform="translate(412.69491543253037,-293.1140740757351)"><circle class="outline" cx="0" cy="0" r="25" fill="#4C8EDA" stroke="#2870c2" stroke-width="2px"/><text text-anchor="middle" pointer-events="none" font-family="sans-serif" dy="1.5625" font-size="25" fill="#FFFFFF"/><text text-anchor="middle" pointer-events="none" y="5" font-size="10px" fill="#FFFFFF" font-family="sans-serif"> 有时翻…</text></g><g class="node" transform="translate(361.7917902881637,-324.80423700614654)"><circle class="outline" cx="0" cy="0" r="25" fill="#ECB5C9" stroke="#da7298" stroke-width="2px"/><text text-anchor="middle" pointer-events="none" font-family="sans-serif" dy="1.5625" font-size="25" fill="#604A0E"/><text text-anchor="middle" pointer-events="none" y="5" font-size="10px" fill="#604A0E" font-family="sans-serif"> 屌丝情歌</text></g><g class="node" transform="translate(303.75790488607885,-340.0332853833026)"><circle class="outline" cx="0" cy="0" r="25" fill="#FFC454" stroke="#d7a013" stroke-width="2px"/><text text-anchor="middle" pointer-events="none" font-family="sans-serif" dy="1.5625" font-size="25" fill="#604A0E"/><text text-anchor="middle" pointer-events="none" y="5" font-size="10px" fill="#604A0E" font-family="sans-serif"> 大鹏</text></g><g class="node" transform="translate(592.6471345797369,335.2890740819527)"><circle class="outline" cx="0" cy="0" r="25" fill="#4C8EDA" stroke="#2870c2" stroke-width="2px"/><text text-anchor="middle" pointer-events="none" font-family="sans-serif" dy="1.5625" font-size="25" fill="#FFFFFF"/><text text-anchor="middle" pointer-events="none" y="5" font-size="10px" fill="#FFFFFF" font-family="sans-serif"> 【2019…</text></g><g class="node" transform="translate(450.67305232843023,236.1721108084157)"><circle class="outline" cx="0" cy="0" r="25" fill="#F16667" stroke="#eb2728" stroke-width="2px"/><text text-anchor="middle" pointer-events="none" font-family="sans-serif" dy="1.5625" font-size="25" fill="#FFFFFF"/><text text-anchor="middle" pointer-events="none" y="5" font-size="10px" fill="#FFFFFF" font-family="sans-serif"> 方向感</text></g><g class="node" transform="translate(546.6484693432232,378.486952882051)"><circle class="outline" cx="0" cy="0" r="25" fill="#4C8EDA" stroke="#2870c2" stroke-width="2px"/><text text-anchor="middle" pointer-events="none" font-family="sans-serif" dy="1.5625" font-size="25" fill="#FFFFFF"/><text text-anchor="middle" pointer-events="none" y="5" font-size="10px" fill="#FFFFFF" font-family="sans-serif"> 斗音歌…</text></g><g class="node" transform="translate(617.5831618964902,280.0144785760526)"><circle class="outline" cx="0" cy="0" r="25" fill="#4C8EDA" stroke="#2870c2" stroke-width="2px"/><text text-anchor="middle" pointer-events="none" font-family="sans-serif" dy="1.5625" font-size="25" fill="#FFFFFF"/><text text-anchor="middle" pointer-events="none" y="5" font-size="10px" fill="#FFFFFF" font-family="sans-serif"> 亲爱的…</text></g><g class="node" transform="translate(621.7007872252143,216.7761746296982)"><circle class="outline" cx="0" cy="0" r="25" fill="#ECB5C9" stroke="#da7298" stroke-width="2px"/><text text-anchor="middle" pointer-events="none" font-family="sans-serif" dy="1.5625" font-size="25" fill="#604A0E"/><text text-anchor="middle" pointer-events="none" y="5" font-size="10px" fill="#604A0E" font-family="sans-serif"> 你是我…</text></g><g class="node" transform="translate(133.89259798274338,121.9369493133655)"><circle class="outline" cx="0" cy="0" r="25" fill="#F16667" stroke="#eb2728" stroke-width="2px"/><text text-anchor="middle" pointer-events="none" font-family="sans-serif" dy="1.5625" font-size="25" fill="#FFFFFF"/><text text-anchor="middle" pointer-events="none" y="5" font-size="10px" fill="#FFFFFF" font-family="sans-serif"> 剪云者/…</text></g><g class="node" transform="translate(36.44433518321148,280.3884462385133)"><circle class="outline" cx="0" cy="0" r="25" fill="#4C8EDA" stroke="#2870c2" stroke-width="2px"/><text text-anchor="middle" pointer-events="none" font-family="sans-serif" dy="1.5625" font-size="25" fill="#FFFFFF"/><text text-anchor="middle" pointer-events="none" y="5" font-size="10px" fill="#FFFFFF" font-family="sans-serif"> 前方高…</text></g><g class="node" transform="translate(99.50732500604359,298.2375240458441)"><circle class="outline" cx="0" cy="0" r="25" fill="#4C8EDA" stroke="#2870c2" stroke-width="2px"/><text text-anchor="middle" pointer-events="none" font-family="sans-serif" dy="1.5625" font-size="25" fill="#FFFFFF"/><text text-anchor="middle" pointer-events="none" y="5" font-size="10px" fill="#FFFFFF" font-family="sans-serif"> 值得单…</text></g><g class="node" transform="translate(-46.501368984462026,180.86199759544803)"><circle class="outline" cx="0" cy="0" r="25" fill="#4C8EDA" stroke="#2870c2" stroke-width="2px"/><text text-anchor="middle" pointer-events="none" font-family="sans-serif" dy="1.5625" font-size="25" fill="#FFFFFF"/><text text-anchor="middle" pointer-events="none" y="5" font-size="10px" fill="#FFFFFF" font-family="sans-serif"> 唱首情…</text></g><g class="node" transform="translate(-18.207997893700096,250.8238642067398)"><circle class="outline" cx="0" cy="0" r="25" fill="#ECB5C9" stroke="#da7298" stroke-width="2px"/><text text-anchor="middle" pointer-events="none" font-family="sans-serif" dy="1.5625" font-size="25" fill="#604A0E"/><text text-anchor="middle" pointer-events="none" y="5" font-size="10px" fill="#604A0E" font-family="sans-serif"> 剪云者/…</text></g><g class="node" transform="translate(69.4925586729323,-134.90403449686073)"><circle class="outline" cx="0" cy="0" r="25" fill="#4C8EDA" stroke="#2870c2" stroke-width="2px"/><text text-anchor="middle" pointer-events="none" font-family="sans-serif" dy="1.5625" font-size="25" fill="#FFFFFF"/><text text-anchor="middle" pointer-events="none" y="5" font-size="10px" fill="#FFFFFF" font-family="sans-serif"> 天娱精…</text></g><g class="node" transform="translate(174.25321892368325,166.1756780480661)"><circle class="outline" cx="0" cy="0" r="25" fill="#4C8EDA" stroke="#2870c2" stroke-width="2px"/><text text-anchor="middle" pointer-events="none" font-family="sans-serif" dy="1.5625" font-size="25" fill="#FFFFFF"/><text text-anchor="middle" pointer-events="none" y="5" font-size="10px" fill="#FFFFFF" font-family="sans-serif"> 谭佑铭(…</text></g><g class="node" transform="translate(222.07990051537794,-150.81092171415042)"><circle class="outline" cx="0" cy="0" r="25" fill="#ECB5C9" stroke="#da7298" stroke-width="2px"/><text text-anchor="middle" pointer-events="none" font-family="sans-serif" dy="1.5625" font-size="25" fill="#604A0E"/><text text-anchor="middle" pointer-events="none" y="5" font-size="10px" fill="#604A0E" font-family="sans-serif"> 单身狗…</text></g><g class="node" transform="translate(306.44639610124773,-103.79830874180496)"><circle class="outline" cx="0" cy="0" r="25" fill="#FFC454" stroke="#d7a013" stroke-width="2px"/><text text-anchor="middle" pointer-events="none" font-family="sans-serif" dy="1.5625" font-size="25" fill="#604A0E"/><text text-anchor="middle" pointer-events="none" y="5" font-size="10px" fill="#604A0E" font-family="sans-serif"> 张阳阳</text></g><g class="node" transform="translate(100.6902044429372,47.652945736452594)"><circle class="outline" cx="0" cy="0" r="25" fill="#F16667" stroke="#eb2728" stroke-width="2px"/><text text-anchor="middle" pointer-events="none" font-family="sans-serif" dy="1.5625" font-size="25" fill="#FFFFFF"/><text text-anchor="middle" pointer-events="none" y="5" font-size="10px" fill="#FFFFFF" font-family="sans-serif"> 有里也…</text></g><g class="node" transform="translate(229.50124767598635,220.4608807271544)"><circle class="outline" cx="0" cy="0" r="25" fill="#F16667" stroke="#eb2728" stroke-width="2px"/><text text-anchor="middle" pointer-events="none" font-family="sans-serif" dy="1.5625" font-size="25" fill="#FFFFFF"/><text text-anchor="middle" pointer-events="none" y="5" font-size="10px" fill="#FFFFFF" font-family="sans-serif"> 小确幸</text></g><g class="node" transform="translate(172.4302408864292,75.9503210005141)"><circle class="outline" cx="0" cy="0" r="25" fill="#4C8EDA" stroke="#2870c2" stroke-width="2px"/><text text-anchor="middle" pointer-events="none" font-family="sans-serif" dy="1.5625" font-size="25" fill="#FFFFFF"/><text text-anchor="middle" pointer-events="none" y="5" font-size="10px" fill="#FFFFFF" font-family="sans-serif"> 民谣“不…</text></g><g class="node" transform="translate(-86.64928193563507,-29.93670635752969)"><circle class="outline" cx="0" cy="0" r="25" fill="#4C8EDA" stroke="#2870c2" stroke-width="2px"/><text text-anchor="middle" pointer-events="none" font-family="sans-serif" dy="1.5625" font-size="25" fill="#FFFFFF"/><text text-anchor="middle" pointer-events="none" y="5" font-size="10px" fill="#FFFFFF" font-family="sans-serif"> 上仙全…</text></g><g class="node" transform="translate(-34.49280158016274,-59.595684876374854)"><circle class="outline" cx="0" cy="0" r="25" fill="#4C8EDA" stroke="#2870c2" stroke-width="2px"/><text text-anchor="middle" pointer-events="none" font-family="sans-serif" dy="1.5625" font-size="25" fill="#FFFFFF"/><text text-anchor="middle" pointer-events="none" y="5" font-size="10px" fill="#FFFFFF" font-family="sans-serif"> 随机播放¡</text></g><g class="node" transform="translate(-86.8952987235694,30.009102936062508)"><circle class="outline" cx="0" cy="0" r="25" fill="#ECB5C9" stroke="#da7298" stroke-width="2px"/><text text-anchor="middle" pointer-events="none" font-family="sans-serif" dy="1.5625" font-size="25" fill="#604A0E"/><text text-anchor="middle" pointer-events="none" y="5" font-size="10px" fill="#604A0E" font-family="sans-serif"> 有里也…</text></g><g class="node" transform="translate(107.20323651921667,-209.96290923630878)"><circle class="outline" cx="0" cy="0" r="25" fill="#F16667" stroke="#eb2728" stroke-width="2px"/><text text-anchor="middle" pointer-events="none" font-family="sans-serif" dy="1.5625" font-size="25" fill="#FFFFFF"/><text text-anchor="middle" pointer-events="none" y="5" font-size="10px" fill="#FFFFFF" font-family="sans-serif"> 爱</text></g><g class="node" transform="translate(137.6245317717131,-382.7456991556901)"><circle class="outline" cx="0" cy="0" r="25" fill="#4C8EDA" stroke="#2870c2" stroke-width="2px"/><text text-anchor="middle" pointer-events="none" font-family="sans-serif" dy="1.5625" font-size="25" fill="#FFFFFF"/><text text-anchor="middle" pointer-events="none" y="5" font-size="10px" fill="#FFFFFF" font-family="sans-serif"> 喀什三中</text></g><g class="node" transform="translate(-11.623220930130648,-370.9141573623061)"><circle class="outline" cx="0" cy="0" r="25" fill="#4C8EDA" stroke="#2870c2" stroke-width="2px"/><text text-anchor="middle" pointer-events="none" font-family="sans-serif" dy="1.5625" font-size="25" fill="#FFFFFF"/><text text-anchor="middle" pointer-events="none" y="5" font-size="10px" fill="#FFFFFF" font-family="sans-serif"> 那些年…</text></g><g class="node" transform="translate(-39.68527208768396,-316.8847404292647)"><circle class="outline" cx="0" cy="0" r="25" fill="#4C8EDA" stroke="#2870c2" stroke-width="2px"/><text text-anchor="middle" pointer-events="none" font-family="sans-serif" dy="1.5625" font-size="25" fill="#FFFFFF"/><text text-anchor="middle" pointer-events="none" y="5" font-size="10px" fill="#FFFFFF" font-family="sans-serif"> 陈翔热…</text></g><g class="node" transform="translate(77.98103968408074,-401.7119092089266)"><circle class="outline" cx="0" cy="0" r="25" fill="#ECB5C9" stroke="#da7298" stroke-width="2px"/><text text-anchor="middle" pointer-events="none" font-family="sans-serif" dy="1.5625" font-size="25" fill="#604A0E"/><text text-anchor="middle" pointer-events="none" y="5" font-size="10px" fill="#604A0E" font-family="sans-serif"> 热门华…</text></g><g class="node" transform="translate(45.12105921723835,-351.5359178135009)"><circle class="outline" cx="0" cy="0" r="25" fill="#FFC454" stroke="#d7a013" stroke-width="2px"/><text text-anchor="middle" pointer-events="none" font-family="sans-serif" dy="1.5625" font-size="25" fill="#604A0E"/><text text-anchor="middle" pointer-events="none" y="5" font-size="10px" fill="#604A0E" font-family="sans-serif"> 赵帆</text></g><g class="node" transform="translate(291.9271171657963,75.11174380318228)"><circle class="outline" cx="0" cy="0" r="25" fill="#F16667" stroke="#eb2728" stroke-width="2px"/><text text-anchor="middle" pointer-events="none" font-family="sans-serif" dy="1.5625" font-size="25" fill="#FFFFFF"/><text text-anchor="middle" pointer-events="none" y="5" font-size="10px" fill="#FFFFFF" font-family="sans-serif"> 无尽的夜</text></g><g class="node" transform="translate(340.038847975067,178.22432496025274)"><circle class="outline" cx="0" cy="0" r="25" fill="#F16667" stroke="#eb2728" stroke-width="2px"/><text text-anchor="middle" pointer-events="none" font-family="sans-serif" dy="1.5625" font-size="25" fill="#FFFFFF"/><text text-anchor="middle" pointer-events="none" y="5" font-size="10px" fill="#FFFFFF" font-family="sans-serif"> 心大</text></g><g class="node" transform="translate(379.8374021154822,-24.07254130148163)"><circle class="outline" cx="0" cy="0" r="25" fill="#4C8EDA" stroke="#2870c2" stroke-width="2px"/><text text-anchor="middle" pointer-events="none" font-family="sans-serif" dy="1.5625" font-size="25" fill="#FFFFFF"/><text text-anchor="middle" pointer-events="none" y="5" font-size="10px" fill="#FFFFFF" font-family="sans-serif"> 最后最…</text></g><g class="node" transform="translate(330.09208327559156,241.85577884684488)"><circle class="outline" cx="0" cy="0" r="25" fill="#4C8EDA" stroke="#2870c2" stroke-width="2px"/><text text-anchor="middle" pointer-events="none" font-family="sans-serif" dy="1.5625" font-size="25" fill="#FFFFFF"/><text text-anchor="middle" pointer-events="none" y="5" font-size="10px" fill="#FFFFFF" font-family="sans-serif"> 小载循…</text></g><g class="node" transform="translate(389.8315038717333,238.42840756305065)"><circle class="outline" cx="0" cy="0" r="25" fill="#4C8EDA" stroke="#2870c2" stroke-width="2px"/><text text-anchor="middle" pointer-events="none" font-family="sans-serif" dy="1.5625" font-size="25" fill="#FFFFFF"/><text text-anchor="middle" pointer-events="none" y="5" font-size="10px" fill="#FFFFFF" font-family="sans-serif"> [华语私…</text></g><g class="node" transform="translate(473.09499892530465,116.87909145042885)"><circle class="outline" cx="0" cy="0" r="25" fill="#ECB5C9" stroke="#da7298" stroke-width="2px"/><text text-anchor="middle" pointer-events="none" font-family="sans-serif" dy="1.5625" font-size="25" fill="#604A0E"/><text text-anchor="middle" pointer-events="none" y="5" font-size="10px" fill="#604A0E" font-family="sans-serif"> 无尽的夜</text></g><g class="node" transform="translate(297.5754950298141,15.408578895865732)"><circle class="outline" cx="0" cy="0" r="25" fill="#F16667" stroke="#eb2728" stroke-width="2px"/><text text-anchor="middle" pointer-events="none" font-family="sans-serif" dy="1.5625" font-size="25" fill="#FFFFFF"/><text text-anchor="middle" pointer-events="none" y="5" font-size="10px" fill="#FFFFFF" font-family="sans-serif"> 辛德瑞拉</text></g><g class="node" transform="translate(426.8507806273492,71.07392950197227)"><circle class="outline" cx="0" cy="0" r="25" fill="#4C8EDA" stroke="#2870c2" stroke-width="2px"/><text text-anchor="middle" pointer-events="none" font-family="sans-serif" dy="1.5625" font-size="25" fill="#FFFFFF"/><text text-anchor="middle" pointer-events="none" y="5" font-size="10px" fill="#FFFFFF" font-family="sans-serif"> 丧完就…</text></g><g class="node" transform="translate(452.7090979424614,-98.1179159425458)"><circle class="outline" cx="0" cy="0" r="25" fill="#4C8EDA" stroke="#2870c2" stroke-width="2px"/><text text-anchor="middle" pointer-events="none" font-family="sans-serif" dy="1.5625" font-size="25" fill="#FFFFFF"/><text text-anchor="middle" pointer-events="none" y="5" font-size="10px" fill="#FFFFFF" font-family="sans-serif"> 路远情…</text></g><g class="node" transform="translate(487.8823200743735,-48.96999324563825)"><circle class="outline" cx="0" cy="0" r="25" fill="#4C8EDA" stroke="#2870c2" stroke-width="2px"/><text text-anchor="middle" pointer-events="none" font-family="sans-serif" dy="1.5625" font-size="25" fill="#FFFFFF"/><text text-anchor="middle" pointer-events="none" y="5" font-size="10px" fill="#FFFFFF" font-family="sans-serif"> _Y1ME…</text></g><g class="node" transform="translate(492.6578107908132,16.638050556383345)"><circle class="outline" cx="0" cy="0" r="25" fill="#ECB5C9" stroke="#da7298" stroke-width="2px"/><text text-anchor="middle" pointer-events="none" font-family="sans-serif" dy="1.5625" font-size="25" fill="#604A0E"/><text text-anchor="middle" pointer-events="none" y="5" font-size="10px" fill="#604A0E" font-family="sans-serif"> 辛德瑞拉</text></g><g class="node" transform="translate(133.18577256869176,215.84631544621917)"><circle class="outline" cx="0" cy="0" r="25" fill="#F16667" stroke="#eb2728" stroke-width="2px"/><text text-anchor="middle" pointer-events="none" font-family="sans-serif" dy="1.5625" font-size="25" fill="#FFFFFF"/><text text-anchor="middle" pointer-events="none" y="5" font-size="10px" fill="#FFFFFF" font-family="sans-serif"> 游响云停</text></g><g class="node" transform="translate(94.68753405082603,411.9143968248623)"><circle class="outline" cx="0" cy="0" r="25" fill="#4C8EDA" stroke="#2870c2" stroke-width="2px"/><text text-anchor="middle" pointer-events="none" font-family="sans-serif" dy="1.5625" font-size="25" fill="#FFFFFF"/><text text-anchor="middle" pointer-events="none" y="5" font-size="10px" fill="#FFFFFF" font-family="sans-serif"> 啊哦哦…</text></g><g class="node" transform="translate(33.39718585024704,391.416554146999)"><circle class="outline" cx="0" cy="0" r="25" fill="#4C8EDA" stroke="#2870c2" stroke-width="2px"/><text text-anchor="middle" pointer-events="none" font-family="sans-serif" dy="1.5625" font-size="25" fill="#FFFFFF"/><text text-anchor="middle" pointer-events="none" y="5" font-size="10px" fill="#FFFFFF" font-family="sans-serif"> 只是后…</text></g><g class="node" transform="translate(155.95343230625025,403.82740541073764)"><circle class="outline" cx="0" cy="0" r="25" fill="#ECB5C9" stroke="#da7298" stroke-width="2px"/><text text-anchor="middle" pointer-events="none" font-family="sans-serif" dy="1.5625" font-size="25" fill="#604A0E"/><text text-anchor="middle" pointer-events="none" y="5" font-size="10px" fill="#604A0E" font-family="sans-serif"> 小新</text></g><g class="node" transform="translate(235.21970399594593,-245.36025224139814)"><circle class="outline" cx="0" cy="0" r="25" fill="#ECB5C9" stroke="#da7298" stroke-width="2px"/><text text-anchor="middle" pointer-events="none" font-family="sans-serif" dy="1.5625" font-size="25" fill="#604A0E"/><text text-anchor="middle" pointer-events="none" y="5" font-size="10px" fill="#604A0E" font-family="sans-serif"> 情难枕</text></g><g class="node" transform="translate(-194.41494741108156,245.2988582468554)"><circle class="outline" cx="0" cy="0" r="25" fill="#4C8EDA" stroke="#2870c2" stroke-width="2px"/><text text-anchor="middle" pointer-events="none" font-family="sans-serif" dy="1.5625" font-size="25" fill="#FFFFFF"/><text text-anchor="middle" pointer-events="none" y="5" font-size="10px" fill="#FFFFFF" font-family="sans-serif"> 无损人…</text></g><g class="node" transform="translate(-165.7780240104771,300.07093819970896)"><circle class="outline" cx="0" cy="0" r="25" fill="#4C8EDA" stroke="#2870c2" stroke-width="2px"/><text text-anchor="middle" pointer-events="none" font-family="sans-serif" dy="1.5625" font-size="25" fill="#FFFFFF"/><text text-anchor="middle" pointer-events="none" y="5" font-size="10px" fill="#FFFFFF" font-family="sans-serif"> 「活着…</text></g><g class="node" transform="translate(-120.55888407571021,345.8471992036607)"><circle class="outline" cx="0" cy="0" r="25" fill="#ECB5C9" stroke="#da7298" stroke-width="2px"/><text text-anchor="middle" pointer-events="none" font-family="sans-serif" dy="1.5625" font-size="25" fill="#604A0E"/><text text-anchor="middle" pointer-events="none" y="5" font-size="10px" fill="#604A0E" font-family="sans-serif"> 热门华…</text></g><g class="node" transform="translate(298.1962764684972,134.68100449692952)"><circle class="outline" cx="0" cy="0" r="25" fill="#F16667" stroke="#eb2728" stroke-width="2px"/><text text-anchor="middle" pointer-events="none" font-family="sans-serif" dy="1.5625" font-size="25" fill="#FFFFFF"/><text text-anchor="middle" pointer-events="none" y="5" font-size="10px" fill="#FFFFFF" font-family="sans-serif"> 疯狂而…</text></g><g class="node" transform="translate(301.6520447145801,307.15943412427487)"><circle class="outline" cx="0" cy="0" r="25" fill="#F16667" stroke="#eb2728" stroke-width="2px"/><text text-anchor="middle" pointer-events="none" font-family="sans-serif" dy="1.5625" font-size="25" fill="#FFFFFF"/><text text-anchor="middle" pointer-events="none" y="5" font-size="10px" fill="#FFFFFF" font-family="sans-serif"> 有回忆…</text></g><g class="node" transform="translate(359.4936397461505,478.7425897386089)"><circle class="outline" cx="0" cy="0" r="25" fill="#4C8EDA" stroke="#2870c2" stroke-width="2px"/><text text-anchor="middle" pointer-events="none" font-family="sans-serif" dy="1.5625" font-size="25" fill="#FFFFFF"/><text text-anchor="middle" pointer-events="none" y="5" font-size="10px" fill="#FFFFFF" font-family="sans-serif"> ［华语…</text></g><g class="node" transform="translate(299.12389785982407,487.1033350330616)"><circle class="outline" cx="0" cy="0" r="25" fill="#4C8EDA" stroke="#2870c2" stroke-width="2px"/><text text-anchor="middle" pointer-events="none" font-family="sans-serif" dy="1.5625" font-size="25" fill="#FFFFFF"/><text text-anchor="middle" pointer-events="none" y="5" font-size="10px" fill="#FFFFFF" font-family="sans-serif"> 你今天…</text></g><g class="node" transform="translate(409.50177763024016,443.94699826232085)"><circle class="outline" cx="0" cy="0" r="25" fill="#ECB5C9" stroke="#da7298" stroke-width="2px"/><text text-anchor="middle" pointer-events="none" font-family="sans-serif" dy="1.5625" font-size="25" fill="#604A0E"/><text text-anchor="middle" pointer-events="none" y="5" font-size="10px" fill="#604A0E" font-family="sans-serif"> 有回忆…</text></g><g class="node" transform="translate(126.46773919996956,-42.2154992369661)"><circle class="outline" cx="0" cy="0" r="25" fill="#F16667" stroke="#eb2728" stroke-width="2px"/><text text-anchor="middle" pointer-events="none" font-family="sans-serif" dy="1.5625" font-size="25" fill="#FFFFFF"/><text text-anchor="middle" pointer-events="none" y="5" font-size="10px" fill="#FFFFFF" font-family="sans-serif"> 老街（C…</text></g></g></svg>